<svg height="464pt" viewBox="0 -20 464 464" width="464pt" xmlns="http://www.w3.org/2000/svg">
    <g fill="currentColor">
        <path d="m350.398438 134.769531c-9.296876 4.386719-18.292969 9.394531-26.917969 14.992188-2.972657 1.925781-4.324219 5.582031-3.320313 8.980469 1.007813 3.398437 4.128906 5.730468 7.671875 5.730468 1.542969 0 3.054688-.449218 4.34375-1.296875 8.03125-5.199219 16.398438-9.855469 25.046875-13.945312 2.671875-1.164063 4.5-3.6875 4.769532-6.589844.269531-2.902344-1.058594-5.722656-3.472657-7.359375-2.410156-1.636719-5.523437-1.835938-8.121093-.511719zm0 0"/>
        <path d="m298.824219 168.183594c-7.796875 6.671875-15.152344 13.84375-22.023438 21.464844-1.996093 2.109374-2.691406 5.132812-1.820312 7.898437.871093 2.769531 3.175781 4.847656 6.015625 5.433594 2.84375.585937 5.78125-.414063 7.675781-2.613281 6.417969-7.101563 13.289063-13.78125 20.566406-20 3.359375-2.871094 3.753907-7.921876.882813-11.277344-2.871094-3.359375-7.921875-3.753906-11.28125-.882813zm0 0"/>
        <path d="m373.871094 133.550781c1.050781 3.335938 4.140625 5.601563 7.632812 5.601563.816406 0 1.625-.128906 2.398438-.375 9.136718-2.894532 18.449218-5.199219 27.882812-6.898438 4.347656-.789062 7.230469-4.957031 6.4375-9.304687-.789062-4.347657-4.953125-7.230469-9.300781-6.4375-10.09375 1.828125-20.0625 4.296875-29.84375 7.382812-4.203125 1.335938-6.535156 5.824219-5.207031 10.03125zm0 0"/>
        <path d="m440 128.472656h.480469c5.042969-.316406 10.21875-.472656 15.519531-.472656 4.417969 0 8-3.582031 8-8s-3.582031-8-8-8c-5.617188 0-11.105469.164062-16.472656.488281-4.417969.128907-7.894532 3.8125-7.765625 8.230469.125 4.417969 3.8125 7.898438 8.230469 7.769531zm0 0"/>
        <path d="m232 32c4.417969 0 8-3.582031 8-8v-16c0-4.417969-3.582031-8-8-8s-8 3.582031-8 8v16c0 4.417969 3.582031 8 8 8zm0 0"/>
        <path d="m232 141.71875c4.417969 0 8-3.582031 8-8v-27.429688c0-4.417968-3.582031-8-8-8s-8 3.582032-8 8v27.429688c0 4.417969 3.582031 8 8 8zm0 0"/>
        <path d="m232 196.566406c4.417969 0 8-3.582031 8-8v-27.421875c0-4.417969-3.582031-8-8-8s-8 3.582031-8 8v27.421875c0 4.417969 3.582031 8 8 8zm0 0"/>
        <path d="m232 86.855469c4.417969 0 8-3.582031 8-8v-27.421875c0-4.417969-3.582031-8-8-8s-8 3.582031-8 8v27.421875c0 4.417969 3.582031 8 8 8zm0 0"/>
        <path d="m280.710938 128.96875c3.839843 2.1875 8.726562.847656 10.914062-2.992188 5.710938-10.023437 11.757812-19.5625 17.96875-28.367187 2.542969-3.613281 1.679688-8.605469-1.933594-11.148437-3.613281-2.546876-8.601562-1.679688-11.148437 1.929687-6.496094 9.21875-12.800781 19.203125-18.792969 29.664063-2.1875 3.839843-.847656 8.726562 2.992188 10.914062zm0 0"/>
        <path d="m324.425781 74.128906c2.265625 0 4.425781-.957031 5.941407-2.640625 7.375-8.234375 15.355468-15.90625 23.878906-22.945312 3.320312-2.824219 3.765625-7.785157 1.003906-11.15625-2.761719-3.371094-7.714844-3.914063-11.136719-1.21875-9.136719 7.550781-17.691406 15.773437-25.601562 24.601562-2.117188 2.347657-2.65625 5.722657-1.371094 8.609375 1.285156 2.890625 4.152344 4.75 7.316406 4.75zm0 0"/>
        <path d="m252.601562 191.640625c4.121094 1.582031 8.75-.476563 10.335938-4.601563 4.0625-10.574218 8.511719-21.046874 13.214844-31.117187 1.867187-4.007813.132812-8.765625-3.871094-10.632813-4.007812-1.867187-8.765625-.132812-10.632812 3.871094-4.847657 10.390625-9.457032 21.238282-13.648438 32.144532-1.582031 4.125.476562 8.75 4.601562 10.335937zm0 0"/>
        <path d="m377.601562 31.03125c1.34375 0 2.667969-.34375 3.847657-.992188 4.460937-2.453124 9.078125-4.703124 13.710937-6.6875 4.058594-1.746093 5.9375-6.449218 4.191406-10.511718-1.746093-4.058594-6.449218-5.9375-10.511718-4.191406-5.085938 2.183593-10.175782 4.664062-15.097656 7.375-3.195313 1.761718-4.796876 5.464843-3.886719 9 .90625 3.535156 4.09375 6.007812 7.746093 6.007812zm0 0"/>
        <path d="m52.207031 131.871094c9.433594 1.699218 18.746094 4.003906 27.882813 6.898437 4.164062 1.175781 8.507812-1.167969 9.808594-5.296875 1.300781-4.128906-.921876-8.542968-5.011719-9.960937-9.78125-3.085938-19.746094-5.554688-29.839844-7.382813-4.347656-.792968-8.511719 2.089844-9.304687 6.4375-.789063 4.347656 2.09375 8.515625 6.441406 9.304688zm0 0"/>
        <path d="m175.359375 200.367188c1.894531 2.199218 4.832031 3.199218 7.675781 2.613281 2.839844-.585938 5.144532-2.664063 6.015625-5.433594.871094-2.765625.175781-5.789063-1.820312-7.898437-6.878907-7.625-14.246094-14.792969-22.054688-21.464844-3.359375-2.871094-8.40625-2.476563-11.28125.878906-2.871093 3.359375-2.476562 8.410156.882813 11.28125 7.285156 6.226562 14.160156 12.914062 20.582031 20.023438zm0 0"/>
        <path d="m106.761719 149.230469c8.648437 4.097656 17.015625 8.761719 25.046875 13.96875 1.289062.847656 2.800781 1.300781 4.34375 1.296875 3.542968 0 6.664062-2.332032 7.671875-5.730469 1.003906-3.398437-.347657-7.054687-3.320313-8.980469-8.621094-5.605468-17.609375-10.621094-26.902344-15.015625-2.597656-1.324219-5.710937-1.125-8.121093.511719-2.414063 1.636719-3.742188 4.457031-3.472657 7.359375.269532 2.902344 2.097657 5.425781 4.769532 6.589844zm0 0"/>
        <path d="m8 128c5.308594 0 10.484375.152344 15.527344.457031h.480468c4.417969.128907 8.105469-3.351562 8.230469-7.769531.128907-4.417969-3.347656-8.101562-7.765625-8.230469-5.367187-.304687-10.855468-.457031-16.472656-.457031-4.417969 0-8 3.582031-8 8s3.582031 8 8 8zm0 0"/>
        <path d="m172.375 125.976562c2.1875 3.839844 7.074219 5.179688 10.914062 2.992188 3.839844-2.1875 5.179688-7.074219 2.992188-10.914062-5.96875-10.46875-12.296875-20.445313-18.792969-29.664063-2.542969-3.613281-7.535156-4.480469-11.148437-1.9375-3.613282 2.542969-4.484375 7.53125-1.941406 11.148437 6.21875 8.796876 12.265624 18.351563 17.976562 28.375zm0 0"/>
        <path d="m187.847656 155.921875c4.703125 10.070313 9.152344 20.542969 13.214844 31.117187 1.609375 4.09375 6.214844 6.121094 10.316406 4.546876 4.101563-1.578126 6.167969-6.167969 4.621094-10.28125-4.191406-10.929688-8.800781-21.753907-13.648438-32.144532-1.867187-4.003906-6.625-5.738281-10.632812-3.871094-4.003906 1.867188-5.738281 6.625-3.871094 10.632813zm0 0"/>
        <path d="m133.601562 71.488281c2.949219 3.292969 8.011719 3.566407 11.300782.617188 3.292968-2.953125 3.570312-8.015625.617187-11.304688-7.90625-8.828125-16.464843-17.050781-25.597656-24.601562-3.425781-2.695313-8.378906-2.152344-11.140625 1.21875-2.757812 3.371093-2.316406 8.332031 1.003906 11.15625 8.5 7.03125 16.460938 14.691406 23.816406 22.914062zm0 0"/>
        <path d="m68.839844 23.351562c4.632812 1.984376 9.25 4.234376 13.710937 6.6875 3.878907 2.128907 8.746094.710938 10.875-3.167968 2.125-3.875.707031-8.742188-3.167969-10.871094-4.921874-2.710938-10.011718-5.191406-15.097656-7.375-4.0625-1.746094-8.765625.128906-10.511718 4.191406-1.746094 4.058594.132812 8.765625 4.191406 10.511719zm0 0"/>
        <path d="m456 360h-184c-4.417969 0-8-3.582031-8-8v-17.472656c9.53125-3.332032 15.933594-12.296875 15.996094-22.394532.058594-10.097656-6.242188-19.136718-15.730469-22.582031.734375-11.742187 3.574219-36.886719 14.398437-53.109375 1.636719-2.457031 1.792969-5.617187.398438-8.21875-1.394531-2.601562-4.109375-4.226562-7.0625-4.222656h-1.832031l.761719-1.152344c2.328124-3.648437 1.332031-8.492187-2.25-10.925781-3.582032-2.429687-8.453126-1.570313-10.984376 1.941406-2.839843 4.175781-4.953124 7.632813-6.398437 10.136719h-.800781c.441406-1.542969.9375-3.199219 1.496094-5.070312 1.011718-3.570313-.558594-7.367188-3.800782-9.175782-3.238281-1.804687-7.296875-1.148437-9.800781 1.589844-1.429687-2.089844-3.796875-3.339844-6.332031-3.339844-2.53125 0-4.902344 1.25-6.332032 3.339844-2.503906-2.742188-6.5625-3.402344-9.804687-1.589844-3.242187 1.808594-4.8125 5.613282-3.792969 9.183594.558594 1.863281 1.054688 3.527344 1.496094 5.070312h-.800781c-1.457031-2.503906-3.566407-5.960937-6.398438-10.136718-2.535156-3.511719-7.402343-4.371094-10.984375-1.941406-3.582031 2.433593-4.582031 7.277343-2.25 10.925781l.761719 1.152343h-1.953125c-2.949219 0-5.664062 1.625-7.054688 4.226563-1.390624 2.601563-1.238281 5.757813.398438 8.214844 10.824219 16.222656 13.65625 41.375 14.398438 53.109375-9.484376 3.445312-15.777344 12.484375-15.722657 22.574218.058594 10.09375 6.457031 19.058594 15.980469 22.394532v17.472656c0 4.417969-3.582031 8-8 8h-184c-4.417969 0-8 3.582031-8 8v48c0 4.417969 3.582031 8 8 8h448c4.417969 0 8-3.582031 8-8v-48c0-4.417969-3.582031-8-8-8zm-200-40h-48c-4.417969 0-8-3.582031-8-8s3.582031-8 8-8h48c4.417969 0 8 3.582031 8 8s-3.582031 8-8 8zm2.710938-80c-6.011719 15.339844-9.523438 31.546875-10.398438 48h-32.625c-.875-16.453125-4.386719-32.660156-10.398438-48zm189.289062 168h-432v-32h176c13.253906 0 24-10.746094 24-24v-16h32v16c0 13.253906 10.746094 24 24 24h176zm0 0"/>
    </g>
</svg>