<svg xmlns="http://www.w3.org/2000/svg" viewBox="0 0 470 470" width="470" height="470">
    <path
        fill="currentColor"
        d="M420.634,169.422c-0.002-0.025-0.003-0.05-0.006-0.074c-0.076-0.725-0.255-1.416-0.523-2.065
c-0.015-0.037-0.029-0.073-0.045-0.109c-0.269-0.623-0.617-1.198-1.037-1.72c-0.047-0.059-0.095-0.117-0.144-0.174
c-0.252-0.295-0.525-0.57-0.82-0.823c-0.044-0.038-0.084-0.079-0.129-0.116c-0.142-0.116-0.29-0.223-0.44-0.329
c-0.116-0.082-0.234-0.158-0.355-0.233c-0.181-0.113-0.364-0.219-0.555-0.316c-0.198-0.102-0.4-0.196-0.607-0.279
c-0.061-0.024-0.117-0.059-0.178-0.082l-121.154-52.115V69.211h111.028v31.49c0,4.142,3.358,7.5,7.5,7.5s7.5-3.358,7.5-7.5V62.108
c0.007-0.132,0.02-0.263,0.02-0.397c0-0.243-0.033-0.476-0.056-0.713c-0.002-0.025-0.003-0.05-0.006-0.074
c-0.076-0.725-0.255-1.416-0.523-2.065c-0.015-0.037-0.029-0.073-0.045-0.109c-0.269-0.623-0.617-1.198-1.037-1.72
c-0.047-0.059-0.095-0.117-0.144-0.174c-0.252-0.295-0.525-0.57-0.82-0.823c-0.044-0.038-0.084-0.079-0.129-0.116
c-0.142-0.116-0.29-0.223-0.44-0.329c-0.116-0.082-0.234-0.158-0.355-0.233c-0.181-0.113-0.364-0.219-0.555-0.316
c-0.198-0.102-0.4-0.196-0.607-0.279c-0.061-0.024-0.117-0.059-0.178-0.082L290.107,0.61C289.195,0.219,288.195,0,287.143,0H182.837
c-1.052,0-2.052,0.219-2.961,0.609C179.873,0.61,53.92,54.79,53.92,54.79c-0.023,0.01-0.046,0.02-0.069,0.03
c-0.083,0.036-0.156,0.076-0.232,0.112c-0.198,0.094-0.391,0.194-0.58,0.304c-0.131,0.076-0.262,0.152-0.387,0.235
c-0.065,0.043-0.125,0.091-0.189,0.136c-0.127,0.09-0.252,0.181-0.372,0.278c-0.06,0.049-0.118,0.101-0.177,0.152
c-0.116,0.1-0.229,0.201-0.338,0.308c-0.059,0.057-0.115,0.116-0.171,0.175c-0.101,0.105-0.199,0.212-0.293,0.323
c-0.058,0.067-0.114,0.136-0.169,0.205c-0.085,0.107-0.166,0.216-0.245,0.327c-0.056,0.078-0.111,0.156-0.164,0.236
c-0.07,0.108-0.135,0.219-0.2,0.329c-0.051,0.088-0.104,0.174-0.152,0.264c-0.061,0.116-0.115,0.235-0.171,0.354
c-0.061,0.132-0.12,0.265-0.174,0.4c-0.062,0.156-0.122,0.312-0.173,0.472c-0.029,0.091-0.052,0.185-0.077,0.278
c-0.037,0.132-0.073,0.265-0.103,0.399c-0.02,0.091-0.035,0.183-0.052,0.275c-0.026,0.145-0.049,0.29-0.067,0.437
c-0.01,0.085-0.019,0.17-0.026,0.256c-0.014,0.162-0.021,0.324-0.025,0.487c-0.001,0.051-0.008,0.1-0.008,0.15v38.99
c0,4.142,3.358,7.5,7.5,7.5s7.5-3.358,7.5-7.5v-31.49h111.028v41.773L53.92,163.212c-0.023,0.01-0.046,0.02-0.069,0.03
c-0.083,0.036-0.156,0.076-0.232,0.112c-0.198,0.094-0.391,0.194-0.58,0.304c-0.131,0.076-0.262,0.152-0.387,0.235
c-0.065,0.043-0.125,0.091-0.189,0.136c-0.127,0.09-0.252,0.181-0.372,0.278c-0.06,0.049-0.118,0.101-0.177,0.152
c-0.116,0.1-0.229,0.201-0.338,0.308c-0.059,0.057-0.115,0.116-0.171,0.175c-0.101,0.105-0.199,0.212-0.293,0.323
c-0.058,0.067-0.114,0.136-0.169,0.205c-0.085,0.107-0.166,0.216-0.245,0.327c-0.056,0.078-0.111,0.156-0.164,0.236
c-0.07,0.108-0.135,0.219-0.2,0.329c-0.051,0.088-0.104,0.174-0.152,0.264c-0.061,0.116-0.115,0.235-0.171,0.354
c-0.061,0.132-0.12,0.265-0.174,0.4c-0.062,0.156-0.122,0.312-0.173,0.472c-0.029,0.091-0.052,0.185-0.077,0.278
c-0.037,0.132-0.073,0.265-0.103,0.399c-0.02,0.091-0.035,0.183-0.052,0.275c-0.026,0.145-0.049,0.29-0.067,0.437
c-0.01,0.085-0.019,0.17-0.026,0.256c-0.014,0.162-0.021,0.324-0.025,0.487c-0.001,0.051-0.008,0.1-0.008,0.15v38.99
c0,4.142,3.358,7.5,7.5,7.5s7.5-3.358,7.5-7.5v-31.49h108.317L84.023,460.256c-0.008,0.026-0.01,0.053-0.018,0.079
c-0.107,0.357-0.19,0.721-0.243,1.088c-0.004,0.028-0.011,0.055-0.015,0.083c-0.048,0.359-0.062,0.721-0.058,1.083
c0.001,0.072,0,0.143,0.003,0.215c0.014,0.351,0.053,0.7,0.116,1.047c0.011,0.06,0.025,0.118,0.037,0.178
c0.148,0.715,0.403,1.412,0.763,2.07c0.028,0.051,0.054,0.101,0.083,0.151c0.178,0.307,0.378,0.604,0.603,0.89
c0.042,0.053,0.088,0.103,0.131,0.155c0.092,0.111,0.18,0.224,0.279,0.33c0.126,0.135,0.262,0.257,0.396,0.38
c0.041,0.038,0.078,0.078,0.12,0.115c0.285,0.252,0.587,0.475,0.899,0.676c0.025,0.016,0.045,0.037,0.07,0.053
c0.034,0.021,0.07,0.035,0.104,0.055c0.248,0.15,0.501,0.287,0.761,0.406c0.038,0.018,0.075,0.039,0.114,0.056
c0.294,0.128,0.593,0.236,0.898,0.326c0.069,0.02,0.139,0.035,0.209,0.053c0.237,0.062,0.477,0.113,0.718,0.151
c0.088,0.014,0.176,0.029,0.264,0.04c0.302,0.037,0.606,0.063,0.911,0.063c1.621,0,3.233-0.514,4.581-1.552
c0.191-0.147,0.376-0.304,0.555-0.471l213.663-199.963l53.151,169.539l-101.056-94.576c-3.025-2.83-7.771-2.673-10.601,0.351
s-2.673,7.771,0.351,10.601l121.862,114.047c1.428,1.336,3.271,2.024,5.127,2.024c1.377,0,2.761-0.378,3.989-1.15
c2.884-1.813,4.185-5.342,3.166-8.593l-88.602-282.622h108.317v31.49c0,4.142,3.358,7.5,7.5,7.5s7.5-3.358,7.5-7.5v-38.594
c0.007-0.132,0.02-0.263,0.02-0.397C420.691,169.892,420.658,169.658,420.635,169.421z M190.337,162.634v-39.211h89.307v39.211
H190.337z M294.643,54.211V18.891l82.112,35.321H294.643z M190.337,15h89.307v39.211h-89.307V15z M93.225,54.211l82.112-35.321
v35.321H93.225z M279.643,69.211v39.211h-89.307V69.211H279.643z M175.337,127.313v35.321H93.225L175.337,127.313z M160.012,268.013
l64.002,59.898l-117.152,109.64L160.012,268.013z M304.989,252.129l-69.999,65.51l-69.998-65.51l23.354-74.495h93.289
L304.989,252.129z M294.643,162.634v-35.321l82.112,35.322H294.644z"
    />
</svg>