<?xml version="1.0" encoding="iso-8859-1"?>
<!-- Generator: Adobe Illustrator 16.0.0, SVG Export Plug-In . SVG Version: 6.00 Build 0)  -->
<!DOCTYPE svg PUBLIC "-//W3C//DTD SVG 1.1//EN" "http://www.w3.org/Graphics/SVG/1.1/DTD/svg11.dtd">
<svg version="1.1" xmlns="http://www.w3.org/2000/svg" xmlns:xlink="http://www.w3.org/1999/xlink" x="0px" y="0px" width="361px"
	 height="361px" viewBox="0 0 361 361" style="enable-background:new 0 0 361 361;" xml:space="preserve">
<g id="fts_x5F_door">
	<path style="fill:none;stroke:#FFFFFF;stroke-width:10;stroke-miterlimit:10;" d="M232.836,280.912
		c0,3.406-2.713,6.168-6.059,6.168h-92.89c-3.346,0-6.058-2.762-6.058-6.168V80.816c0-3.406,2.712-6.167,6.058-6.167h92.89
		c3.346,0,6.059,2.761,6.059,6.167V280.912z"/>
	<g>
		<g>
			<path style="fill:#FFFFFF;" d="M129.83,185.667c3.333,0,6.667,0,10,0c6.449,0,6.449-10,0-10c-3.333,0-6.667,0-10,0
				C123.381,175.667,123.381,185.667,129.83,185.667L129.83,185.667z"/>
		</g>
	</g>
	<path style="fill:none;stroke:#FFFFFF;stroke-width:10;stroke-miterlimit:10;" d="M231.163,280c0-3.313-2.687-6-6-6H133.83
		c-3.313,0-6,2.687-6,6v0.667c0,3.313,2.687,6,6,6h91.333c3.313,0,6-2.687,6-6V280z"/>
</g>
<g id="Ebene_1">
</g>
</svg>
