<?xml version="1.0" encoding="utf-8"?>
<!-- Generator: Adobe Illustrator 15.1.0, SVG Export Plug-In . SVG Version: 6.00 Build 0)  -->
<!DOCTYPE svg PUBLIC "-//W3C//DTD SVG 1.1//EN" "http://www.w3.org/Graphics/SVG/1.1/DTD/svg11.dtd">
<svg version="1.1" xmlns="http://www.w3.org/2000/svg" xmlns:xlink="http://www.w3.org/1999/xlink" x="0px" y="0px" width="361px"
	 height="361px" viewBox="0 0 361 361" enable-background="new 0 0 361 361" xml:space="preserve">
<g id="Ebene_2" display="none">
	<rect display="inline" fill-rule="evenodd" clip-rule="evenodd" fill="#1D1D1B" width="361" height="361"/>
</g>
<g id="Ebene_1">
	<g id="fts_x5F_markise_x5F_100">
		<path fill-rule="evenodd" clip-rule="evenodd" style="fill:#FFFFFF;" d="M66.175,184.525c0,0.25,0,0.501,0,0.752
			c76.964,0,153.926,0,230.89,0c5.478-0.187,4.701,9.154-1.504,7.521c-75.709-1.755-154.679-0.251-231.642-0.752
			C59.317,191.347,60.235,182.999,66.175,184.525z"/>
		<path fill-rule="evenodd" clip-rule="evenodd" style="fill:#FFFFFF;" d="M66.175,184.525c76.712,0.501,155.433-1.003,230.89,0.752
			c-76.964,0-153.926,0-230.89,0C66.175,185.026,66.175,184.775,66.175,184.525z"/>
		<path fill-rule="evenodd" clip-rule="evenodd" style="fill:#FFFFFF;" d="M295.561,192.798c-76.963-0.501-155.933,1.003-231.642-0.752
			C140.881,192.547,219.852,191.043,295.561,192.798z"/>
		<path fill-rule="evenodd" clip-rule="evenodd" style="fill:#FFFFFF;" d="M70.688,198.814c69.443-1.253,144.148-1.253,213.592,0
			C213.082,198.814,141.885,198.814,70.688,198.814z"/>
		<path fill-rule="evenodd" clip-rule="evenodd" style="fill:#FFFFFF;" d="M284.279,198.814c2.905-0.147,5.542-0.026,7.521,0.752
			c0.555,10.207,3.031,28.51-2.256,35.349c-6.463,2.076-8.981-0.725-15.794-6.018c-11.75-5.897-16.416-6.23-29.331-3.76
			c-9.554,1.827-15.319,10.969-30.084,9.777c-12.82-1.035-21.302-12.011-39.86-9.777c-12.831,1.544-24.886,10.273-37.604,9.024
			c-10.427-1.023-20.054-10.946-31.587-11.281c-6.533-0.189-10.45,1.286-18.05,3.761c-6.546,3.962-11.948,9.605-18.802,9.025
			c-4.594-7.532-2.601-26.856-2.256-36.853C67.987,199.123,210.499,198.868,284.279,198.814z"/>
		<path fill-rule="evenodd" clip-rule="evenodd" style="fill:#FFFFFF;" d="M271.43,129.095c-2.541,0.661-5.146,0.874-7.779,0.857
			c5.361,12.937,11.281,25.316,16.116,38.78c-0.493,2.783-15.363,1.665-19.554,0.752c-0.861-2.131-8.861-26.698-13.455-40.538
			c-4.03-0.154-8.063-0.226-12.099-0.283c-0.442-0.006-0.886-0.004-1.328-0.01c2.877,9.702,11.138,41.425,10.336,41.583
			c-5.772-0.495-13.53,0.995-18.051-0.752c-2.144-13.914-4.457-27.657-7.265-40.907c-5.228,0.005-10.455,0.035-15.683,0.083
			c1.319,9.715,5.703,41.417,4.897,41.576h-18.05c-0.977-13.255-0.292-28.172-1.265-41.431c-1.667,0.019-3.335,0.037-5.002,0.055
			c-3.172,0.034-6.343,0.066-9.514,0.099c-0.023,14.281-0.247,40.327-1.517,41.277c-4.262,0-17.908,0.434-15.042,0
			c-1.713-13.372,0.004-26.968,0.143-41.086c-5.299,0.071-10.598,0.165-15.897,0.274c-2.022,14.577-5.304,40.44-5.304,40.812
			c-7.4,0.14-14.462-0.423-19.554-0.752c-0.464-1.587,7.615-25.942,11.82-39.773c-5.136,0.102-10.265,0.136-15.387,0.061
			l-11.475,40.464c-5.812,0.79-18.742,2.203-23.314-0.752h0.752c5.292-13.915,11.374-27.039,17.167-40.452
			c-2.567-0.201-5.134-0.461-7.699-0.759c-5.98,14.673-12.705,28.602-18.493,43.467c-0.168,0.583-0.021,1.483-0.752,1.504
			c-0.543,2.298,0.769,2.741,0.752,4.512c1.771-0.017,2.214,1.296,4.512,0.753C89,178.641,259,178.641,285.031,177.756
			c2.298,0.544,2.741-0.769,4.513-0.752C289.376,169.118,278.827,143.78,271.43,129.095z"/>
	</g>
</g>
</svg>
