<?xml version="1.0" encoding="utf-8"?>
<!-- Generator: Adobe Illustrator 15.1.0, SVG Export Plug-In . SVG Version: 6.00 Build 0)  -->
<!DOCTYPE svg PUBLIC "-//W3C//DTD SVG 1.1//EN" "http://www.w3.org/Graphics/SVG/1.1/DTD/svg11.dtd">
<svg version="1.1" xmlns="http://www.w3.org/2000/svg" xmlns:xlink="http://www.w3.org/1999/xlink" x="0px" y="0px" width="361px"
	 height="361px" viewBox="0 0 361 361" enable-background="new 0 0 361 361" xml:space="preserve">
<g id="Ebene_2" display="none">
	<rect display="inline" fill-rule="evenodd" clip-rule="evenodd" fill="#1D1D1B" width="361" height="361"/>
</g>
<g id="Ebene_1">
	<g id="fts_x5F_markise_x5F_100">
		<path fill-rule="evenodd" clip-rule="evenodd" style="fill:#FFFFFF;" d="M66.175,179.525c0,0.25,0,0.501,0,0.752
			c76.964,0,153.926,0,230.89,0c5.478-0.187,4.701,9.154-1.504,7.521c-75.709-1.755-154.679-0.251-231.642-0.752
			C59.317,186.347,60.235,177.999,66.175,179.525z"/>
		<path fill-rule="evenodd" clip-rule="evenodd" style="fill:#FFFFFF;" d="M66.175,179.525c76.712,0.501,155.433-1.003,230.89,0.752
			c-76.964,0-153.926,0-230.89,0C66.175,180.026,66.175,179.775,66.175,179.525z"/>
		<path fill-rule="evenodd" clip-rule="evenodd" style="fill:#FFFFFF;" d="M295.561,187.798c-76.963-0.501-155.933,1.003-231.642-0.752
			C140.881,187.547,219.852,186.043,295.561,187.798z"/>
		<path fill-rule="evenodd" clip-rule="evenodd" style="fill:#FFFFFF;" d="M70.688,193.814c69.443-1.253,144.148-1.253,213.592,0
			C213.082,193.814,141.885,193.814,70.688,193.814z"/>
		<path fill-rule="evenodd" clip-rule="evenodd" style="fill:#FFFFFF;" d="M284.279,193.814c2.905-0.147,5.542-0.026,7.521,0.752
			c0.555,10.207,3.031,28.51-2.256,35.349c-6.463,2.076-8.981-0.725-15.794-6.018c-11.75-5.897-16.416-6.23-29.331-3.76
			c-9.554,1.827-15.319,10.969-30.084,9.777c-12.82-1.035-21.302-12.011-39.86-9.777c-12.831,1.544-24.886,10.273-37.604,9.024
			c-10.427-1.023-20.054-10.946-31.587-11.281c-6.533-0.189-10.45,1.286-18.05,3.761c-6.546,3.962-11.948,9.605-18.802,9.025
			c-4.594-7.532-2.601-26.856-2.256-36.853C67.987,194.123,210.499,193.868,284.279,193.814z"/>
		<path fill-rule="evenodd" clip-rule="evenodd" style="fill:#FFFFFF;" d="M266.641,132c4.503,10.449,9.175,20.73,13.126,31.731
			c-0.493,2.783-15.363,1.665-19.554,0.752c-0.711-1.759-6.284-18.802-10.793-32.483h-13.748c3.559,13.102,8.632,33.11,7.995,33.235
			c-5.772-0.495-13.53,0.995-18.051-0.752c-1.694-10.998-3.523-21.861-5.593-32.483h-16.221c1.772,13.103,4.403,33.11,3.764,33.235
			h-18.05c-0.78-10.587-0.514-22.221-0.865-33.235h-14.948c-0.096,14.302-0.428,32.445-1.484,33.235c-4.262,0-17.908,0.434-15.042,0
			c-1.394-10.876-0.518-21.902-0.068-33.235h-16.717c-1.943,14.509-4.273,32.922-4.273,33.235c-7.4,0.14-14.462-0.423-19.554-0.752
			c-0.39-1.334,5.254-18.749,9.562-32.483h-15.178l-9.425,33.235c-5.812,0.79-18.742,2.203-23.314-0.752h0.752
			c4.24-11.15,8.986-21.793,13.687-32.483h-7.891c-4.968,11.553-10.191,22.85-14.821,34.74c-0.168,0.583-0.021,1.483-0.752,1.504
			c-0.543,2.298,0.769,2.741,0.752,4.512c1.771-0.017,2.214,1.296,4.512,0.753C89,173.641,259,173.641,285.031,172.756
			c2.298,0.544,2.741-0.769,4.513-0.752c-0.141-6.602-7.557-25.43-14.308-40.004H266.641z"/>
	</g>
</g>
</svg>
