<?xml version="1.0" encoding="iso-8859-1"?>
<!-- Generator: Adobe Illustrator 16.0.0, SVG Export Plug-In . SVG Version: 6.00 Build 0)  -->
<!DOCTYPE svg PUBLIC "-//W3C//DTD SVG 1.1//EN" "http://www.w3.org/Graphics/SVG/1.1/DTD/svg11.dtd">
<svg version="1.1" xmlns="http://www.w3.org/2000/svg" xmlns:xlink="http://www.w3.org/1999/xlink" x="0px" y="0px" width="361px"
	 height="361px" viewBox="0 0 361 361" style="enable-background:new 0 0 361 361;" xml:space="preserve">
<g id="fts_x5F_window_x5F_1w_x5F_open">
	<path style="fill:none;stroke:#FFFFFF;stroke-width:10;stroke-miterlimit:10;" d="M267.826,263.303c0,3.91-3.156,7.082-7.05,7.082
		l-157.885,0.021c-3.894,0-7.05-3.171-7.05-7.083v-157.5c0-3.911,3.156-7.083,7.05-7.083l157.885-0.021
		c3.894,0,7.05,3.172,7.05,7.083V263.303z"/>
	<g>
		<g>
			<path style="fill:#FFFFFF;" d="M228.5,205.584c2.213,0,4.426,0,6.639,0c2.726,0,5-2.274,5-5s-2.274-5-5-5
				c-2.213,0-4.426,0-6.639,0c-2.726,0-5,2.274-5,5S225.774,205.584,228.5,205.584L228.5,205.584z"/>
		</g>
	</g>
	<path style="fill:none;stroke:#FFFFFF;stroke-width:10;stroke-miterlimit:10;" d="M267.826,103.208c0,2.485-2.711,4.5-6.053,4.5
		l-159.88,0.021c-3.342,0-6.052-2.015-6.052-4.5v-9c0-2.485,2.71-4.5,6.052-4.5l159.88-0.021c3.342,0,6.053,2.015,6.053,4.5V103.208
		z"/>
	<path style="display:none;fill:none;stroke:#FFFFFF;stroke-width:10;stroke-miterlimit:10;" d="M264.732,265.178
		c0.584,2.887-1.629,5.228-4.942,5.228H102.457c-3.313,0-6.474-2.341-7.058-5.228L74.24,130.633
		c-0.584-2.887,1.628-5.228,4.942-5.228h157.333c3.313,0,6.474,2.34,7.058,5.228L264.732,265.178z"/>
	<g>
		<g>
			<path style="fill:#FFFFFF;" d="M232.826,280.905c-0.339,3.356-18.813-0.782-20.919-1.06c-15.024-1.98-30.049-3.96-45.073-5.94
				c-15.025-1.98-30.049-3.96-45.074-5.94c-4.835-0.638-9.671-1.275-14.507-1.912c-1.456-0.192-6.201-0.055-6.412-2.147
				c-0.621-6.157,0-12.699,0-18.878c0-14.5,0-29,0-43.5c0-27.359,0-54.718,0-82.076c0-1.71,0-3.42,0-5.13
				c0-2.551,5.184-1.015,6.412-0.853c11.813,1.557,23.625,3.114,35.438,4.67c27.908,3.678,55.816,7.356,83.723,11.035
				c1.457,0.192,6.201,0.055,6.412,2.147c0.169,1.673,0,3.451,0,5.13c0,11.217,0,22.434,0,33.651c0,30.642,0,61.283,0,91.925
				C232.826,268.32,232.826,274.612,232.826,280.905c0,6.448,10,6.448,10,0c0-48.151,0-96.303,0-144.454c0-1.71,0-3.42,0-5.13
				c0-7.619-6.137-10.793-12.673-11.655c-9.511-1.253-19.021-2.507-28.531-3.76c-29.47-3.884-58.94-7.768-88.411-11.652
				c-3.299-0.435-6.598-0.87-9.897-1.304c-6.555-0.864-12.473,4.9-12.473,11.38c0,6.521,0,13.042,0,19.563
				c0,30.705,0,61.41,0,92.115c0,11.052,0,22.104,0,33.154c0,2.023-0.071,4.04,0.132,6.053c0.717,7.111,6.606,9.563,12.759,10.374
				c25.609,3.375,51.218,6.75,76.827,10.125c13.299,1.753,26.598,3.506,39.896,5.259c3.232,0.426,6.465,0.852,9.697,1.278
				c7.063,0.931,12.011-4.778,12.673-11.346C243.473,274.49,233.467,274.553,232.826,280.905z"/>
		</g>
	</g>
</g>
<g id="Ebene_1">
</g>
</svg>
