<?xml version="1.0" encoding="iso-8859-1"?>
<!-- Generator: Adobe Illustrator 16.0.0, SVG Export Plug-In . SVG Version: 6.00 Build 0)  -->
<!DOCTYPE svg PUBLIC "-//W3C//DTD SVG 1.1//EN" "http://www.w3.org/Graphics/SVG/1.1/DTD/svg11.dtd">
<svg version="1.1" xmlns="http://www.w3.org/2000/svg" xmlns:xlink="http://www.w3.org/1999/xlink" x="0px" y="0px" width="361px"
	 height="361px" viewBox="0 0 361 361" style="enable-background:new 0 0 361 361;" xml:space="preserve">
<g id="fts_x5F_window_x5F_roof_x5F_open_x5F_2">
	<g id="Fenster_gerade_2_" style="display:none;">
		<path style="display:inline;fill:none;stroke:#FFFFFF;stroke-width:10;stroke-miterlimit:10;" d="M247.826,264.303
			c0,3.91-3.156,7.082-7.05,7.082l-117.885,0.021c-3.894,0-7.05-3.171-7.05-7.083v-137.5c0-3.911,3.156-7.083,7.05-7.083
			l117.885-0.021c3.894,0,7.05,3.172,7.05,7.083V264.303z"/>
		<g style="display:inline;">
			<g>
				<path style="fill:#FFFFFF;" d="M175.833,260.681c0,2.213,0,4.427,0,6.64c0,2.726,2.274,5,5,5s5-2.274,5-5
					c0-2.213,0-4.427,0-6.64c0-2.726-2.274-5-5-5S175.833,257.955,175.833,260.681L175.833,260.681z"/>
			</g>
		</g>
		<path style="display:inline;fill:none;stroke:#FFFFFF;stroke-width:10;stroke-miterlimit:10;" d="M247.826,124.208
			c0,2.485-2.711,4.5-6.053,4.5l-119.88,0.021c-3.342,0-6.052-2.015-6.052-4.5v-9c0-2.485,2.71-4.5,6.052-4.5l119.88-0.021
			c3.342,0,6.053,2.015,6.053,4.5V124.208z"/>
		<path style="display:inline;fill:none;stroke:#FFFFFF;stroke-width:10;stroke-miterlimit:10;" d="M261.008,277.855
			c0,4.685-3.782,8.484-8.446,8.484l-141.235,0.025c-4.665,0-8.446-3.8-8.446-8.486V103.144c0-4.685,3.782-8.486,8.446-8.486
			l141.235-0.024c4.664,0,8.446,3.801,8.446,8.486V277.855z"/>
	</g>
	<g>
		<path style="fill:none;stroke:#FFFFFF;stroke-width:10;stroke-miterlimit:10;" d="M181.148,212.418
			c-3.23,1.883-8.786,3.408-12.406,3.408l-91.04,0.01c-3.621,0-3.935-1.525-0.704-3.408l113.591-66.168
			c3.23-1.882,8.787-3.409,12.407-3.409l61.312-0.008l-13.529,29.015L181.148,212.418z"/>
		<g>
			<g>
				<path style="fill:#FFFFFF;" d="M128.62,206.358c-1.829,1.064-3.657,2.129-5.485,3.193c-2.352,1.369-3.169,4.493-1.794,6.841
					c1.378,2.353,4.485,3.166,6.841,1.794c1.829-1.064,3.657-2.129,5.485-3.193c2.352-1.369,3.169-4.493,1.794-6.841
					C134.083,205.8,130.976,204.986,128.62,206.358L128.62,206.358z"/>
			</g>
		</g>
	</g>
	<g>
		<g>
			<path style="fill:none;stroke:#FFFFFF;stroke-width:10;stroke-miterlimit:10;" d="M207.642,264.366
				c-2.093,4.487-7.409,8.124-11.876,8.124l-116.093,0.023c-4.467,0-6.391-3.639-4.299-8.125l78.017-167.31
				c2.092-4.486,7.411-8.125,11.876-8.125l116.094-0.023c4.466,0,6.39,3.639,4.299,8.125L207.642,264.366z"/>
			<polygon style="fill:#FFFFFF;" points="277.912,104.284 150.245,104.284 159.026,87.015 286.693,87.015 			"/>
		</g>
		<rect x="76.11" y="262.81" style="fill:#FFFFFF;" width="127.618" height="6.44"/>
	</g>
</g>
<g id="Ebene_1">
</g>
</svg>
