<?xml version="1.0" encoding="utf-8"?>
<!-- Generator: Adobe Illustrator 15.1.0, SVG Export Plug-In . SVG Version: 6.00 Build 0)  -->
<!DOCTYPE svg PUBLIC "-//W3C//DTD SVG 1.1//EN" "http://www.w3.org/Graphics/SVG/1.1/DTD/svg11.dtd">
<svg version="1.1" id="Ebene_1" xmlns="http://www.w3.org/2000/svg" xmlns:xlink="http://www.w3.org/1999/xlink" x="0px" y="0px"
	 width="361px" height="361px" viewBox="0 0 361 361" enable-background="new 0 0 361 361" xml:space="preserve">
<g id="fts_x5F_markise_x5F_100">
	<path fill-rule="evenodd" clip-rule="evenodd" style="fill:#FFFFFF;" d="M66.175,189.525c0,0.25,0,0.501,0,0.752
		c76.964,0,153.926,0,230.89,0c5.478-0.187,4.701,9.154-1.504,7.521c-75.709-1.755-154.679-0.251-231.642-0.752
		C59.317,196.347,60.235,187.999,66.175,189.525z"/>
	<path fill-rule="evenodd" clip-rule="evenodd" style="fill:#FFFFFF;" d="M66.175,189.525c76.712,0.501,155.433-1.003,230.89,0.752
		c-76.964,0-153.926,0-230.89,0C66.175,190.026,66.175,189.775,66.175,189.525z"/>
	<path fill-rule="evenodd" clip-rule="evenodd" style="fill:#FFFFFF;" d="M295.561,197.798c-76.963-0.501-155.933,1.003-231.642-0.752
		C140.881,197.547,219.852,196.043,295.561,197.798z"/>
	<path fill-rule="evenodd" clip-rule="evenodd" style="fill:#FFFFFF;" d="M70.688,203.814c69.443-1.253,144.148-1.253,213.592,0
		C213.082,203.814,141.885,203.814,70.688,203.814z"/>
	<path fill-rule="evenodd" clip-rule="evenodd" style="fill:#FFFFFF;" d="M284.279,203.814c2.905-0.147,5.542-0.026,7.521,0.752
		c0.555,10.207,3.031,28.51-2.256,35.349c-6.463,2.076-8.981-0.725-15.794-6.018c-11.75-5.897-16.416-6.23-29.331-3.76
		c-9.554,1.827-15.319,10.969-30.084,9.777c-12.82-1.035-21.302-12.011-39.86-9.777c-12.831,1.544-24.886,10.273-37.604,9.024
		c-10.427-1.023-20.054-10.946-31.587-11.281c-6.533-0.189-10.45,1.286-18.05,3.761c-6.546,3.962-11.948,9.605-18.802,9.025
		c-4.594-7.532-2.601-26.856-2.256-36.853C67.987,204.123,210.499,203.868,284.279,203.814z"/>
	<path fill-rule="evenodd" clip-rule="evenodd" style="fill:#FFFFFF;" d="M115.813,124.846c4.272,0.491,7.031-0.533,15.031,0.717
		c-0.188,3.796-14.901,46.795-14.279,48.921c5.092,0.329,12.154,0.892,19.554,0.752c0-0.501,5.975-47.423,6.769-50.39
		c4.645,0.027,10.888-0.86,14.29,0.752c0.839,17.213-2.057,33.586,0,49.638c-2.866,0.434,10.78,0,15.042,0
		c1.721-1.287,1.521-48.618,1.504-50.39c4.513,0,9.025,0,13.538,0c2.374,15.174,1.052,34.045,2.256,50.39c4.262,0,16.295,0,18.05,0
		c0.946-0.186-5.265-43.872-5.265-44.373c0-0.752,0-1.504,0-2.256c-0.095-1.349,0.921-1.586,0.752-3.009
		c3.384-1.146,10.154-1.146,13.538,0c3.636,15.668,6.447,32.16,9.024,48.886c4.521,1.747,12.278,0.257,18.051,0.752
		c0.945-0.186-10.695-44.207-11.281-44.373c-2.386-8.862,5.386-6.293,11.281-6.017c1.408,3.605,15.391,46.781,16.546,49.638
		c4.19,0.913,19.061,2.031,19.554-0.752c-5.896-16.417-13.418-31.206-19.554-47.381c0-0.501,0-1.003,0-1.504
		c2.005,0,4.011,0,6.017,0c5.828,8.269,23.099,47.05,23.314,57.158c-1.771-0.017-2.215,1.296-4.513,0.752
		C259,183.641,89,183.641,74.448,183.509c-2.298,0.543-2.741-0.77-4.512-0.753c0.017-1.771-1.295-2.214-0.752-4.512
		c0.731-0.021,0.584-0.92,0.752-1.504c6.886-17.683,15.109-34.027,21.81-51.894c2.758,0,5.516,0,8.273,0
		c-6.875,16.691-14.566,32.564-21.058,49.638c-0.25,0-0.501,0-0.752,0c4.572,2.955,17.502,1.542,23.314,0.752"/>
</g>
</svg>
