<?xml version="1.0" encoding="iso-8859-1"?>
<!-- Generator: Adobe Illustrator 16.0.0, SVG Export Plug-In . SVG Version: 6.00 Build 0)  -->
<!DOCTYPE svg PUBLIC "-//W3C//DTD SVG 1.1//EN" "http://www.w3.org/Graphics/SVG/1.1/DTD/svg11.dtd">
<svg version="1.1" xmlns="http://www.w3.org/2000/svg" xmlns:xlink="http://www.w3.org/1999/xlink" x="0px" y="0px" width="361px"
	 height="361px" viewBox="0 0 361 361" style="enable-background:new 0 0 361 361;" xml:space="preserve">
<g id="fts_x5F_shutter_x5F_30">
	<path style="fill:none;stroke:#FFFFFF;stroke-width:10;stroke-miterlimit:10;" d="M279.5,248.734c0,3.645-2.955,6.6-6.6,6.6H88.1
		c-3.646,0-6.6-2.955-6.6-6.6V129.934c0-3.645,2.955-6.6,6.6-6.6h184.8c3.645,0,6.6,2.956,6.6,6.6V248.734z"/>
	<g>
		<g>
			<path style="fill:#FFFFFF;" d="M174.945,194.178c3.935,0,7.87,0,11.805,0c6.448,0,6.448-10,0-10c-3.935,0-7.87,0-11.805,0
				C168.497,184.178,168.497,194.178,174.945,194.178L174.945,194.178z"/>
		</g>
	</g>
	
		<line style="fill:none;stroke:#FFFFFF;stroke-width:10;stroke-miterlimit:10;" x1="180.719" y1="123.645" x2="180.719" y2="252.064"/>
	<path style="fill:#FFFFFF;stroke:#FFFFFF;stroke-width:10;stroke-miterlimit:10;" d="M286.666,124.713
		c0,0.509-3.164,0.922-7.066,0.922H81.733c-3.903,0-7.066-0.414-7.066-0.922V108.12c0-0.509,3.164-0.922,7.066-0.922H279.6
		c3.902,0,7.066,0.414,7.066,0.922V124.713z"/>
	<g>
		<g>
			<path style="fill:#FFFFFF;" d="M75,143.333c48.659,0,97.318,0.001,145.976,0.002c21.953,0,43.905,0,65.857,0.001
				c6.448,0,6.448-10,0-10c-48.659,0-97.317-0.001-145.977-0.002c-21.952,0-43.905,0-65.857-0.001
				C68.551,133.333,68.551,143.333,75,143.333L75,143.333z"/>
		</g>
	</g>
	<g>
		<g>
			<path style="fill:#FFFFFF;" d="M75,156.333c48.659,0,97.318,0.001,145.976,0.002c21.953,0,43.905,0,65.857,0.001
				c6.448,0,6.448-10,0-10c-48.659,0-97.317-0.001-145.977-0.002c-21.952,0-43.905,0-65.857-0.001
				C68.551,146.333,68.551,156.333,75,156.333L75,156.333z"/>
		</g>
	</g>
	<g>
		<g>
			<path style="fill:#FFFFFF;" d="M75,169.333c48.659,0,97.318,0.001,145.976,0.002c21.953,0,43.905,0,65.857,0.001
				c6.448,0,6.448-10,0-10c-48.659,0-97.317-0.001-145.977-0.002c-21.952,0-43.905,0-65.857-0.001
				C68.551,159.333,68.551,169.333,75,169.333L75,169.333z"/>
		</g>
	</g>
</g>
<g id="Ebene_1">
</g>
</svg>
