<?xml version="1.0" encoding="utf-8"?>
<!-- Generator: Adobe Illustrator 15.1.0, SVG Export Plug-In . SVG Version: 6.00 Build 0)  -->
<!DOCTYPE svg PUBLIC "-//W3C//DTD SVG 1.1//EN" "http://www.w3.org/Graphics/SVG/1.1/DTD/svg11.dtd">
<svg version="1.1" id="Ebene_1" xmlns="http://www.w3.org/2000/svg" xmlns:xlink="http://www.w3.org/1999/xlink" x="0px" y="0px"
	 width="361px" height="361px" viewBox="0 0 361 361" enable-background="new 0 0 361 361" xml:space="preserve">
<g id="fts_x5F_markise_x5F_100">
	<path fill-rule="evenodd" clip-rule="evenodd" style="fill:#FFFFFF;" d="M66.175,162.525c0,0.25,0,0.501,0,0.752
		c76.964,0,153.926,0,230.89,0c5.478-0.187,4.701,9.154-1.504,7.521c-75.709-1.755-154.679-0.251-231.642-0.752
		C59.317,169.347,60.235,160.999,66.175,162.525z"/>
	<path fill-rule="evenodd" clip-rule="evenodd" style="fill:#FFFFFF;" d="M66.175,162.525c76.712,0.501,155.433-1.003,230.89,0.752
		c-76.964,0-153.926,0-230.89,0C66.175,163.026,66.175,162.775,66.175,162.525z"/>
	<path fill-rule="evenodd" clip-rule="evenodd" style="fill:#FFFFFF;" d="M295.561,170.798c-76.963-0.501-155.933,1.003-231.642-0.752
		C140.881,170.547,219.852,169.043,295.561,170.798z"/>
	<path fill-rule="evenodd" clip-rule="evenodd" style="fill:#FFFFFF;" d="M70.688,176.814c69.443-1.253,144.148-1.253,213.592,0
		C213.082,176.814,141.885,176.814,70.688,176.814z"/>
	<path fill-rule="evenodd" clip-rule="evenodd" style="fill:#FFFFFF;" d="M284.279,176.814c2.905-0.147,5.542-0.026,7.521,0.752
		c0.555,10.207,3.031,28.51-2.256,35.349c-6.463,2.076-8.981-0.725-15.794-6.018c-11.75-5.897-16.416-6.23-29.331-3.76
		c-9.554,1.827-15.319,10.969-30.084,9.777c-12.82-1.035-21.302-12.011-39.86-9.777c-12.831,1.544-24.886,10.273-37.604,9.024
		c-10.427-1.023-20.054-10.946-31.587-11.281c-6.533-0.189-10.45,1.286-18.05,3.761c-6.546,3.962-11.948,9.605-18.802,9.025
		c-4.594-7.532-2.601-26.856-2.256-36.853C67.987,177.123,210.499,176.868,284.279,176.814z"/>
	<path fill-rule="evenodd" clip-rule="evenodd" style="fill:#FFFFFF;" d="M70.032,149.5c-0.032,0.08-0.065,0.159-0.097,0.24
		c-0.168,0.583-0.021,1.483-0.752,1.504c-0.543,2.298,0.769,2.741,0.752,4.512c1.771-0.017,2.214,1.296,4.512,0.753
		C89,156.641,259,156.641,285.031,155.756c2.298,0.544,2.741-0.769,4.513-0.752c-0.029-1.36-0.373-3.249-0.952-5.504H70.032z"/>
</g>
</svg>
