<?xml version="1.0" encoding="iso-8859-1"?>
<!-- Generator: Adobe Illustrator 16.0.0, SVG Export Plug-In . SVG Version: 6.00 Build 0)  -->
<!DOCTYPE svg PUBLIC "-//W3C//DTD SVG 1.1//EN" "http://www.w3.org/Graphics/SVG/1.1/DTD/svg11.dtd">
<svg version="1.1" xmlns="http://www.w3.org/2000/svg" xmlns:xlink="http://www.w3.org/1999/xlink" x="0px" y="0px" width="361px"
	 height="361px" viewBox="0 0 361 361" style="enable-background:new 0 0 361 361;" xml:space="preserve">
<g id="fts_x5F_window_x5F_1w_x5F_tilt">
	<path style="fill:none;stroke:#FFFFFF;stroke-width:10;stroke-miterlimit:10;" d="M267.826,263.303c0,3.91-3.156,7.082-7.05,7.082
		l-157.885,0.021c-3.894,0-7.05-3.171-7.05-7.083v-157.5c0-3.911,3.156-7.083,7.05-7.083l157.885-0.021
		c3.894,0,7.05,3.172,7.05,7.083V263.303z"/>
	<path style="fill:none;stroke:#FFFFFF;stroke-width:10;stroke-miterlimit:10;" d="M267.826,103.208c0,2.485-2.711,4.5-6.053,4.5
		l-159.88,0.021c-3.342,0-6.052-2.015-6.052-4.5v-9c0-2.485,2.71-4.5,6.052-4.5l159.88-0.021c3.342,0,6.053,2.015,6.053,4.5V103.208
		z"/>
	<path style="fill:none;stroke:#FFFFFF;stroke-width:10;stroke-miterlimit:10;" d="M265.732,265.178
		c0.584,2.887-1.629,5.228-4.942,5.228H103.457c-3.313,0-6.474-2.341-7.058-5.228L75.24,130.633
		c-0.584-2.887,1.628-5.228,4.942-5.228h157.333c3.313,0,6.474,2.34,7.058,5.228L265.732,265.178z"/>
	<g>
		<g>
			<path style="fill:#FFFFFF;" d="M247.194,199.667c2.213,0,4.426,0,6.639,0c2.726,0,5-2.274,5-5s-2.274-5-5-5
				c-2.213,0-4.426,0-6.639,0c-2.726,0-5,2.274-5,5S244.469,199.667,247.194,199.667L247.194,199.667z"/>
		</g>
	</g>
</g>
<g id="Ebene_1">
</g>
</svg>
