<?xml version="1.0" encoding="utf-8"?>
<!-- Generator: Adobe Illustrator 15.1.0, SVG Export Plug-In . SVG Version: 6.00 Build 0)  -->
<!DOCTYPE svg PUBLIC "-//W3C//DTD SVG 1.1//EN" "http://www.w3.org/Graphics/SVG/1.1/DTD/svg11.dtd">
<svg version="1.1" xmlns="http://www.w3.org/2000/svg" xmlns:xlink="http://www.w3.org/1999/xlink" x="0px" y="0px" width="361px"
	 height="361px" viewBox="0 0 361 361" enable-background="new 0 0 361 361" xml:space="preserve">
<g id="Ebene_2" display="none">
	<rect display="inline" fill-rule="evenodd" clip-rule="evenodd" fill="#1D1D1B" width="361" height="361"/>
</g>
<g id="Ebene_1">
	<g id="fts_x5F_markise_x5F_100">
		<path fill-rule="evenodd" clip-rule="evenodd" style="fill:#FFFFFF;" d="M66.175,172.525c0,0.25,0,0.501,0,0.752
			c76.964,0,153.926,0,230.89,0c5.478-0.187,4.701,9.154-1.504,7.521c-75.709-1.755-154.679-0.251-231.642-0.752
			C59.317,179.347,60.235,170.999,66.175,172.525z"/>
		<path fill-rule="evenodd" clip-rule="evenodd" style="fill:#FFFFFF;" d="M66.175,172.525c76.712,0.501,155.433-1.003,230.89,0.752
			c-76.964,0-153.926,0-230.89,0C66.175,173.026,66.175,172.775,66.175,172.525z"/>
		<path fill-rule="evenodd" clip-rule="evenodd" style="fill:#FFFFFF;" d="M295.561,180.798c-76.963-0.501-155.933,1.003-231.642-0.752
			C140.881,180.547,219.852,179.043,295.561,180.798z"/>
		<path fill-rule="evenodd" clip-rule="evenodd" style="fill:#FFFFFF;" d="M70.688,186.814c69.443-1.253,144.148-1.253,213.592,0
			C213.082,186.814,141.885,186.814,70.688,186.814z"/>
		<path fill-rule="evenodd" clip-rule="evenodd" style="fill:#FFFFFF;" d="M284.279,186.814c2.905-0.147,5.542-0.026,7.521,0.752
			c0.555,10.207,3.031,28.51-2.256,35.349c-6.463,2.076-8.981-0.725-15.794-6.018c-11.75-5.897-16.416-6.23-29.331-3.76
			c-9.554,1.827-15.319,10.969-30.084,9.777c-12.82-1.035-21.302-12.011-39.86-9.777c-12.831,1.544-24.886,10.273-37.604,9.024
			c-10.427-1.023-20.054-10.946-31.587-11.281c-6.533-0.189-10.45,1.286-18.05,3.761c-6.546,3.962-11.948,9.605-18.802,9.025
			c-4.594-7.532-2.601-26.856-2.256-36.853C67.987,187.123,210.499,186.868,284.279,186.814z"/>
		<path fill-rule="evenodd" clip-rule="evenodd" style="fill:#FFFFFF;" d="M273.763,141.5c2.099,4.979,4.134,10.023,6.004,15.231
			c-0.493,2.783-15.363,1.665-19.554,0.752c-0.433-1.07-2.666-7.8-5.362-15.983h-14.852c2.268,8.961,4.063,16.658,3.668,16.735
			c-5.772-0.495-13.53,0.995-18.051-0.752c-0.828-5.376-1.716-10.692-2.628-15.983h-17.015c1.132,8.96,1.988,16.658,1.593,16.735
			h-18.05c-0.396-5.381-0.522-11.033-0.598-16.735h-15.448c-0.213,8.916-0.59,16.24-1.252,16.735c-4.262,0-17.908,0.434-15.042,0
			c-0.709-5.531-0.824-11.104-0.712-16.735h-18.239c-1.176,9.105-2.107,16.537-2.107,16.735c-7.4,0.14-14.462-0.423-19.554-0.752
			c-0.239-0.816,1.783-7.656,4.373-15.983h-14.669l-4.746,16.735c-5.812,0.79-18.742,2.203-23.314-0.752h0.752
			c2.064-5.428,4.251-10.733,6.493-15.983h-7.912c-2.616,6-5.191,12.039-7.605,18.24c-0.168,0.583-0.021,1.483-0.752,1.504
			c-0.543,2.298,0.769,2.741,0.752,4.512c1.771-0.017,2.214,1.296,4.512,0.753C89,166.641,259,166.641,285.031,165.756
			c2.298,0.544,2.741-0.769,4.513-0.752c-0.09-4.243-3.188-13.536-7.182-23.504H273.763z"/>
	</g>
</g>
</svg>
