<?xml version="1.0" encoding="iso-8859-1"?>
<!-- Generator: Adobe Illustrator 16.0.0, SVG Export Plug-In . SVG Version: 6.00 Build 0)  -->
<!DOCTYPE svg PUBLIC "-//W3C//DTD SVG 1.1//EN" "http://www.w3.org/Graphics/SVG/1.1/DTD/svg11.dtd">
<svg version="1.1" xmlns="http://www.w3.org/2000/svg" xmlns:xlink="http://www.w3.org/1999/xlink" x="0px" y="0px" width="361px"
	 height="361px" viewBox="0 0 361 361" style="enable-background:new 0 0 361 361;" xml:space="preserve">
<g id="fts_x5F_garage_x5F_door_x5F_10">
	<g style="display:none;">
		<g style="display:inline;">
			<path style="fill:#FFFFFF;" d="M138.833,260.167c0,3.313-2.687,6-6,6h-11.5c-3.313,0-6-2.687-6-6v-11c0-3.313,2.687-6,6-6h11.5
				c3.313,0,6,2.687,6,6V260.167z"/>
			<path style="fill:#FFFFFF;" d="M246.833,260.167c0,3.313-2.687,6-6,6h-11.5c-3.313,0-6-2.687-6-6v-11c0-3.313,2.687-6,6-6h11.5
				c3.313,0,6,2.687,6,6V260.167z"/>
			<path style="fill:#FFFFFF;" d="M232.909,215.15h-104.26c-5.985,0-10.674-6.011-10.674-13.684v-0.631l4.752-18.545
				c0.463-7.055,7.605-12.961,13.487-12.961h89.128c5.882,0,13.024,5.906,13.487,12.961l4.753,18.545v0.631
				C243.583,209.14,238.895,215.15,232.909,215.15z M129.028,205.15h103.503c0.34-0.376,0.924-1.436,1.033-3.123l-4.71-18.383
				v-0.631c0-1.572-2.493-3.546-3.595-3.688l-89.045,0.003c-1.018,0.139-3.511,2.113-3.511,3.684v0.631l-4.71,18.383
				C128.103,203.715,128.688,204.774,129.028,205.15z"/>
			<path style="fill:#FFFFFF;" d="M251.166,242.861c0,2.93-2.779,5.306-6.205,5.306H116.705c-3.427,0-6.206-2.376-6.206-5.306
				v-27.709c0-2.93,2.779-5.306,6.206-5.306h128.256c3.426,0,6.205,2.376,6.205,5.306V242.861z M143.583,221.405
				c0-2.597-2.687-4.702-6-4.702h-17.25c-3.313,0-6,2.105-6,4.702v4.897c0,2.596,2.687,4.701,6,4.701h17.25c3.313,0,6-2.105,6-4.701
				V221.405z M247.083,221.405c0-2.597-2.687-4.702-6-4.702h-17.25c-3.313,0-6,2.105-6,4.702v4.897c0,2.596,2.687,4.701,6,4.701
				h17.25c3.313,0,6-2.105,6-4.701V221.405z M206.833,225.561c0-5.05-2.687-9.144-6-9.144h-40.5c-3.313,0-6,4.094-6,9.144v5.713
				c0,5.05,2.687,9.144,6,9.144h40.5c3.313,0,6-4.094,6-9.144V225.561z"/>
		</g>
		<rect x="147.583" y="219.167" style="display:inline;fill:#FFFFFF;" width="66" height="10"/>
		<rect x="148.583" y="232.167" style="display:inline;fill:#FFFFFF;" width="66" height="10"/>
	</g>
	<g>
		<g>
			<g>
				<path style="fill:#FFFFFF;" d="M80.833,130.417c0,45.143,0,90.286,0,135.429c0,0.052,0,0.103,0,0.154c0,6.448,10,6.448,10,0
					c0-45.143,0-90.286,0-135.429c0-0.051,0-0.103,0-0.154C90.833,123.968,80.833,123.968,80.833,130.417L80.833,130.417z"/>
			</g>
		</g>
		<g>
			<g>
				<path style="fill:#FFFFFF;" d="M270.833,130.417c0,45.143,0,90.286,0,135.429c0,0.052,0,0.103,0,0.154c0,6.448,10,6.448,10,0
					c0-45.143,0-90.286,0-135.429c0-0.051,0-0.103,0-0.154C280.833,123.968,270.833,123.968,270.833,130.417L270.833,130.417z"/>
			</g>
		</g>
		<path style="fill:none;stroke:#FFFFFF;stroke-width:10;" d="M286.833,117.588c0,3.172-2.572,5.745-5.745,5.745H81.287
			c-3.173,0-5.745-2.573-5.745-5.745v-9.575c0-3.173,2.572-5.745,5.745-5.745h199.801c3.173,0,5.745,2.572,5.745,5.745V117.588z"/>
	</g>
	<g>
		<g>
			<path style="fill:#FFFFFF;" d="M272.459,131.741c-0.113,0.56,0.604,0.431-0.631,0.431c-1.073,0-2.146,0-3.22,0
				c-3.865,0-7.73,0-11.596,0c-12.936,0-25.87,0-38.806,0c-31.541,0-63.083,0-94.624,0c-9.949,0-19.897,0-29.846,0
				c-1.625,0-3.25,0-4.875,0c0.854,0,0.755-4.667,0.036-4.667c0.569,0,1.138,0,1.707,0c22.669,0,45.338,0,68.008,0
				c26.49,0,52.981,0,79.472,0c8.894,0,17.786,0,26.68,0c2.235,0,4.472,0,6.708,0c0.433,0,0.865,0,1.298,0
				c-0.623,0-0.436-0.319-0.436,0.969c0,1.399,0,2.798,0,4.197c0,4.514,7,4.514,7,0c0-5.078,0.355-12.167-6.755-12.167
				c-2.048,0-4.096,0-6.143,0c-10.534,0-21.068,0-31.602,0c-31.673,0-63.346,0-95.019,0c-12.482,0-24.964,0-37.445,0
				c-4.82,0-13.128-1.541-17.425,1.356c-5.375,3.625-3.51,17.31,3.888,17.31c1.409,0,2.817,0,4.226,0c9.646,0,19.292,0,28.937,0
				c50.27,0,100.539,0,150.81,0c3.351,0,5.772-2.448,6.403-5.569C280.099,129.195,273.353,127.318,272.459,131.741z"/>
		</g>
	</g>
</g>
<g id="Ebene_1">
</g>
</svg>
