<?xml version="1.0" encoding="iso-8859-1"?>
<!-- Generator: Adobe Illustrator 16.0.0, SVG Export Plug-In . SVG Version: 6.00 Build 0)  -->
<!DOCTYPE svg PUBLIC "-//W3C//DTD SVG 1.1//EN" "http://www.w3.org/Graphics/SVG/1.1/DTD/svg11.dtd">
<svg version="1.1" xmlns="http://www.w3.org/2000/svg" xmlns:xlink="http://www.w3.org/1999/xlink" x="0px" y="0px" width="361px"
	 height="361px" viewBox="0 0 361 361" style="enable-background:new 0 0 361 361;" xml:space="preserve">
<g id="fts_x5F_door_x5F_open">
	<path style="fill:none;stroke:#FFFFFF;stroke-width:10;stroke-miterlimit:10;" d="M238.607,265.46c0,3.147-2.506,6.14-5.598,6.685
		l-85.813,15.131c-3.091,0.545-5.596-1.563-5.596-4.71V97.713c0-3.146,2.505-6.139,5.596-6.684l85.813-15.131
		c3.092-0.545,5.598,1.564,5.598,4.71V265.46z"/>
	<g>
		<g>
			<path style="fill:#FFFFFF;" d="M144.777,194.453c3.08-0.543,6.159-1.087,9.238-1.63c2.687-0.474,4.163-3.712,3.492-6.15
				c-0.773-2.811-3.469-3.966-6.15-3.492c-3.08,0.543-6.159,1.087-9.238,1.63c-2.687,0.474-4.163,3.712-3.492,6.15
				C139.399,193.771,142.096,194.927,144.777,194.453L144.777,194.453z"/>
		</g>
	</g>
	<path style="fill:none;stroke:#FFFFFF;stroke-width:10;stroke-miterlimit:10;" d="M238.607,265.698
		c0,3.147-2.936,5.698-6.557,5.698H131.528c-3.621,0-6.556-2.551-6.556-5.698V80.846c0-3.146,2.936-5.697,6.556-5.697h100.523
		c3.621,0,6.557,2.551,6.557,5.697V265.698z"/>
</g>
<g id="Ebene_1">
</g>
</svg>
