<?xml version="1.0" encoding="iso-8859-1"?>
<!-- Generator: Adobe Illustrator 16.0.0, SVG Export Plug-In . SVG Version: 6.00 Build 0)  -->
<!DOCTYPE svg PUBLIC "-//W3C//DTD SVG 1.1//EN" "http://www.w3.org/Graphics/SVG/1.1/DTD/svg11.dtd">
<svg version="1.1" xmlns="http://www.w3.org/2000/svg" xmlns:xlink="http://www.w3.org/1999/xlink" x="0px" y="0px" width="361px"
	 height="361px" viewBox="0 0 361 361" style="enable-background:new 0 0 361 361;" xml:space="preserve">
<g id="fts_x5F_window_x5F_roof">
	<g id="Fenster_gerade" style="display:none;">
		<path style="display:inline;fill:none;stroke:#FFFFFF;stroke-width:10;stroke-miterlimit:10;" d="M247.826,264.303
			c0,3.91-3.156,7.082-7.05,7.082l-117.885,0.021c-3.894,0-7.05-3.171-7.05-7.083v-137.5c0-3.911,3.156-7.083,7.05-7.083
			l117.885-0.021c3.894,0,7.05,3.172,7.05,7.083V264.303z"/>
		<g style="display:inline;">
			<g>
				<path style="fill:#FFFFFF;" d="M175.833,260.681c0,2.213,0,4.427,0,6.64c0,2.726,2.274,5,5,5s5-2.274,5-5
					c0-2.213,0-4.427,0-6.64c0-2.726-2.274-5-5-5S175.833,257.955,175.833,260.681L175.833,260.681z"/>
			</g>
		</g>
		<path style="display:inline;fill:none;stroke:#FFFFFF;stroke-width:10;stroke-miterlimit:10;" d="M247.826,124.208
			c0,2.485-2.711,4.5-6.053,4.5l-119.88,0.021c-3.342,0-6.052-2.015-6.052-4.5v-9c0-2.485,2.71-4.5,6.052-4.5l119.88-0.021
			c3.342,0,6.053,2.015,6.053,4.5V124.208z"/>
		<path style="display:inline;fill:none;stroke:#FFFFFF;stroke-width:10;stroke-miterlimit:10;" d="M261.008,277.855
			c0,4.685-3.782,8.484-8.446,8.484l-141.235,0.025c-4.665,0-8.446-3.8-8.446-8.486V103.144c0-4.685,3.782-8.486,8.446-8.486
			l141.235-0.024c4.664,0,8.446,3.801,8.446,8.486V277.855z"/>
	</g>
	<g>
		<path style="fill:none;stroke:#FFFFFF;stroke-width:10;stroke-miterlimit:10;" d="M201.967,246.192
			c-1.693,3.632-5.998,6.577-9.614,6.577l-90.915,0.019c-3.616,0-5.174-2.945-3.479-6.578l59.546-127.698
			c1.694-3.632,6-6.578,9.615-6.578l90.915-0.02c3.616,0,5.174,2.946,3.479,6.579L201.967,246.192z"/>
		<g>
			<g>
				<path style="fill:#FFFFFF;" d="M146.288,240.305c-0.958,2.055-1.917,4.11-2.876,6.166c-1.152,2.47-0.717,5.37,1.794,6.841
					c2.186,1.28,5.689,0.676,6.841-1.794c0.958-2.055,1.917-4.11,2.876-6.166c1.152-2.47,0.717-5.37-1.794-6.841
					C150.943,237.23,147.44,237.835,146.288,240.305L146.288,240.305z"/>
			</g>
		</g>
	</g>
	<g>
		<g>
			<path style="fill:none;stroke:#FFFFFF;stroke-width:10;stroke-miterlimit:10;" d="M207.744,264.139
				c-2.091,4.48-7.4,8.113-11.861,8.113l-115.944,0.023c-4.461,0-6.383-3.633-4.293-8.115l77.917-167.094
				c2.089-4.48,7.4-8.115,11.861-8.115l115.945-0.023c4.459,0,6.381,3.634,4.292,8.115L207.744,264.139z"/>
			<polygon style="fill:#FFFFFF;" points="277.924,104.261 150.421,104.261 159.19,87.015 286.693,87.015 			"/>
		</g>
		<rect x="76.381" y="262.584" style="fill:#FFFFFF;" width="127.455" height="6.432"/>
	</g>
</g>
<g id="Ebene_1">
</g>
</svg>
