<?xml version="1.0" encoding="iso-8859-1"?>
<!-- Generator: Adobe Illustrator 16.0.0, SVG Export Plug-In . SVG Version: 6.00 Build 0)  -->
<!DOCTYPE svg PUBLIC "-//W3C//DTD SVG 1.1//EN" "http://www.w3.org/Graphics/SVG/1.1/DTD/svg11.dtd">
<svg version="1.1" xmlns="http://www.w3.org/2000/svg" xmlns:xlink="http://www.w3.org/1999/xlink" x="0px" y="0px" width="361px"
	 height="361px" viewBox="0 0 361 361" style="enable-background:new 0 0 361 361;" xml:space="preserve">
<g id="it_x5F_camera">
	<path style="fill:none;stroke:#FFFFFF;stroke-width:10;stroke-miterlimit:10;" d="M286.131,166.591
		c1.657,2.869,0.674,6.539-2.196,8.196l-124.708,72c-2.87,1.656-6.54,0.674-8.196-2.196l-30.75-53.261
		c-1.657-2.869-0.673-6.539,2.196-8.195l124.709-72c2.869-1.657,6.539-0.673,8.195,2.196L286.131,166.591z"/>
	<g>
		<g>
			<path style="fill:#FFFFFF;" d="M120.9,268.521c-12.104-20.965-24.208-41.93-36.313-62.895c-1.439,2.508-2.878,5.016-4.317,7.523
				c16.563,0,33.125,0,49.688,0c-1.439-0.825-2.878-1.651-4.317-2.477c3.839,6.593,7.679,13.186,11.518,19.777
				c0-1.683,0-3.364,0-5.047c-8.298,14.372-16.596,28.744-24.894,43.117c-3.23,5.595,5.413,10.628,8.635,5.047
				c8.298-14.372,16.596-28.744,24.894-43.117c0.896-1.553,0.904-3.494,0-5.047c-3.44-5.907-6.88-11.813-10.32-17.721
				c-1.354-2.325-2.618-4.533-5.747-4.533c-2.327,0-4.654,0-6.98,0c-14.159,0-28.317,0-42.476,0c-3.805,0-6.211,4.243-4.317,7.523
				c12.104,20.965,24.208,41.93,36.313,62.895C115.487,279.149,124.13,274.116,120.9,268.521z"/>
		</g>
	</g>
	<g>
		<g>
			<path style="fill:#FFFFFF;" d="M175.833,89.667c0,20,0,40,0,60c0,6.449,10,6.449,10,0c0-20,0-40,0-60
				C185.833,83.218,175.833,83.218,175.833,89.667L175.833,89.667z"/>
		</g>
	</g>
	<path style="fill:#FFFFFF;stroke:#FFFFFF;stroke-width:10;stroke-miterlimit:10;" d="M287.333,84.167c0,3.313-2.659,6-5.938,6
		H148.772c-3.28,0-5.939-2.687-5.939-6v-3.5c0-3.313,2.659-6,5.939-6h132.623c3.279,0,5.938,2.687,5.938,6V84.167z"/>
</g>
<g id="Ebene_1">
</g>
</svg>
