<?xml version="1.0" encoding="iso-8859-1"?>
<!-- Generator: Adobe Illustrator 16.0.0, SVG Export Plug-In . SVG Version: 6.00 Build 0)  -->
<!DOCTYPE svg PUBLIC "-//W3C//DTD SVG 1.1//EN" "http://www.w3.org/Graphics/SVG/1.1/DTD/svg11.dtd">
<svg version="1.1" xmlns="http://www.w3.org/2000/svg" xmlns:xlink="http://www.w3.org/1999/xlink" x="0px" y="0px" width="361px"
	 height="361px" viewBox="0 0 361 361" style="enable-background:new 0 0 361 361;" xml:space="preserve">
<g id="light_x5F_light_x5F_dim_x5F_10">
	<g>
		<g>
			<path style="fill:#FFFFFF;" d="M161.189,248.056c12.286,2.099,24.573,4.196,36.859,6.295c6.306,1.077,9.006-8.559,2.658-9.643
				c-12.286-2.099-24.573-4.196-36.859-6.295C157.542,237.336,154.842,246.972,161.189,248.056L161.189,248.056z"/>
		</g>
	</g>
	<g>
		<g>
			<path style="fill:#FFFFFF;" d="M161.568,261.306c12.286,2.099,24.572,4.196,36.858,6.295c6.306,1.077,9.006-8.559,2.658-9.643
				c-12.286-2.099-24.572-4.196-36.858-6.295C157.921,250.586,155.221,260.222,161.568,261.306L161.568,261.306z"/>
		</g>
	</g>
	<g>
		<g>
			<path style="fill:#FFFFFF;" d="M161.568,274.178c12.286,2.098,24.572,4.196,36.858,6.294c6.306,1.077,9.006-8.559,2.658-9.643
				c-12.286-2.098-24.572-4.196-36.858-6.294C157.921,263.458,155.221,273.094,161.568,274.178L161.568,274.178z"/>
		</g>
	</g>
	<g>
		<g>
			<path style="fill:#FFFFFF;" d="M169.414,287.919c6.895,1.177,13.79,2.354,20.685,3.531c6.306,1.076,9.006-8.56,2.658-9.643
				c-6.895-1.177-13.79-2.354-20.685-3.531C165.766,277.2,163.066,286.836,169.414,287.919L169.414,287.919z"/>
		</g>
	</g>
	<g>
		<g>
			<path style="fill:#FFFFFF;" d="M207.144,212.143c-0.341,9.681-8.01,13.822-16.692,13.822c-7.013,0-14.026,0-21.039,0
				c-8.104,0-15.012-5.457-15.012-13.996c0-4.135,0-8.271,0-12.405c0-15.173,0-30.345,0-45.517c0-3.714-0.417-7.771,0.237-11.456
				c1.636-9.222,9.999-11.199,17.885-11.199c5.5,0,11,0,16.499,0c5.02,0,9.565,0.06,13.623,3.612c6.159,5.392,4.5,15.458,4.5,22.791
				C207.144,175.91,207.144,194.026,207.144,212.143c0,6.448,10,6.448,10,0c0-22.303,0-44.605,0-66.908
				c0-10.783-7.24-19.668-17.282-22.934c-6.056-1.969-13.839-0.909-20.08-0.909c-6.753,0-14.117-0.791-20.507,1.785
				c-8.985,3.62-14.875,12.547-14.875,22.212c0,22.245,0,44.489,0,66.734c0,10.43,6.662,18.748,16.059,22.535
				c5.704,2.298,13.314,1.307,19.323,1.307c6.218,0,12.671,0.497,18.821-0.595c11.008-1.952,18.168-12.63,18.541-23.228
				C217.37,205.69,207.369,205.713,207.144,212.143z"/>
		</g>
	</g>
	<g>
		<g>
			<path style="fill:#FFFFFF;" d="M89.125,224.41c9.638,0,19.275,0,28.913,0c6.449,0,6.449-10,0-10c-9.638,0-19.275,0-28.913,0
				C82.677,214.41,82.677,224.41,89.125,224.41L89.125,224.41z"/>
		</g>
	</g>
	<g>
		<g>
			<g>
				<path style="fill:#FFFFFF;" d="M199.956,84.33c0,3.197,0,6.393,0,9.59c0,1.935,3,1.935,3,0c0-3.197,0-6.393,0-9.59
					C202.956,82.396,199.956,82.396,199.956,84.33L199.956,84.33z"/>
			</g>
		</g>
		<g>
			<g>
				<path style="fill:#FFFFFF;" d="M103.64,138.833c4.819,0,9.638,0,14.457,0c1.935,0,1.935-3,0-3c-4.819,0-9.638,0-14.457,0
					C101.705,135.833,101.705,138.833,103.64,138.833L103.64,138.833z"/>
			</g>
		</g>
		<g>
			<g>
				<path style="fill:#FFFFFF;" d="M118.313,95.98c2.839,2.839,5.678,5.678,8.517,8.517c1.369,1.369,3.49-0.752,2.121-2.121
					c-2.839-2.839-5.678-5.678-8.517-8.517C119.065,92.49,116.944,94.611,118.313,95.98L118.313,95.98z"/>
			</g>
		</g>
		<g>
			<g>
				<path style="fill:#FFFFFF;" d="M242.386,92.82c-3.186,3.185-6.37,6.37-9.556,9.556c-1.369,1.369,0.752,3.49,2.121,2.121
					c3.186-3.185,6.37-6.37,9.556-9.556C245.876,93.572,243.755,91.451,242.386,92.82L242.386,92.82z"/>
			</g>
		</g>
		<g>
			<g>
				<path style="fill:#FFFFFF;" d="M103.64,179.872c4.819,0,9.638,0,14.457,0c1.935,0,1.935-3,0-3c-4.819,0-9.638,0-14.457,0
					C101.705,176.872,101.705,179.872,103.64,179.872L103.64,179.872z"/>
			</g>
		</g>
		<g>
			<g>
				<path style="fill:#FFFFFF;" d="M244.073,138.628c4.818,0,9.638,0,14.456,0c1.935,0,1.935-3,0-3c-4.818,0-9.638,0-14.456,0
					C242.139,135.628,242.139,138.628,244.073,138.628L244.073,138.628z"/>
			</g>
		</g>
		<g>
			<g>
				<path style="fill:#FFFFFF;" d="M244.073,179.666c4.818,0,9.638,0,14.456,0c1.935,0,1.935-3,0-3c-4.818,0-9.638,0-14.456,0
					C242.139,176.666,242.139,179.666,244.073,179.666L244.073,179.666z"/>
			</g>
		</g>
		<g>
			<g>
				<path style="fill:#FFFFFF;" d="M158.391,84.291c0,3.197,0,6.393,0,9.59c0,1.935,3,1.935,3,0c0-3.197,0-6.393,0-9.59
					C161.391,82.356,158.391,82.356,158.391,84.291L158.391,84.291z"/>
			</g>
		</g>
		<g>
			<g>
				<path style="fill:#FFFFFF;" d="M103.64,220.91c4.819,0,9.638,0,14.457,0c1.935,0,1.935-3,0-3c-4.819,0-9.638,0-14.457,0
					C101.705,217.91,101.705,220.91,103.64,220.91L103.64,220.91z"/>
			</g>
		</g>
		<g>
			<g>
				<path style="fill:#FFFFFF;" d="M244.073,220.705c4.818,0,9.638,0,14.456,0c1.935,0,1.935-3,0-3c-4.818,0-9.638,0-14.456,0
					C242.139,217.705,242.139,220.705,244.073,220.705L244.073,220.705z"/>
			</g>
		</g>
	</g>
	<path style="display:none;fill:#FFFFFF;" d="M199.378,208.618c0,4.696-4.03,8.504-9.003,8.504h-18.853
		c-4.973,0-9.003-3.808-9.003-8.504v-60.492c0-4.697,4.031-8.504,9.003-8.504h18.853c4.973,0,9.003,3.807,9.003,8.504V208.618z"/>
</g>
<g id="Ebene_1">
</g>
</svg>
