<svg version="1.1" x="0px" y="0px" width="361" height="361" viewBox="0 0 361 361" xml:space="preserve" xmlns="http://www.w3.org/2000/svg">
 <g>
  <title>background</title>
  <rect x="-1" y="-1" width="363" height="363" id="canvas_background" fill="none"/>
 </g>

 <g>
  <title>Layer 1</title>
  <g id="light_x5F_light_x5F_dim_x5F_00">
   <g id="svg_1">
    <g id="svg_2">
     <path d="m161.189,248.056c12.286,2.099 24.573,4.196 36.859,6.295c6.306,1.077 9.006,-8.559 2.658,-9.643c-12.286,-2.099 -24.573,-4.196 -36.859,-6.295c-6.305,-1.077 -9.005,8.559 -2.658,9.643l0,0z" fill="#FFFFFF" id="svg_3"/>
    </g>
   </g>
   <g id="svg_4">
    <g id="svg_5">
     <path d="m161.568,261.306c12.286,2.099 24.572,4.196 36.858,6.295c6.306,1.077 9.006,-8.559 2.658,-9.643c-12.286,-2.099 -24.572,-4.196 -36.858,-6.295c-6.305,-1.077 -9.005,8.559 -2.658,9.643l0,0z" fill="#FFFFFF" id="svg_6"/>
    </g>
   </g>
   <g id="svg_7">
    <g id="svg_8">
     <path d="m161.568,274.178c12.286,2.098 24.572,4.196 36.858,6.294c6.306,1.077 9.006,-8.559 2.658,-9.643c-12.286,-2.098 -24.572,-4.196 -36.858,-6.294c-6.305,-1.077 -9.005,8.559 -2.658,9.643l0,0z" fill="#FFFFFF" id="svg_9"/>
    </g>
   </g>
   <g id="svg_10">
    <g id="svg_11">
     <path d="m169.414,287.919c6.895,1.177 13.79,2.354 20.685,3.531c6.306,1.076 9.006,-8.56 2.658,-9.643c-6.895,-1.177 -13.79,-2.354 -20.685,-3.531c-6.306,-1.076 -9.006,8.56 -2.658,9.643l0,0z" fill="#FFFFFF" id="svg_12"/>
    </g>
   </g>
   <g id="svg_13">
    <g id="svg_14">
     <path d="m207.144,212.143c-0.341,9.681 -8.01,13.822 -16.692,13.822c-7.013,0 -14.026,0 -21.039,0c-8.104,0 -15.012,-5.457 -15.012,-13.996c0,-4.135 0,-8.271 0,-12.405c0,-15.173 0,-30.345 0,-45.517c0,-3.714 -0.417,-7.771 0.237,-11.456c1.636,-9.222 9.999,-11.199 17.885,-11.199c5.5,0 11,0 16.499,0c5.02,0 9.565,0.06 13.623,3.612c6.159,5.392 4.5,15.458 4.5,22.791c-0.001,18.115 -0.001,36.231 -0.001,54.348c0,6.448 10,6.448 10,0c0,-22.303 0,-44.605 0,-66.908c0,-10.783 -7.24,-19.668 -17.282,-22.934c-6.056,-1.969 -13.839,-0.909 -20.08,-0.909c-6.753,0 -14.117,-0.791 -20.507,1.785c-8.985,3.62 -14.875,12.547 -14.875,22.212c0,22.245 0,44.489 0,66.734c0,10.43 6.662,18.748 16.059,22.535c5.704,2.298 13.314,1.307 19.323,1.307c6.218,0 12.671,0.497 18.821,-0.595c11.008,-1.952 18.168,-12.63 18.541,-23.228c0.226,-6.452 -9.775,-6.429 -10,0.001z" fill="#FFFFFF" id="svg_15"/>
    </g>
   </g>
  </g>
 </g>
</svg>
