<?xml version="1.0" encoding="iso-8859-1"?>
<!-- Generator: Adobe Illustrator 16.0.0, SVG Export Plug-In . SVG Version: 6.00 Build 0)  -->
<!DOCTYPE svg PUBLIC "-//W3C//DTD SVG 1.1//EN" "http://www.w3.org/Graphics/SVG/1.1/DTD/svg11.dtd">
<svg version="1.1" xmlns="http://www.w3.org/2000/svg" xmlns:xlink="http://www.w3.org/1999/xlink" x="0px" y="0px" width="361px"
	 height="361px" viewBox="0 0 361 361" style="enable-background:new 0 0 361 361;" xml:space="preserve">
<g id="light_x5F_light">
	<g>
		<g>
			<path style="fill:#FFFFFF;" d="M155.164,234.139c16.227,2.771,32.454,5.541,48.681,8.312c6.306,1.077,9.006-8.559,2.658-9.643
				c-16.227-2.771-32.454-5.541-48.681-8.312C151.516,223.419,148.816,233.055,155.164,234.139L155.164,234.139z"/>
		</g>
	</g>
	<g>
		<g>
			<path style="fill:#FFFFFF;" d="M155.664,251.639c16.227,2.771,32.454,5.541,48.681,8.312c6.306,1.077,9.006-8.559,2.658-9.643
				c-16.227-2.771-32.454-5.541-48.681-8.312C152.016,240.919,149.316,250.555,155.664,251.639L155.664,251.639z"/>
		</g>
	</g>
	<g>
		<g>
			<path style="fill:#FFFFFF;" d="M155.664,268.639c16.227,2.771,32.454,5.541,48.681,8.312c6.306,1.077,9.006-8.559,2.658-9.643
				c-16.227-2.771-32.454-5.541-48.681-8.312C152.016,257.919,149.316,267.555,155.664,268.639L155.664,268.639z"/>
		</g>
	</g>
	<g>
		<g>
			<path style="fill:#FFFFFF;" d="M166.024,286.786c9.106,1.555,18.214,3.109,27.32,4.664c6.306,1.076,9.006-8.56,2.658-9.643
				c-9.106-1.555-18.213-3.109-27.32-4.664C162.377,276.067,159.677,285.703,166.024,286.786L166.024,286.786z"/>
		</g>
	</g>
	<path style="fill:none;stroke:#FFFFFF;stroke-width:10;stroke-miterlimit:10;" d="M222.033,188.252
		c0,13.73-11.13,24.86-24.859,24.86h-33.147c-13.729,0-24.86-11.13-24.86-24.86V99.86c0-13.729,11.13-24.86,24.86-24.86h33.147
		c13.729,0,24.859,11.13,24.859,24.86V188.252z"/>
</g>
<g id="Ebene_1">
</g>
</svg>
