<?xml version="1.0" encoding="iso-8859-1"?>
<!-- Generator: Adobe Illustrator 16.0.0, SVG Export Plug-In . SVG Version: 6.00 Build 0)  -->
<!DOCTYPE svg PUBLIC "-//W3C//DTD SVG 1.1//EN" "http://www.w3.org/Graphics/SVG/1.1/DTD/svg11.dtd">
<svg version="1.1" xmlns="http://www.w3.org/2000/svg" xmlns:xlink="http://www.w3.org/1999/xlink" x="0px" y="0px" width="361px"
	 height="361px" viewBox="0 0 361 361" style="enable-background:new 0 0 361 361;" xml:space="preserve">
<g id="message_x5F_socket_x5F_on_x5F_off">
	<path style="fill:none;stroke:#FFFFFF;stroke-width:10;stroke-miterlimit:10;" d="M212.221,283.259
		c0,2.025-1.789,3.667-3.994,3.667H78.838c-2.207,0-3.995-1.642-3.995-3.667V153.214c0-2.025,1.789-3.667,3.995-3.667h129.388
		c2.205,0,3.994,1.642,3.994,3.667V283.259z"/>
	<path style="fill:none;stroke:#FFFFFF;stroke-width:10;stroke-miterlimit:10;" d="M186.965,258.728c0,1.268-1.118,2.295-2.5,2.295
		h-80.971c-1.381,0-2.5-1.027-2.5-2.295v-81.382c0-1.268,1.119-2.295,2.5-2.295h80.971c1.382,0,2.5,1.027,2.5,2.295V258.728z"/>
	<path style="fill:none;stroke:#FFFFFF;stroke-width:10;stroke-miterlimit:10;" d="M126.805,221.416
		c0,0.094-0.082,0.169-0.184,0.169h-5.954c-0.102,0-0.185-0.075-0.185-0.169v-5.984c0-0.094,0.083-0.169,0.185-0.169h5.954
		c0.102,0,0.184,0.075,0.184,0.169V221.416z"/>
	<path style="fill:none;stroke:#FFFFFF;stroke-width:10;stroke-miterlimit:10;" d="M145.965,260.509c0,0.036-0.07,0.065-0.157,0.065
		h-5.093c-0.086,0-0.157-0.029-0.157-0.065V258.2c0-0.036,0.07-0.065,0.157-0.065h5.093c0.087,0,0.157,0.029,0.157,0.065V260.509z"
		/>
	<g>
		<polygon style="fill:#FFFFFF;" points="102.627,191.654 102.543,176.362 117.836,176.445 		"/>
		<g>
			<path style="fill:#FFFFFF;" d="M107.627,191.654c-0.028-5.098-0.056-10.194-0.083-15.292c-1.667,1.667-3.333,3.333-5,5
				c5.098,0.027,10.195,0.055,15.292,0.083c-1.179-2.846-2.357-5.691-3.536-8.536c-5.069,5.07-10.139,10.14-15.209,15.21
				c-4.563,4.563,2.508,11.635,7.071,7.07c5.069-5.069,10.139-10.14,15.209-15.209c3.098-3.098,0.816-8.512-3.536-8.536
				c-5.098-0.027-10.195-0.055-15.292-0.083c-2.714-0.015-5.015,2.285-5,5c0.028,5.098,0.056,10.194,0.083,15.292
				C97.662,198.102,107.662,198.104,107.627,191.654z"/>
		</g>
	</g>
	<g>
		<polygon style="fill:#FFFFFF;" points="170.707,176.445 185.998,176.362 185.916,191.654 		"/>
		<g>
			<path style="fill:#FFFFFF;" d="M170.707,181.445c5.097-0.028,10.194-0.056,15.292-0.083c-1.667-1.667-3.333-3.333-5-5
				c-0.027,5.098-0.055,10.194-0.082,15.292c2.845-1.179,5.69-2.357,8.535-3.535c-5.069-5.07-10.139-10.14-15.209-15.21
				c-4.564-4.563-11.635,2.507-7.071,7.071c5.07,5.069,10.14,10.14,15.21,15.209c3.098,3.099,8.512,0.816,8.535-3.535
				c0.027-5.098,0.055-10.194,0.082-15.292c0.015-2.715-2.285-5.015-5-5c-5.097,0.027-10.194,0.055-15.292,0.083
				C164.26,171.479,164.256,181.479,170.707,181.445z"/>
		</g>
	</g>
	<g>
		<polygon style="fill:#FFFFFF;" points="185.268,244.524 185.352,259.816 170.059,259.734 		"/>
		<g>
			<path style="fill:#FFFFFF;" d="M180.268,244.524c0.028,5.098,0.056,10.194,0.084,15.292c1.667-1.667,3.333-3.333,5-5
				c-5.098-0.027-10.195-0.055-15.292-0.082c1.179,2.845,2.357,5.69,3.536,8.535c5.069-5.069,10.139-10.14,15.208-15.21
				c4.563-4.563-2.507-11.635-7.07-7.07c-5.07,5.069-10.139,10.14-15.209,15.21c-3.098,3.098-0.816,8.512,3.536,8.535
				c5.098,0.027,10.195,0.055,15.292,0.082c2.715,0.015,5.015-2.285,5-5c-0.028-5.098-0.056-10.194-0.084-15.292
				C190.232,238.078,180.232,238.074,180.268,244.524z"/>
		</g>
	</g>
	<g>
		<polygon style="fill:#FFFFFF;" points="117.835,259.733 102.543,259.816 102.626,244.524 		"/>
		<g>
			<path style="fill:#FFFFFF;" d="M117.835,254.733c-5.097,0.027-10.195,0.056-15.292,0.083c1.667,1.667,3.333,3.333,5,5
				c0.028-5.098,0.055-10.194,0.083-15.292c-2.845,1.179-5.69,2.357-8.536,3.535c5.07,5.07,10.14,10.14,15.209,15.209
				c4.564,4.564,11.635-2.507,7.071-7.07c-5.07-5.07-10.14-10.14-15.209-15.209c-3.098-3.099-8.512-0.816-8.536,3.535
				c-0.028,5.098-0.055,10.194-0.083,15.292c-0.015,2.715,2.286,5.015,5,5c5.097-0.027,10.195-0.056,15.292-0.083
				C124.282,264.698,124.285,254.698,117.835,254.733z"/>
		</g>
	</g>
	<path style="fill:none;stroke:#FFFFFF;stroke-width:10;stroke-miterlimit:10;" d="M166.956,221.416
		c0,0.094-0.083,0.169-0.184,0.169h-5.955c-0.101,0-0.184-0.075-0.184-0.169v-5.984c0-0.094,0.083-0.169,0.184-0.169h5.955
		c0.101,0,0.184,0.075,0.184,0.169V221.416z"/>
	<path style="fill:none;stroke:#FFFFFF;stroke-width:10;stroke-miterlimit:10;" d="M146.181,177.618c0,0.036-0.07,0.065-0.157,0.065
		h-5.092c-0.086,0-0.157-0.03-0.157-0.065v-2.308c0-0.036,0.071-0.066,0.157-0.066h5.092c0.087,0,0.157,0.03,0.157,0.066V177.618z"
		/>
	<g id="ein_x5F_aus_1_">
		<g>
			<g>
				<path style="fill:#FFFFFF;" d="M285.199,125.541c-0.513,8.886-9.127,7.96-15.471,7.96c-7.751,0-15.501,0-23.252,0
					c-5.377,0-13.059,1.416-16.639-3.583c-2.708-3.781-1.307-11.851-1.307-16.128c0-7.665,0-15.33,0-22.995
					c0-5.902-0.267-13.961,8.085-13.961c12.595,0,25.189,0,37.784,0c5.227,0,10.799,1.603,10.799,8.085c0,3.875,0,7.75,0,11.626
					C285.199,106.209,285.199,115.875,285.199,125.541c0,4.514,7,4.514,7,0c0-12.253,0-24.505,0-36.758
					c0-6.784-1.089-12.417-7.051-16.687c-4.412-3.16-11.093-2.262-16.219-2.262c-7.768,0-15.535,0-23.303,0
					c-5.455,0-10.816-0.524-15.941,1.643c-6.808,2.878-8.154,10.218-8.154,16.71c0,7.289,0,14.578,0,21.867
					c0,7.144-1.202,15.564,1.643,22.293c3.744,8.856,13.781,8.154,21.627,8.154c9.483,0,18.966,0,28.449,0
					c3.009,0,5.848,0.074,8.784-0.793c6.274-1.854,9.809-7.985,10.165-14.167C292.46,121.029,285.458,121.054,285.199,125.541z"/>
			</g>
		</g>
		<g>
			<g>
				<path style="fill:#FFFFFF;" d="M253.542,86.626c0,12.361,0,24.722,0,37.083c0,4.514,7,4.514,7,0c0-12.361,0-24.722,0-37.083
					C260.542,82.112,253.542,82.112,253.542,86.626L253.542,86.626z"/>
			</g>
		</g>
	</g>
</g>
<g id="Ebene_1">
</g>
</svg>
