<?xml version="1.0" encoding="iso-8859-1"?>
<!-- Generator: Adobe Illustrator 16.0.0, SVG Export Plug-In . SVG Version: 6.00 Build 0)  -->
<!DOCTYPE svg PUBLIC "-//W3C//DTD SVG 1.1//EN" "http://www.w3.org/Graphics/SVG/1.1/DTD/svg11.dtd">
<svg version="1.1" xmlns="http://www.w3.org/2000/svg" xmlns:xlink="http://www.w3.org/1999/xlink" x="0px" y="0px" width="361px"
	 height="361px" viewBox="0 0 361 361" style="enable-background:new 0 0 361 361;" xml:space="preserve">
<g id="sani_x5F_valve_x5F_20">
	<g id="Abluft_10_" style="display:none;">
		<g style="display:inline;">
			<g>
				<path style="fill:#FFFFFF;" d="M90.131,268.935c0.141-0.066,0.282-0.133,0.422-0.198c1.179-0.488,2.357-0.977,3.536-1.465
					c-6.018,0-12.036,0-18.053,0c1.179,0.488,2.357,0.977,3.536,1.465c0.767,0.665,0.424-1.665,0.424-2.077c0-2.507,0-5.013,0-7.52
					c0-7.579,0-15.157,0-22.736s0-15.157,0-22.736c0-2.369,0-4.738,0-7.107c0-0.437,0.345-3.153-0.424-2.487
					c-1.179,0.488-2.357,0.977-3.536,1.465c6.018,0,12.036,0,18.053,0c-1.179-0.488-2.357-0.977-3.536-1.465
					c-0.767-0.663-0.422,1.659-0.422,2.075c0,2.265,0,4.529,0,6.794c0,7.488,0,14.978,0,22.466
					C90.131,246.583,90.131,257.759,90.131,268.935c0,6.448,10,6.448,10,0c0-11.176,0-22.352,0-33.527c0-7.488,0-14.978,0-22.466
					c0-3.59,0.782-8.555-0.321-12.082c-2.383-7.625-12.185-5.322-18.511-5.322c-2.303,0-5.692-0.544-7.787,0.683
					c-2.972,1.741-3.517,5.187-3.517,8.354c0,12.917,0,25.835,0,38.753c0,6.194,0,12.39,0,18.584c0,2.992-0.592,7.108,0.321,10.037
					c2.209,7.083,9.781,5.323,15.712,5.323c2.599,0,5.199,0,7.798,0c4.756,0,5.979-4.474,6.305-8.337
					C100.674,262.506,90.67,262.558,90.131,268.935z"/>
			</g>
		</g>
		<g style="display:inline;">
			<g>
				<path style="fill:#FFFFFF;" d="M93.053,190.655c22.023,16.833,44.047,33.665,66.071,50.498c0-2.878,0-5.757,0-8.635
					c-22.024,16.833-44.048,33.665-66.071,50.498c2.508,1.439,5.016,2.878,7.523,4.317c0-33.665,0-67.331,0-100.996
					c0-6.449-10-6.449-10,0c0,33.665,0,67.331,0,100.996c0,3.436,4.397,6.707,7.523,4.317
					c22.024-16.833,44.048-33.665,66.071-50.498c3.178-2.429,3.178-6.206,0-8.635c-22.023-16.833-44.047-33.665-66.071-50.498
					C92.974,178.103,88.003,186.796,93.053,190.655z"/>
			</g>
		</g>
	</g>
	<g>
		<g>
			<path style="fill:#FFFFFF;" d="M192.04,115.945c-4.922,15.149-9.845,30.298-14.767,45.446c0.815-0.814,1.63-1.629,2.444-2.444
				c-6.549,2.672-17.116,6.443-19.908,13.478c-3.162,7.968,3.086,17.572,7.229,24.252c-0.118-0.899-0.235-1.798-0.353-2.697
				c-3.809,11.722-7.617,23.443-11.426,35.165c-1.221,3.757-4.01,8.896-3.891,12.99c0.285,9.774,13.921,13.685,18.238,4.249
				c1.775-3.88,2.767-8.267,4.082-12.313c2.45-7.539,4.899-15.077,7.349-22.616c0.923-2.839,1.845-5.678,2.768-8.517
				c0.284-0.875,0.568-1.751,0.854-2.626c0.708-2.181,0.319,0.229-0.528,0.61c5.01-2.247,12.637-5.062,15.996-9.625
				c6.293-8.548-0.673-18.807-5.126-26.598c0.117,0.899,0.235,1.798,0.353,2.697c3.799-11.692,7.597-23.384,11.396-35.076
				c1.219-3.75,4-8.876,3.882-12.962c-0.281-9.773-13.924-13.685-18.237-4.25c-1.861,4.074,4.17,7.634,6.045,3.533
				c1.906-4.171,5.737-1.039,4.682,2.212c-0.786,2.419-1.572,4.838-2.357,7.257c-2.422,7.453-4.843,14.905-7.264,22.357
				c-1.607,4.947-3.215,9.894-4.822,14.841c-0.634,1.951,0.741,3.748,1.594,5.421c1.623,3.186,3.246,6.371,4.869,9.556
				c3.977,7.804-8.801,11.667-13.83,14.229c-3.645,1.857-4.068,5.989-5.264,9.67c-4.185,12.878-8.37,25.757-12.554,38.636
				c-0.877,2.7-6.133,2.501-4.963-1.1c0.533-1.642,1.066-3.283,1.6-4.925c2.303-7.088,4.605-14.175,6.908-21.262
				c1.967-6.053,3.933-12.106,5.9-18.159c1.473-4.533-2.884-9.905-4.922-13.906c-1.872-3.674-3.568-7.076-0.125-10.661
				c2.117-2.204,6.382-3.455,9.028-4.804c2.166-1.104,6.303-2.283,7.105-4.752c0.424-1.303,0.848-2.606,1.271-3.91
				c4.288-13.195,8.575-26.39,12.862-39.584c0.212-0.651,0.423-1.302,0.635-1.953C200.189,113.5,193.429,111.671,192.04,115.945z"/>
		</g>
	</g>
	<g>
		<g>
			<path style="fill:#FFFFFF;" d="M75.188,106.167c48.616,0,97.231,0,145.846,0c21.934,0,43.866,0,65.799,0c6.448,0,6.448-10,0-10
				c-48.615,0-97.231,0-145.847,0c-21.933,0-43.866,0-65.798,0C68.739,96.167,68.739,106.167,75.188,106.167L75.188,106.167z"/>
		</g>
	</g>
	<g>
		<g>
			<path style="fill:#FFFFFF;" d="M74.833,265.167c48.616,0,97.231,0,145.847,0c21.934,0,43.866,0,65.799,0c6.448,0,6.448-10,0-10
				c-48.615,0-97.231,0-145.847,0c-21.933,0-43.866,0-65.798,0C68.384,255.167,68.384,265.167,74.833,265.167L74.833,265.167z"/>
		</g>
	</g>
</g>
<g id="Ebene_1">
</g>
</svg>
