<?xml version="1.0" encoding="iso-8859-1"?>
<!-- Generator: Adobe Illustrator 16.0.0, SVG Export Plug-In . SVG Version: 6.00 Build 0)  -->
<!DOCTYPE svg PUBLIC "-//W3C//DTD SVG 1.1//EN" "http://www.w3.org/Graphics/SVG/1.1/DTD/svg11.dtd">
<svg version="1.1" xmlns="http://www.w3.org/2000/svg" xmlns:xlink="http://www.w3.org/1999/xlink" x="0px" y="0px" width="361px"
	 height="361px" viewBox="0 0 361 361" style="enable-background:new 0 0 361 361;" xml:space="preserve">
<g id="sani_x5F_valve_x5F_0">
	<g id="Abluft_8_" style="display:none;">
		<g style="display:inline;">
			<g>
				<path style="fill:#FFFFFF;" d="M90.131,268.935c0.141-0.066,0.282-0.133,0.422-0.198c1.179-0.488,2.357-0.977,3.536-1.465
					c-6.018,0-12.036,0-18.053,0c1.179,0.488,2.357,0.977,3.536,1.465c0.767,0.665,0.424-1.665,0.424-2.077c0-2.507,0-5.013,0-7.52
					c0-7.579,0-15.157,0-22.736s0-15.157,0-22.736c0-2.369,0-4.738,0-7.107c0-0.437,0.345-3.153-0.424-2.487
					c-1.179,0.488-2.357,0.977-3.536,1.465c6.018,0,12.036,0,18.053,0c-1.179-0.488-2.357-0.977-3.536-1.465
					c-0.767-0.663-0.422,1.659-0.422,2.075c0,2.265,0,4.529,0,6.794c0,7.488,0,14.978,0,22.466
					C90.131,246.583,90.131,257.759,90.131,268.935c0,6.448,10,6.448,10,0c0-11.176,0-22.352,0-33.527c0-7.488,0-14.978,0-22.466
					c0-3.59,0.782-8.555-0.321-12.082c-2.383-7.625-12.185-5.322-18.511-5.322c-2.303,0-5.692-0.544-7.787,0.683
					c-2.972,1.741-3.517,5.187-3.517,8.354c0,12.917,0,25.835,0,38.753c0,6.194,0,12.39,0,18.584c0,2.992-0.592,7.108,0.321,10.037
					c2.209,7.083,9.781,5.323,15.712,5.323c2.599,0,5.199,0,7.798,0c4.756,0,5.979-4.474,6.305-8.337
					C100.674,262.506,90.67,262.558,90.131,268.935z"/>
			</g>
		</g>
		<g style="display:inline;">
			<g>
				<path style="fill:#FFFFFF;" d="M93.053,190.655c22.023,16.833,44.047,33.665,66.071,50.498c0-2.878,0-5.757,0-8.635
					c-22.024,16.833-44.048,33.665-66.071,50.498c2.508,1.439,5.016,2.878,7.523,4.317c0-33.665,0-67.331,0-100.996
					c0-6.449-10-6.449-10,0c0,33.665,0,67.331,0,100.996c0,3.436,4.397,6.707,7.523,4.317
					c22.024-16.833,44.048-33.665,66.071-50.498c3.178-2.429,3.178-6.206,0-8.635c-22.023-16.833-44.047-33.665-66.071-50.498
					C92.974,178.103,88.003,186.796,93.053,190.655z"/>
			</g>
		</g>
	</g>
	<g>
		<g>
			<path style="fill:#FFFFFF;" d="M171.479,115.467c0,15.928,0,31.857-0.001,47.785c0.342-0.825,0.684-1.65,1.025-2.475
				c-5.154,4.355-14.28,11.579-14.28,18.929c0,8.417,8.274,15.212,14.28,20.287c-0.341-0.824-0.683-1.649-1.025-2.475
				c0,10.188,0,20.376,0,30.563c0,8.301-3.439,26.774,9.527,26.774c12.919,0,9.527-18.26,9.527-26.544c0-10.412,0-20.824,0-31.236
				c-0.342,0.825-0.684,1.65-1.025,2.475c4.94-4.466,13.717-11.195,13.718-18.486c0.001-8.392-7.945-14.616-13.718-19.845
				c0.342,0.825,0.684,1.65,1.025,2.475c0-12.294,0-24.587,0-36.881c0-3.897,1.092-9.723-0.27-13.535
				C186.671,103.224,172.691,104.928,171.479,115.467c-0.515,4.48,6.49,4.43,7,0c0.505-4.388,5.054-1.088,5.054,1.611
				c0,2.688,0,5.377,0,8.066c0,7.879,0,15.759,0,23.638c0,4.935,0,9.87,0,14.805c0,2.177,2.188,3.69,3.604,5.106
				c2.407,2.407,4.814,4.813,7.222,7.221c6.186,6.185-5.189,14.131-9.162,18.104c-2.781,2.781-1.663,8.192-1.663,11.823
				c0,13.204,0,26.409,0,39.613c0,3.214-5.055,3.19-5.055-0.008c0-2.075,0-4.149,0-6.225c0-7.651,0-15.302,0-22.952
				c0-5.942,0-11.884,0-17.826c0-4.465-7.052-9.252-10.002-12.201c-3.002-3.002-4.782-6.934-1.192-10.522
				c2.527-2.528,5.055-5.055,7.583-7.583c1.512-1.512,3.611-2.778,3.611-5.127c0-1.929,0-3.859,0-5.788
				c0-13.605,0-27.21,0.001-40.814c0-0.313,0-0.627,0-0.94C178.479,110.953,171.479,110.953,171.479,115.467z"/>
		</g>
	</g>
	<g>
		<g>
			<path style="fill:#FFFFFF;" d="M75.188,106.167c48.616,0,97.231,0,145.846,0c21.934,0,43.866,0,65.799,0c6.448,0,6.448-10,0-10
				c-48.615,0-97.231,0-145.847,0c-21.933,0-43.866,0-65.798,0C68.739,96.167,68.739,106.167,75.188,106.167L75.188,106.167z"/>
		</g>
	</g>
	<g>
		<g>
			<path style="fill:#FFFFFF;" d="M74.833,265.167c48.616,0,97.231,0,145.847,0c21.934,0,43.866,0,65.799,0c6.448,0,6.448-10,0-10
				c-48.615,0-97.231,0-145.847,0c-21.933,0-43.866,0-65.798,0C68.384,255.167,68.384,265.167,74.833,265.167L74.833,265.167z"/>
		</g>
	</g>
</g>
<g id="Ebene_1">
</g>
</svg>
