<?xml version="1.0" encoding="iso-8859-1"?>
<!-- Generator: Adobe Illustrator 16.0.0, SVG Export Plug-In . SVG Version: 6.00 Build 0)  -->
<!DOCTYPE svg PUBLIC "-//W3C//DTD SVG 1.1//EN" "http://www.w3.org/Graphics/SVG/1.1/DTD/svg11.dtd">
<svg version="1.1" xmlns="http://www.w3.org/2000/svg" xmlns:xlink="http://www.w3.org/1999/xlink" x="0px" y="0px" width="361px"
	 height="361px" viewBox="0 0 361 361" style="enable-background:new 0 0 361 361;" xml:space="preserve">
<g id="sani_x5F_valve_x5F_50">
	<g id="Abluft_13_" style="display:none;">
		<g style="display:inline;">
			<g>
				<path style="fill:#FFFFFF;" d="M90.131,268.935c0.141-0.066,0.282-0.133,0.422-0.198c1.179-0.488,2.357-0.977,3.536-1.465
					c-6.018,0-12.036,0-18.053,0c1.179,0.488,2.357,0.977,3.536,1.465c0.767,0.665,0.424-1.665,0.424-2.077c0-2.507,0-5.013,0-7.52
					c0-7.579,0-15.157,0-22.736s0-15.157,0-22.736c0-2.369,0-4.738,0-7.107c0-0.437,0.345-3.153-0.424-2.487
					c-1.179,0.488-2.357,0.977-3.536,1.465c6.018,0,12.036,0,18.053,0c-1.179-0.488-2.357-0.977-3.536-1.465
					c-0.767-0.663-0.422,1.659-0.422,2.075c0,2.265,0,4.529,0,6.794c0,7.488,0,14.978,0,22.466
					C90.131,246.583,90.131,257.759,90.131,268.935c0,6.448,10,6.448,10,0c0-11.176,0-22.352,0-33.527c0-7.488,0-14.978,0-22.466
					c0-3.59,0.782-8.555-0.321-12.082c-2.383-7.625-12.185-5.322-18.511-5.322c-2.303,0-5.692-0.544-7.787,0.683
					c-2.972,1.741-3.517,5.187-3.517,8.354c0,12.917,0,25.835,0,38.753c0,6.194,0,12.39,0,18.584c0,2.992-0.592,7.108,0.321,10.037
					c2.209,7.083,9.781,5.323,15.712,5.323c2.599,0,5.199,0,7.798,0c4.756,0,5.979-4.474,6.305-8.337
					C100.674,262.506,90.67,262.558,90.131,268.935z"/>
			</g>
		</g>
		<g style="display:inline;">
			<g>
				<path style="fill:#FFFFFF;" d="M93.053,190.655c22.023,16.833,44.047,33.665,66.071,50.498c0-2.878,0-5.757,0-8.635
					c-22.024,16.833-44.048,33.665-66.071,50.498c2.508,1.439,5.016,2.878,7.523,4.317c0-33.665,0-67.331,0-100.996
					c0-6.449-10-6.449-10,0c0,33.665,0,67.331,0,100.996c0,3.436,4.397,6.707,7.523,4.317
					c22.024-16.833,44.048-33.665,66.071-50.498c3.178-2.429,3.178-6.206,0-8.635c-22.023-16.833-44.047-33.665-66.071-50.498
					C92.974,178.103,88.003,186.796,93.053,190.655z"/>
			</g>
		</g>
	</g>
	<g>
		<g>
			<path style="fill:#FFFFFF;" d="M220.365,127.907c-11.264,11.263-22.526,22.525-33.789,33.788
				c0.824-0.341,1.649-0.683,2.475-1.025c-7.669-0.648-17.876-1.622-23.979,3.75c-5.75,5.061-4.327,17.114-3.751,23.98
				c0.342-0.825,0.684-1.65,1.025-2.475c-7.204,7.203-14.407,14.407-21.611,21.611c-5.864,5.864-21.369,16.508-12.196,25.669
				c9.141,9.129,19.646-6.172,25.508-12.033c7.362-7.362,14.725-14.725,22.087-22.087c-0.825,0.342-1.65,0.684-2.475,1.025
				c7.603,0.387,17.202,1.504,23.269-3.836c5.718-5.032,4.164-16.464,3.836-23.268c-0.342,0.825-0.684,1.65-1.025,2.475
				c8.692-8.694,17.386-17.387,26.078-26.081c2.742-2.743,7.632-6.084,9.356-9.723C239.749,130.025,228.715,121.281,220.365,127.907
				c-3.535,2.806,1.453,7.725,4.949,4.95c3.462-2.748,4.343,2.802,2.436,4.71c-1.901,1.901-3.803,3.803-5.704,5.704
				c-5.571,5.572-11.143,11.144-16.714,16.716c-3.489,3.49-6.979,6.979-10.468,10.469c-1.538,1.538-1.063,4.157-1.063,6.158
				c0,3.404,0.001,6.808,0.001,10.211c0.001,8.739-13.428,6.323-19.007,6.324c-4.03,0.001-6.596,3.972-9.266,6.642
				c-9.465,9.464-18.929,18.929-28.394,28.394c-1.982,1.981-6.43-0.719-3.857-3.291c1.346-1.347,2.692-2.692,4.039-4.039
				c5.344-5.344,10.688-10.688,16.031-16.031c4.355-4.355,8.71-8.711,13.066-13.066c3.296-3.297,1.784-10.766,1.784-15.143
				c0-4.358,0.847-8.707,6.229-9.071c3.117-0.211,6.319,0,9.442,0c2.233,0,6.009,0.749,7.677-0.919
				c1.105-1.105,2.211-2.211,3.316-3.316c9.765-9.765,19.529-19.529,29.295-29.293c0.386-0.386,0.772-0.772,1.158-1.159
				C228.51,129.663,223.56,124.713,220.365,127.907z"/>
		</g>
	</g>
	<g>
		<g>
			<path style="fill:#FFFFFF;" d="M75.188,106.167c48.616,0,97.231,0,145.846,0c21.934,0,43.866,0,65.799,0c6.448,0,6.448-10,0-10
				c-48.615,0-97.231,0-145.847,0c-21.933,0-43.866,0-65.798,0C68.739,96.167,68.739,106.167,75.188,106.167L75.188,106.167z"/>
		</g>
	</g>
	<g>
		<g>
			<path style="fill:#FFFFFF;" d="M74.833,265.167c48.616,0,97.231,0,145.847,0c21.934,0,43.866,0,65.799,0c6.448,0,6.448-10,0-10
				c-48.615,0-97.231,0-145.847,0c-21.933,0-43.866,0-65.798,0C68.384,255.167,68.384,265.167,74.833,265.167L74.833,265.167z"/>
		</g>
	</g>
</g>
<g id="Ebene_1">
</g>
</svg>
