<?xml version="1.0" encoding="iso-8859-1"?>
<!-- Generator: Adobe Illustrator 16.0.0, SVG Export Plug-In . SVG Version: 6.00 Build 0)  -->
<!DOCTYPE svg PUBLIC "-//W3C//DTD SVG 1.1//EN" "http://www.w3.org/Graphics/SVG/1.1/DTD/svg11.dtd">
<svg version="1.1" xmlns="http://www.w3.org/2000/svg" xmlns:xlink="http://www.w3.org/1999/xlink" x="0px" y="0px" width="361px"
	 height="361px" viewBox="0 0 361 361" style="enable-background:new 0 0 361 361;" xml:space="preserve">
<g id="sani_x5F_valve_x5F_40">
	<g id="Abluft_12_" style="display:none;">
		<g style="display:inline;">
			<g>
				<path style="fill:#FFFFFF;" d="M90.131,268.935c0.141-0.066,0.282-0.133,0.422-0.198c1.179-0.488,2.357-0.977,3.536-1.465
					c-6.018,0-12.036,0-18.053,0c1.179,0.488,2.357,0.977,3.536,1.465c0.767,0.665,0.424-1.665,0.424-2.077c0-2.507,0-5.013,0-7.52
					c0-7.579,0-15.157,0-22.736s0-15.157,0-22.736c0-2.369,0-4.738,0-7.107c0-0.437,0.345-3.153-0.424-2.487
					c-1.179,0.488-2.357,0.977-3.536,1.465c6.018,0,12.036,0,18.053,0c-1.179-0.488-2.357-0.977-3.536-1.465
					c-0.767-0.663-0.422,1.659-0.422,2.075c0,2.265,0,4.529,0,6.794c0,7.488,0,14.978,0,22.466
					C90.131,246.583,90.131,257.759,90.131,268.935c0,6.448,10,6.448,10,0c0-11.176,0-22.352,0-33.527c0-7.488,0-14.978,0-22.466
					c0-3.59,0.782-8.555-0.321-12.082c-2.383-7.625-12.185-5.322-18.511-5.322c-2.303,0-5.692-0.544-7.787,0.683
					c-2.972,1.741-3.517,5.187-3.517,8.354c0,12.917,0,25.835,0,38.753c0,6.194,0,12.39,0,18.584c0,2.992-0.592,7.108,0.321,10.037
					c2.209,7.083,9.781,5.323,15.712,5.323c2.599,0,5.199,0,7.798,0c4.756,0,5.979-4.474,6.305-8.337
					C100.674,262.506,90.67,262.558,90.131,268.935z"/>
			</g>
		</g>
		<g style="display:inline;">
			<g>
				<path style="fill:#FFFFFF;" d="M93.053,190.655c22.023,16.833,44.047,33.665,66.071,50.498c0-2.878,0-5.757,0-8.635
					c-22.024,16.833-44.048,33.665-66.071,50.498c2.508,1.439,5.016,2.878,7.523,4.317c0-33.665,0-67.331,0-100.996
					c0-6.449-10-6.449-10,0c0,33.665,0,67.331,0,100.996c0,3.436,4.397,6.707,7.523,4.317
					c22.024-16.833,44.048-33.665,66.071-50.498c3.178-2.429,3.178-6.206,0-8.635c-22.023-16.833-44.047-33.665-66.071-50.498
					C92.974,178.103,88.003,186.796,93.053,190.655z"/>
			</g>
		</g>
	</g>
	<g>
		<g>
			<path style="fill:#FFFFFF;" d="M211.424,122.689c-9.362,12.886-18.725,25.772-28.088,38.658c1.008-0.578,2.015-1.156,3.022-1.733
				c-7.415,0.543-18.252,1.004-23.288,7.081c-5.2,6.276-1.998,17.865-0.228,25.072c0.118-0.899,0.235-1.798,0.353-2.697
				c-5.988,8.242-11.977,16.484-17.964,24.727c-5.096,7.014-18.315,19.348-7.549,27.161c10.158,7.372,18.542-9.929,23.211-16.355
				c6.12-8.424,12.24-16.847,18.359-25.271c-1.007,0.578-2.015,1.155-3.022,1.733c7.307-0.775,17.572-1.02,22.574-7.054
				c5.189-6.263,1.917-17.181,0.424-24.384c-0.117,0.899-0.235,1.798-0.353,2.697c7.226-9.946,14.451-19.893,21.676-29.839
				c2.337-3.215,6.486-7.172,7.645-11.118c2.816-9.603-9.317-16.907-16.225-9.387c-3.048,3.318,1.89,8.281,4.949,4.95
				c2.058-2.24,6.337-0.023,4.239,2.864c-0.238,0.329-0.478,0.657-0.716,0.986c-1.495,2.058-2.99,4.116-4.485,6.174
				c-4.605,6.339-9.211,12.679-13.816,19.019c-3.058,4.208-6.114,8.417-9.172,12.625c-1.146,1.58-0.297,3.893-0.015,5.672
				c0.56,3.53,1.119,7.061,1.679,10.591c1.342,8.469-12.417,8.271-17.781,9.121c-3.766,0.597-5.654,4.58-7.91,7.685
				c-7.959,10.955-15.919,21.911-23.878,32.866c-1.798,2.475-6.327,0.05-4.181-2.904c1.015-1.396,2.029-2.792,3.043-4.188
				c4.38-6.029,8.76-12.058,13.14-18.086c3.741-5.149,7.481-10.298,11.223-15.446c2.719-3.743,0.152-10.469-0.529-14.77
				c-0.649-4.1-1.085-8.37,3.772-10.191c2.942-1.104,6.63-1.14,9.704-1.626c2.556-0.404,6.522-0.211,8.143-2.44
				c0.805-1.109,1.61-2.217,2.416-3.326c8.155-11.224,16.31-22.448,24.465-33.671c0.402-0.554,0.805-1.107,1.207-1.661
				C220.127,122.563,214.05,119.076,211.424,122.689z"/>
		</g>
	</g>
	<g>
		<g>
			<path style="fill:#FFFFFF;" d="M75.188,106.167c48.616,0,97.231,0,145.846,0c21.934,0,43.866,0,65.799,0c6.448,0,6.448-10,0-10
				c-48.615,0-97.231,0-145.847,0c-21.933,0-43.866,0-65.798,0C68.739,96.167,68.739,106.167,75.188,106.167L75.188,106.167z"/>
		</g>
	</g>
	<g>
		<g>
			<path style="fill:#FFFFFF;" d="M74.833,265.167c48.616,0,97.231,0,145.847,0c21.934,0,43.866,0,65.799,0c6.448,0,6.448-10,0-10
				c-48.615,0-97.231,0-145.847,0c-21.933,0-43.866,0-65.798,0C68.384,255.167,68.384,265.167,74.833,265.167L74.833,265.167z"/>
		</g>
	</g>
</g>
<g id="Ebene_1">
</g>
</svg>
