<?xml version="1.0" encoding="iso-8859-1"?>
<!-- Generator: Adobe Illustrator 16.0.0, SVG Export Plug-In . SVG Version: 6.00 Build 0)  -->
<!DOCTYPE svg PUBLIC "-//W3C//DTD SVG 1.1//EN" "http://www.w3.org/Graphics/SVG/1.1/DTD/svg11.dtd">
<svg version="1.1" xmlns="http://www.w3.org/2000/svg" xmlns:xlink="http://www.w3.org/1999/xlink" x="0px" y="0px" width="361px"
	 height="361px" viewBox="0 0 361 361" style="enable-background:new 0 0 361 361;" xml:space="preserve">
<g id="sani_x5F_valve_x5F_60">
	<g id="Abluft_14_" style="display:none;">
		<g style="display:inline;">
			<g>
				<path style="fill:#FFFFFF;" d="M90.131,268.935c0.141-0.066,0.282-0.133,0.422-0.198c1.179-0.488,2.357-0.977,3.536-1.465
					c-6.018,0-12.036,0-18.053,0c1.179,0.488,2.357,0.977,3.536,1.465c0.767,0.665,0.424-1.665,0.424-2.077c0-2.507,0-5.013,0-7.52
					c0-7.579,0-15.157,0-22.736s0-15.157,0-22.736c0-2.369,0-4.738,0-7.107c0-0.437,0.345-3.153-0.424-2.487
					c-1.179,0.488-2.357,0.977-3.536,1.465c6.018,0,12.036,0,18.053,0c-1.179-0.488-2.357-0.977-3.536-1.465
					c-0.767-0.663-0.422,1.659-0.422,2.075c0,2.265,0,4.529,0,6.794c0,7.488,0,14.978,0,22.466
					C90.131,246.583,90.131,257.759,90.131,268.935c0,6.448,10,6.448,10,0c0-11.176,0-22.352,0-33.527c0-7.488,0-14.978,0-22.466
					c0-3.59,0.782-8.555-0.321-12.082c-2.383-7.625-12.185-5.322-18.511-5.322c-2.303,0-5.692-0.544-7.787,0.683
					c-2.972,1.741-3.517,5.187-3.517,8.354c0,12.917,0,25.835,0,38.753c0,6.194,0,12.39,0,18.584c0,2.992-0.592,7.108,0.321,10.037
					c2.209,7.083,9.781,5.323,15.712,5.323c2.599,0,5.199,0,7.798,0c4.756,0,5.979-4.474,6.305-8.337
					C100.674,262.506,90.67,262.558,90.131,268.935z"/>
			</g>
		</g>
		<g style="display:inline;">
			<g>
				<path style="fill:#FFFFFF;" d="M93.053,190.655c22.023,16.833,44.047,33.665,66.071,50.498c0-2.878,0-5.757,0-8.635
					c-22.024,16.833-44.048,33.665-66.071,50.498c2.508,1.439,5.016,2.878,7.523,4.317c0-33.665,0-67.331,0-100.996
					c0-6.449-10-6.449-10,0c0,33.665,0,67.331,0,100.996c0,3.436,4.397,6.707,7.523,4.317
					c22.024-16.833,44.048-33.665,66.071-50.498c3.178-2.429,3.178-6.206,0-8.635c-22.023-16.833-44.047-33.665-66.071-50.498
					C92.974,178.103,88.003,186.796,93.053,190.655z"/>
			</g>
		</g>
	</g>
	<g>
		<g>
			<path style="fill:#FFFFFF;" d="M228.437,134.526c-12.886,9.362-25.772,18.724-38.658,28.086c0.899-0.118,1.798-0.235,2.697-0.353
				c-7.255-1.784-17.684-4.552-24.363-0.32c-4.026,2.551-5.25,6.865-5.944,11.247c-0.661,4.174-1.536,8.37-1.846,12.589
				c0.578-1.008,1.156-2.015,1.733-3.022c-8.242,5.988-16.484,11.977-24.726,17.966c-6.436,4.676-23.942,13.154-16.542,23.345
				c7.788,10.726,19.975-2.326,26.976-7.413c8.423-6.12,16.847-12.239,25.27-18.359c-0.899,0.117-1.798,0.235-2.697,0.353
				c7.226,1.529,17.04,4.327,23.675,0.124c6.821-4.32,6.978-15.902,7.762-23.119c-0.578,1.007-1.155,2.015-1.733,3.022
				c9.945-7.227,19.892-14.454,29.837-21.681c3.604-2.619,7.529-5.054,10.82-8.073c3.442-3.158,2.648-8.548,0.196-11.92
				C237.86,132.825,232.811,132.057,228.437,134.526c-3.93,2.218-0.403,8.266,3.533,6.044c2.344-1.323,5.744,2.113,3.467,3.768
				c-0.406,0.295-0.812,0.589-1.217,0.884c-2.176,1.581-4.351,3.161-6.525,4.742c-6.375,4.632-12.749,9.264-19.124,13.896
				c-3.992,2.901-7.984,5.802-11.978,8.703c-1.997,1.452-1.868,3.49-2.222,5.723c-0.532,3.362-1.064,6.724-1.597,10.086
				c-1.432,9.046-13.576,4.669-19.461,3.737c-4.308-0.682-6.924,2.396-10.283,4.837c-10.829,7.868-21.657,15.735-32.486,23.603
				c-2.551,1.854-6.487-1.577-3.876-3.474c1.54-1.119,3.08-2.238,4.621-3.356c6.114-4.442,12.228-8.885,18.342-13.327
				c4.983-3.62,9.966-7.241,14.949-10.861c4.006-2.91,3.606-9.851,4.34-14.484c0.664-4.188,1.722-8.212,6.882-8.443
				c3.114-0.139,6.647,0.985,9.713,1.472c2.003,0.317,6.129,1.793,7.819,0.565c1.265-0.918,2.529-1.837,3.794-2.756
				c11.172-8.117,22.344-16.233,33.516-24.35c0.442-0.321,0.884-0.642,1.326-0.963C235.583,137.945,232.096,131.867,228.437,134.526
				z"/>
		</g>
	</g>
	<g>
		<g>
			<path style="fill:#FFFFFF;" d="M75.188,106.167c48.616,0,97.231,0,145.846,0c21.934,0,43.866,0,65.799,0c6.448,0,6.448-10,0-10
				c-48.615,0-97.231,0-145.847,0c-21.933,0-43.866,0-65.798,0C68.739,96.167,68.739,106.167,75.188,106.167L75.188,106.167z"/>
		</g>
	</g>
	<g>
		<g>
			<path style="fill:#FFFFFF;" d="M74.833,265.167c48.616,0,97.231,0,145.847,0c21.934,0,43.866,0,65.799,0c6.448,0,6.448-10,0-10
				c-48.615,0-97.231,0-145.847,0c-21.933,0-43.866,0-65.798,0C68.384,255.167,68.384,265.167,74.833,265.167L74.833,265.167z"/>
		</g>
	</g>
</g>
<g id="Ebene_1">
</g>
</svg>
