<?xml version="1.0" encoding="iso-8859-1"?>
<!-- Generator: Adobe Illustrator 16.0.0, SVG Export Plug-In . SVG Version: 6.00 Build 0)  -->
<!DOCTYPE svg PUBLIC "-//W3C//DTD SVG 1.1//EN" "http://www.w3.org/Graphics/SVG/1.1/DTD/svg11.dtd">
<svg version="1.1" xmlns="http://www.w3.org/2000/svg" xmlns:xlink="http://www.w3.org/1999/xlink" x="0px" y="0px" width="361px"
	 height="361px" viewBox="0 0 361 361" style="enable-background:new 0 0 361 361;" xml:space="preserve">
<g id="sani_x5F_valve_x5F_70">
	<g id="Abluft_15_" style="display:none;">
		<g style="display:inline;">
			<g>
				<path style="fill:#FFFFFF;" d="M90.131,268.935c0.141-0.066,0.282-0.133,0.422-0.198c1.179-0.488,2.357-0.977,3.536-1.465
					c-6.018,0-12.036,0-18.053,0c1.179,0.488,2.357,0.977,3.536,1.465c0.767,0.665,0.424-1.665,0.424-2.077c0-2.507,0-5.013,0-7.52
					c0-7.579,0-15.157,0-22.736s0-15.157,0-22.736c0-2.369,0-4.738,0-7.107c0-0.437,0.345-3.153-0.424-2.487
					c-1.179,0.488-2.357,0.977-3.536,1.465c6.018,0,12.036,0,18.053,0c-1.179-0.488-2.357-0.977-3.536-1.465
					c-0.767-0.663-0.422,1.659-0.422,2.075c0,2.265,0,4.529,0,6.794c0,7.488,0,14.978,0,22.466
					C90.131,246.583,90.131,257.759,90.131,268.935c0,6.448,10,6.448,10,0c0-11.176,0-22.352,0-33.527c0-7.488,0-14.978,0-22.466
					c0-3.59,0.782-8.555-0.321-12.082c-2.383-7.625-12.185-5.322-18.511-5.322c-2.303,0-5.692-0.544-7.787,0.683
					c-2.972,1.741-3.517,5.187-3.517,8.354c0,12.917,0,25.835,0,38.753c0,6.194,0,12.39,0,18.584c0,2.992-0.592,7.108,0.321,10.037
					c2.209,7.083,9.781,5.323,15.712,5.323c2.599,0,5.199,0,7.798,0c4.756,0,5.979-4.474,6.305-8.337
					C100.674,262.506,90.67,262.558,90.131,268.935z"/>
			</g>
		</g>
		<g style="display:inline;">
			<g>
				<path style="fill:#FFFFFF;" d="M93.053,190.655c22.023,16.833,44.047,33.665,66.071,50.498c0-2.878,0-5.757,0-8.635
					c-22.024,16.833-44.048,33.665-66.071,50.498c2.508,1.439,5.016,2.878,7.523,4.317c0-33.665,0-67.331,0-100.996
					c0-6.449-10-6.449-10,0c0,33.665,0,67.331,0,100.996c0,3.436,4.397,6.707,7.523,4.317
					c22.024-16.833,44.048-33.665,66.071-50.498c3.178-2.429,3.178-6.206,0-8.635c-22.023-16.833-44.047-33.665-66.071-50.498
					C92.974,178.103,88.003,186.796,93.053,190.655z"/>
			</g>
		</g>
	</g>
	<g>
		<g>
			<path style="fill:#FFFFFF;" d="M234.589,142.756c-14.192,7.23-28.385,14.461-42.577,21.691c0.899-0.118,1.798-0.235,2.697-0.353
				c-5.505-2.314-12.601-5.329-18.639-5.206c-9.355,0.19-11.796,9.261-14.131,16.447c-0.494,1.519-0.987,3.038-1.48,4.557
				c-0.493,1.517,0.85,0.199,0.81,0.219c-1.696,0.864-3.393,1.729-5.089,2.593c-6.733,3.432-13.467,6.863-20.201,10.294
				c-5.488,2.797-10.976,5.593-16.464,8.39c-6.62,3.373-7.533,11.217-2.137,16.302c4.591,4.327,10.157,0.985,14.666-1.312
				c6.58-3.353,13.16-6.706,19.74-10.059c6.366-3.243,12.732-6.487,19.099-9.73c-0.899,0.117-1.798,0.235-2.697,0.353
				c4.205,1.613,8.589,2.831,12.873,4.223c7.38,2.396,14.157-1.703,16.913-8.575c1.619-4.039,2.717-8.364,4.062-12.504
				c-0.355,1.092-2.138,1.722-0.83,1.056c0.54-0.275,1.081-0.551,1.621-0.826c1.903-0.97,3.807-1.94,5.711-2.91
				c10.486-5.344,20.973-10.688,31.459-16.031c3.684-1.877,6.691-3.385,8.095-7.702c2.395-7.364-6.162-13.692-12.662-11.268
				c-4.189,1.563-2.377,8.331,1.861,6.75c4.269-1.592,4.751,3.333,1.666,4.906c-2.267,1.155-4.533,2.31-6.8,3.465
				c-6.981,3.558-13.964,7.116-20.945,10.674c-4.635,2.362-9.27,4.724-13.904,7.085c-1.79,0.912-2.088,3.146-2.656,4.895
				c-1.104,3.4-2.209,6.8-3.313,10.201c-2.72,8.376-14.401,2.092-19.811,0.336c-3.926-1.275-7.158,1.351-10.639,3.125
				c-12.066,6.147-24.131,12.295-36.197,18.442c-2.611,1.331-5.977-2.64-2.656-4.331c1.538-0.784,3.076-1.567,4.614-2.351
				c6.64-3.384,13.279-6.767,19.919-10.15c5.67-2.89,11.341-5.779,17.012-8.669c4.214-2.147,4.929-9.014,6.304-13.248
				c1.277-3.93,2.479-7.569,7.462-7.67c3.043-0.062,6.925,2.062,9.738,2.977c2.343,0.761,6.148,2.833,8.466,1.652
				c1.221-0.622,2.441-1.244,3.663-1.866c12.361-6.298,24.723-12.596,37.085-18.894c0.609-0.311,1.219-0.621,1.829-0.932
				C242.146,146.75,238.602,140.711,234.589,142.756z"/>
		</g>
	</g>
	<g>
		<g>
			<path style="fill:#FFFFFF;" d="M75.188,106.167c48.616,0,97.231,0,145.846,0c21.934,0,43.866,0,65.799,0c6.448,0,6.448-10,0-10
				c-48.615,0-97.231,0-145.847,0c-21.933,0-43.866,0-65.798,0C68.739,96.167,68.739,106.167,75.188,106.167L75.188,106.167z"/>
		</g>
	</g>
	<g>
		<g>
			<path style="fill:#FFFFFF;" d="M74.833,265.167c48.616,0,97.231,0,145.847,0c21.934,0,43.866,0,65.799,0c6.448,0,6.448-10,0-10
				c-48.615,0-97.231,0-145.847,0c-21.933,0-43.866,0-65.798,0C68.384,255.167,68.384,265.167,74.833,265.167L74.833,265.167z"/>
		</g>
	</g>
</g>
<g id="Ebene_1">
</g>
</svg>
