<?xml version="1.0" encoding="iso-8859-1"?>
<!-- Generator: Adobe Illustrator 16.0.0, SVG Export Plug-In . SVG Version: 6.00 Build 0)  -->
<!DOCTYPE svg PUBLIC "-//W3C//DTD SVG 1.1//EN" "http://www.w3.org/Graphics/SVG/1.1/DTD/svg11.dtd">
<svg version="1.1" xmlns="http://www.w3.org/2000/svg" xmlns:xlink="http://www.w3.org/1999/xlink" x="0px" y="0px" width="361px"
	 height="361px" viewBox="0 0 361 361" style="enable-background:new 0 0 361 361;" xml:space="preserve">
<g id="sani_x5F_valve_x5F_90">
	<g id="Abluft_17_" style="display:none;">
		<g style="display:inline;">
			<g>
				<path style="fill:#FFFFFF;" d="M90.131,268.935c0.141-0.066,0.282-0.133,0.422-0.198c1.179-0.488,2.357-0.977,3.536-1.465
					c-6.018,0-12.036,0-18.053,0c1.179,0.488,2.357,0.977,3.536,1.465c0.767,0.665,0.424-1.665,0.424-2.077c0-2.507,0-5.013,0-7.52
					c0-7.579,0-15.157,0-22.736s0-15.157,0-22.736c0-2.369,0-4.738,0-7.107c0-0.437,0.345-3.153-0.424-2.487
					c-1.179,0.488-2.357,0.977-3.536,1.465c6.018,0,12.036,0,18.053,0c-1.179-0.488-2.357-0.977-3.536-1.465
					c-0.767-0.663-0.422,1.659-0.422,2.075c0,2.265,0,4.529,0,6.794c0,7.488,0,14.978,0,22.466
					C90.131,246.583,90.131,257.759,90.131,268.935c0,6.448,10,6.448,10,0c0-11.176,0-22.352,0-33.527c0-7.488,0-14.978,0-22.466
					c0-3.59,0.782-8.555-0.321-12.082c-2.383-7.625-12.185-5.322-18.511-5.322c-2.303,0-5.692-0.544-7.787,0.683
					c-2.972,1.741-3.517,5.187-3.517,8.354c0,12.917,0,25.835,0,38.753c0,6.194,0,12.39,0,18.584c0,2.992-0.592,7.108,0.321,10.037
					c2.209,7.083,9.781,5.323,15.712,5.323c2.599,0,5.199,0,7.798,0c4.756,0,5.979-4.474,6.305-8.337
					C100.674,262.506,90.67,262.558,90.131,268.935z"/>
			</g>
		</g>
		<g style="display:inline;">
			<g>
				<path style="fill:#FFFFFF;" d="M93.053,190.655c22.023,16.833,44.047,33.665,66.071,50.498c0-2.878,0-5.757,0-8.635
					c-22.024,16.833-44.048,33.665-66.071,50.498c2.508,1.439,5.016,2.878,7.523,4.317c0-33.665,0-67.331,0-100.996
					c0-6.449-10-6.449-10,0c0,33.665,0,67.331,0,100.996c0,3.436,4.397,6.707,7.523,4.317
					c22.024-16.833,44.048-33.665,66.071-50.498c3.178-2.429,3.178-6.206,0-8.635c-22.023-16.833-44.047-33.665-66.071-50.498
					C92.974,178.103,88.003,186.796,93.053,190.655z"/>
			</g>
		</g>
	</g>
	<g>
		<g>
			<path style="fill:#FFFFFF;" d="M243.521,161.221c-15.731,2.491-31.463,4.982-47.195,7.473c1.136,0.3,2.271,0.6,3.405,0.9
				c-2.258-1.95-4.736-3.628-7.149-5.381c-2.55-1.853-5.367-4.523-8.45-5.456c-9.339-2.826-14.281,3.674-19.11,10.32
				c-1.02,1.404-2.04,2.808-3.06,4.211c-0.908,1.25-1.154,1.031,0.414,0.783c-1.705,0.27-3.41,0.54-5.114,0.81
				c-7.36,1.166-14.72,2.332-22.08,3.498c-6.286,0.996-12.572,1.991-18.858,2.986c-6.459,1.023-11.253,7.539-7.74,13.959
				c3.271,5.978,8.82,5.121,14.414,4.235c7.175-1.137,14.35-2.273,21.525-3.41c7.381-1.169,14.762-2.338,22.144-3.507
				c-1.135-0.3-2.271-0.601-3.406-0.9c8.348,6.738,21.361,17.684,30.321,5.35c2.575-3.545,5.15-7.091,7.726-10.636
				c-0.78,1.073-2.426,1.085-1.03,0.863c0.599-0.095,1.198-0.189,1.797-0.284c2.11-0.335,4.22-0.669,6.33-1.003
				c11.624-1.842,23.248-3.684,34.872-5.525c4.148-0.657,7.286-1.213,9.995-4.94c4.614-6.349-2.062-14.76-8.818-14.47
				c-4.496,0.193-4.516,7.194,0,7c3.057-0.131,4.507,4.465,0.93,5.032c-0.401,0.063-0.802,0.127-1.203,0.19
				c-2.513,0.398-5.025,0.796-7.537,1.194c-7.739,1.226-15.479,2.452-23.219,3.679c-5.138,0.814-10.275,1.628-15.412,2.442
				c-1.888,0.299-2.92,2.524-3.956,3.951c-2.101,2.892-4.201,5.784-6.302,8.676c-5.068,6.978-14.575-2.844-19.007-6.063
				c-3.164-2.298-7.351-0.765-11.107-0.17c-13.375,2.119-26.75,4.237-40.125,6.355c-3.008,0.477-4.451-4.456-0.818-5.031
				c1.705-0.271,3.41-0.54,5.114-0.811c7.36-1.165,14.72-2.331,22.08-3.497c6.286-0.995,12.572-1.991,18.858-2.986
				c4.538-0.719,7.467-7.275,10.005-10.769c2.426-3.339,5.151-6.739,9.858-4.6c2.861,1.3,5.494,3.882,8.012,5.712
				c2.137,1.552,4.786,4.483,7.564,4.043c1.354-0.214,2.706-0.429,4.06-0.643c13.703-2.169,27.405-4.339,41.107-6.508
				c0.676-0.107,1.353-0.214,2.028-0.321C249.83,167.266,247.936,160.522,243.521,161.221z"/>
		</g>
	</g>
	<g>
		<g>
			<path style="fill:#FFFFFF;" d="M75.188,106.167c48.616,0,97.231,0,145.846,0c21.934,0,43.866,0,65.799,0c6.448,0,6.448-10,0-10
				c-48.615,0-97.231,0-145.847,0c-21.933,0-43.866,0-65.798,0C68.739,96.167,68.739,106.167,75.188,106.167L75.188,106.167z"/>
		</g>
	</g>
	<g>
		<g>
			<path style="fill:#FFFFFF;" d="M74.833,265.167c48.616,0,97.231,0,145.847,0c21.934,0,43.866,0,65.799,0c6.448,0,6.448-10,0-10
				c-48.615,0-97.231,0-145.847,0c-21.933,0-43.866,0-65.798,0C68.384,255.167,68.384,265.167,74.833,265.167L74.833,265.167z"/>
		</g>
	</g>
</g>
<g id="Ebene_1">
</g>
</svg>
