<?xml version="1.0" encoding="iso-8859-1"?>
<!-- Generator: Adobe Illustrator 16.0.0, SVG Export Plug-In . SVG Version: 6.00 Build 0)  -->
<!DOCTYPE svg PUBLIC "-//W3C//DTD SVG 1.1//EN" "http://www.w3.org/Graphics/SVG/1.1/DTD/svg11.dtd">
<svg version="1.1" xmlns="http://www.w3.org/2000/svg" xmlns:xlink="http://www.w3.org/1999/xlink" x="0px" y="0px" width="361px"
	 height="361px" viewBox="0 0 361 361" style="enable-background:new 0 0 361 361;" xml:space="preserve">
<g id="sani_x5F_valve_x5F_80">
	<g id="Abluft_16_" style="display:none;">
		<g style="display:inline;">
			<g>
				<path style="fill:#FFFFFF;" d="M90.131,268.935c0.141-0.066,0.282-0.133,0.422-0.198c1.179-0.488,2.357-0.977,3.536-1.465
					c-6.018,0-12.036,0-18.053,0c1.179,0.488,2.357,0.977,3.536,1.465c0.767,0.665,0.424-1.665,0.424-2.077c0-2.507,0-5.013,0-7.52
					c0-7.579,0-15.157,0-22.736s0-15.157,0-22.736c0-2.369,0-4.738,0-7.107c0-0.437,0.345-3.153-0.424-2.487
					c-1.179,0.488-2.357,0.977-3.536,1.465c6.018,0,12.036,0,18.053,0c-1.179-0.488-2.357-0.977-3.536-1.465
					c-0.767-0.663-0.422,1.659-0.422,2.075c0,2.265,0,4.529,0,6.794c0,7.488,0,14.978,0,22.466
					C90.131,246.583,90.131,257.759,90.131,268.935c0,6.448,10,6.448,10,0c0-11.176,0-22.352,0-33.527c0-7.488,0-14.978,0-22.466
					c0-3.59,0.782-8.555-0.321-12.082c-2.383-7.625-12.185-5.322-18.511-5.322c-2.303,0-5.692-0.544-7.787,0.683
					c-2.972,1.741-3.517,5.187-3.517,8.354c0,12.917,0,25.835,0,38.753c0,6.194,0,12.39,0,18.584c0,2.992-0.592,7.108,0.321,10.037
					c2.209,7.083,9.781,5.323,15.712,5.323c2.599,0,5.199,0,7.798,0c4.756,0,5.979-4.474,6.305-8.337
					C100.674,262.506,90.67,262.558,90.131,268.935z"/>
			</g>
		</g>
		<g style="display:inline;">
			<g>
				<path style="fill:#FFFFFF;" d="M93.053,190.655c22.023,16.833,44.047,33.665,66.071,50.498c0-2.878,0-5.757,0-8.635
					c-22.024,16.833-44.048,33.665-66.071,50.498c2.508,1.439,5.016,2.878,7.523,4.317c0-33.665,0-67.331,0-100.996
					c0-6.449-10-6.449-10,0c0,33.665,0,67.331,0,100.996c0,3.436,4.397,6.707,7.523,4.317
					c22.024-16.833,44.048-33.665,66.071-50.498c3.178-2.429,3.178-6.206,0-8.635c-22.023-16.833-44.047-33.665-66.071-50.498
					C92.974,178.103,88.003,186.796,93.053,190.655z"/>
			</g>
		</g>
	</g>
	<g>
		<g>
			<path style="fill:#FFFFFF;" d="M240.213,151.494c-15.148,4.921-30.297,9.842-45.446,14.764c0.899,0.118,1.798,0.235,2.697,0.353
				c-6.45-4.005-15.315-9.679-23.094-7.688c-7.775,1.991-11.908,13.684-14.636,20.368c0.815-0.814,1.63-1.629,2.444-2.444
				c-9.689,3.148-19.378,6.296-29.067,9.445c-7.738,2.515-26.672,5.061-22.717,17.23c4.042,12.437,20.049,3.667,28.084,1.056
				c9.903-3.217,19.805-6.435,29.708-9.651c-0.899-0.117-1.798-0.235-2.697-0.353c8.861,5.093,23.622,13.865,30.297,0.759
				c1.129-2.216,2.258-4.433,3.386-6.648c0.64-1.254,1.278-2.509,1.917-3.764c0.862-1.691,1.008-1.014-1.13-0.319
				c3.06-0.994,6.118-1.987,9.178-2.981c11.117-3.613,22.234-7.226,33.353-10.839c3.692-1.2,8.08-2.473,9.194-6.798
				C253.602,156.539,247.853,149.945,240.213,151.494c-4.422,0.896-2.546,7.643,1.861,6.75c2.732-0.554,4.393,3.89,1.763,4.744
				c-0.477,0.155-0.953,0.31-1.43,0.464c-2.558,0.831-5.114,1.662-7.672,2.493c-7.493,2.435-14.987,4.87-22.48,7.306
				c-4.694,1.525-9.388,3.05-14.081,4.576c-2.158,0.701-2.851,3.015-3.797,4.873c-1.545,3.033-3.09,6.066-4.635,9.1
				c-4.068,7.987-14.572-0.095-19.726-2.721c-3.747-1.908-7.525,0.344-11.297,1.569c-12.73,4.136-25.46,8.271-38.19,12.407
				c-2.902,0.943-5.459-3.547-2.245-4.591c1.811-0.589,3.621-1.177,5.432-1.766c7.188-2.335,14.375-4.671,21.563-7.006
				c5.858-1.903,11.716-3.807,17.574-5.71c4.576-1.487,6.464-8.519,8.519-12.551c1.934-3.794,4.631-7.646,9.586-5.529
				c2.873,1.228,5.631,2.87,8.414,4.288c1.91,0.974,5.146,3.502,7.282,2.809c1.487-0.483,2.974-0.966,4.461-1.449
				c13.134-4.267,26.268-8.533,39.401-12.8c0.52-0.169,1.039-0.337,1.559-0.506C246.348,156.855,244.519,150.095,240.213,151.494z"
				/>
		</g>
	</g>
	<g>
		<g>
			<path style="fill:#FFFFFF;" d="M75.188,106.167c48.616,0,97.231,0,145.846,0c21.934,0,43.866,0,65.799,0c6.448,0,6.448-10,0-10
				c-48.615,0-97.231,0-145.847,0c-21.933,0-43.866,0-65.798,0C68.739,96.167,68.739,106.167,75.188,106.167L75.188,106.167z"/>
		</g>
	</g>
	<g>
		<g>
			<path style="fill:#FFFFFF;" d="M74.833,265.167c48.616,0,97.231,0,145.847,0c21.934,0,43.866,0,65.799,0c6.448,0,6.448-10,0-10
				c-48.615,0-97.231,0-145.847,0c-21.933,0-43.866,0-65.798,0C68.384,255.167,68.384,265.167,74.833,265.167L74.833,265.167z"/>
		</g>
	</g>
</g>
<g id="Ebene_1">
</g>
</svg>
