<?xml version="1.0" encoding="iso-8859-1"?>
<!-- Generator: Adobe Illustrator 16.0.0, SVG Export Plug-In . SVG Version: 6.00 Build 0)  -->
<!DOCTYPE svg PUBLIC "-//W3C//DTD SVG 1.1//EN" "http://www.w3.org/Graphics/SVG/1.1/DTD/svg11.dtd">
<svg version="1.1" xmlns="http://www.w3.org/2000/svg" xmlns:xlink="http://www.w3.org/1999/xlink" x="0px" y="0px" width="361px"
	 height="361px" viewBox="0 0 361 361" style="enable-background:new 0 0 361 361;" xml:space="preserve">
<g id="sani_x5F_valve_x5F_30">
	<g id="Abluft_11_" style="display:none;">
		<g style="display:inline;">
			<g>
				<path style="fill:#FFFFFF;" d="M90.131,268.935c0.141-0.066,0.282-0.133,0.422-0.198c1.179-0.488,2.357-0.977,3.536-1.465
					c-6.018,0-12.036,0-18.053,0c1.179,0.488,2.357,0.977,3.536,1.465c0.767,0.665,0.424-1.665,0.424-2.077c0-2.507,0-5.013,0-7.52
					c0-7.579,0-15.157,0-22.736s0-15.157,0-22.736c0-2.369,0-4.738,0-7.107c0-0.437,0.345-3.153-0.424-2.487
					c-1.179,0.488-2.357,0.977-3.536,1.465c6.018,0,12.036,0,18.053,0c-1.179-0.488-2.357-0.977-3.536-1.465
					c-0.767-0.663-0.422,1.659-0.422,2.075c0,2.265,0,4.529,0,6.794c0,7.488,0,14.978,0,22.466
					C90.131,246.583,90.131,257.759,90.131,268.935c0,6.448,10,6.448,10,0c0-11.176,0-22.352,0-33.527c0-7.488,0-14.978,0-22.466
					c0-3.59,0.782-8.555-0.321-12.082c-2.383-7.625-12.185-5.322-18.511-5.322c-2.303,0-5.692-0.544-7.787,0.683
					c-2.972,1.741-3.517,5.187-3.517,8.354c0,12.917,0,25.835,0,38.753c0,6.194,0,12.39,0,18.584c0,2.992-0.592,7.108,0.321,10.037
					c2.209,7.083,9.781,5.323,15.712,5.323c2.599,0,5.199,0,7.798,0c4.756,0,5.979-4.474,6.305-8.337
					C100.674,262.506,90.67,262.558,90.131,268.935z"/>
			</g>
		</g>
		<g style="display:inline;">
			<g>
				<path style="fill:#FFFFFF;" d="M93.053,190.655c22.023,16.833,44.047,33.665,66.071,50.498c0-2.878,0-5.757,0-8.635
					c-22.024,16.833-44.048,33.665-66.071,50.498c2.508,1.439,5.016,2.878,7.523,4.317c0-33.665,0-67.331,0-100.996
					c0-6.449-10-6.449-10,0c0,33.665,0,67.331,0,100.996c0,3.436,4.397,6.707,7.523,4.317
					c22.024-16.833,44.048-33.665,66.071-50.498c3.178-2.429,3.178-6.206,0-8.635c-22.023-16.833-44.047-33.665-66.071-50.498
					C92.974,178.103,88.003,186.796,93.053,190.655z"/>
			</g>
		</g>
	</g>
	<g>
		<g>
			<path style="fill:#FFFFFF;" d="M202.206,118.15c-7.039,13.816-14.079,27.631-21.119,41.447c-0.974,1.913-0.329-0.01-0.019-0.111
				c-1.742,0.566-3.484,1.132-5.226,1.698c-4.608,1.497-9.44,2.509-12.99,6.016c-6.961,6.877-1.409,19.239,1.75,26.755
				c0.118-0.899,0.235-1.798,0.353-2.697c-5.595,10.981-11.19,21.963-16.786,32.944c-2.035,3.993-4.392,7.947-5.958,12.157
				c-3.45,9.267,11.617,15.965,16.879,8.038c2.435-3.668,4.184-7.892,6.179-11.807c3.599-7.063,7.198-14.126,10.796-21.188
				c1.355-2.659,2.71-5.319,4.065-7.979c0.418-0.82,0.836-1.641,1.253-2.46c0.969-1.901,0.443-0.019-0.792,0.314
				c5.125-1.383,13.499-2.995,17.413-6.86c7.698-7.604,2.712-18.389-0.556-26.989c-0.117,0.899-0.235,1.798-0.353,2.697
				c5.58-10.954,11.161-21.908,16.742-32.862c2.03-3.986,4.379-7.932,5.945-12.132c1.64-4.398-1.753-8.773-5.408-10.636
				C209.728,112.126,204.946,114.023,202.206,118.15c-2.505,3.773,3.561,7.274,6.045,3.533c1.56-2.35,5.884-0.393,4.647,2.034
				c-0.228,0.447-0.455,0.893-0.683,1.34c-1.221,2.396-2.441,4.792-3.662,7.187c-3.577,7.021-7.153,14.042-10.73,21.062
				c-2.24,4.397-4.48,8.794-6.721,13.192c-1.051,2.063,0.092,4.188,0.75,6.212c1.052,3.237,2.104,6.475,3.155,9.712
				c2.754,8.476-10.46,10.217-15.925,11.993c-3.958,1.286-5.035,5.555-6.815,9.048c-6.077,11.926-12.153,23.853-18.23,35.778
				c-1.429,2.804-6.368,1.34-4.878-1.584c0.864-1.696,1.729-3.393,2.593-5.089c3.431-6.734,6.862-13.468,10.293-20.201
				c2.796-5.488,5.592-10.976,8.389-16.464c2.188-4.295-1.435-10.653-2.84-14.979c-1.324-4.075-2.096-8.642,2.924-10.655
				c2.899-1.163,6.009-1.952,8.98-2.917c1.997-0.648,6.073-1.157,7.071-3.116c0.71-1.393,1.42-2.786,2.13-4.179
				c6.27-12.305,12.539-24.609,18.809-36.913c0.248-0.487,0.496-0.973,0.744-1.46C210.295,117.671,204.256,114.127,202.206,118.15z"
				/>
		</g>
	</g>
	<g>
		<g>
			<path style="fill:#FFFFFF;" d="M75.188,106.167c48.616,0,97.231,0,145.846,0c21.934,0,43.866,0,65.799,0c6.448,0,6.448-10,0-10
				c-48.615,0-97.231,0-145.847,0c-21.933,0-43.866,0-65.798,0C68.739,96.167,68.739,106.167,75.188,106.167L75.188,106.167z"/>
		</g>
	</g>
	<g>
		<g>
			<path style="fill:#FFFFFF;" d="M74.833,265.167c48.616,0,97.231,0,145.847,0c21.934,0,43.866,0,65.799,0c6.448,0,6.448-10,0-10
				c-48.615,0-97.231,0-145.847,0c-21.933,0-43.866,0-65.798,0C68.384,255.167,68.384,265.167,74.833,265.167L74.833,265.167z"/>
		</g>
	</g>
</g>
<g id="Ebene_1">
</g>
</svg>
