<?xml version="1.0" encoding="iso-8859-1"?>
<!-- Generator: Adobe Illustrator 16.0.0, SVG Export Plug-In . SVG Version: 6.00 Build 0)  -->
<!DOCTYPE svg PUBLIC "-//W3C//DTD SVG 1.1//EN" "http://www.w3.org/Graphics/SVG/1.1/DTD/svg11.dtd">
<svg version="1.1" xmlns="http://www.w3.org/2000/svg" xmlns:xlink="http://www.w3.org/1999/xlink" x="0px" y="0px" width="361px"
	 height="361px" viewBox="0 0 361 361" style="enable-background:new 0 0 361 361;" xml:space="preserve">
<g id="sani_x5F_valve_x5F_10">
	<g id="Abluft_9_" style="display:none;">
		<g style="display:inline;">
			<g>
				<path style="fill:#FFFFFF;" d="M90.131,268.935c0.141-0.066,0.282-0.133,0.422-0.198c1.179-0.488,2.357-0.977,3.536-1.465
					c-6.018,0-12.036,0-18.053,0c1.179,0.488,2.357,0.977,3.536,1.465c0.767,0.665,0.424-1.665,0.424-2.077c0-2.507,0-5.013,0-7.52
					c0-7.579,0-15.157,0-22.736s0-15.157,0-22.736c0-2.369,0-4.738,0-7.107c0-0.437,0.345-3.153-0.424-2.487
					c-1.179,0.488-2.357,0.977-3.536,1.465c6.018,0,12.036,0,18.053,0c-1.179-0.488-2.357-0.977-3.536-1.465
					c-0.767-0.663-0.422,1.659-0.422,2.075c0,2.265,0,4.529,0,6.794c0,7.488,0,14.978,0,22.466
					C90.131,246.583,90.131,257.759,90.131,268.935c0,6.448,10,6.448,10,0c0-11.176,0-22.352,0-33.527c0-7.488,0-14.978,0-22.466
					c0-3.59,0.782-8.555-0.321-12.082c-2.383-7.625-12.185-5.322-18.511-5.322c-2.303,0-5.692-0.544-7.787,0.683
					c-2.972,1.741-3.517,5.187-3.517,8.354c0,12.917,0,25.835,0,38.753c0,6.194,0,12.39,0,18.584c0,2.992-0.592,7.108,0.321,10.037
					c2.209,7.083,9.781,5.323,15.712,5.323c2.599,0,5.199,0,7.798,0c4.756,0,5.979-4.474,6.305-8.337
					C100.674,262.506,90.67,262.558,90.131,268.935z"/>
			</g>
		</g>
		<g style="display:inline;">
			<g>
				<path style="fill:#FFFFFF;" d="M93.053,190.655c22.023,16.833,44.047,33.665,66.071,50.498c0-2.878,0-5.757,0-8.635
					c-22.024,16.833-44.048,33.665-66.071,50.498c2.508,1.439,5.016,2.878,7.523,4.317c0-33.665,0-67.331,0-100.996
					c0-6.449-10-6.449-10,0c0,33.665,0,67.331,0,100.996c0,3.436,4.397,6.707,7.523,4.317
					c22.024-16.833,44.048-33.665,66.071-50.498c3.178-2.429,3.178-6.206,0-8.635c-22.023-16.833-44.047-33.665-66.071-50.498
					C92.974,178.103,88.003,186.796,93.053,190.655z"/>
			</g>
		</g>
	</g>
	<g>
		<g>
			<path style="fill:#FFFFFF;" d="M181.874,114.439c-2.443,15.423-4.886,30.846-7.329,46.269c-0.312,1.972,0.601-0.691-0.106-0.178
				c-1.673,1.215-3.346,2.431-5.02,3.647c-3.765,2.735-8.444,5.306-10.118,9.916c-3.333,9.177,4.987,18.25,10.636,24.793
				c-0.3-1.135-0.6-2.27-0.9-3.405c-1.928,12.173-3.856,24.347-5.784,36.52c-0.7,4.42-1.769,8.947-1.958,13.43
				c-0.411,9.737,15.911,12.037,18.495,2.771c1.183-4.241,1.541-8.798,2.228-13.139c1.24-7.829,2.48-15.658,3.721-23.486
				c0.467-2.948,0.934-5.897,1.4-8.846c0.145-0.908,0.288-1.817,0.432-2.727c0.32-2.02,0.449-0.336-0.771,0.46
				c4.892-3.188,11.132-6.983,14.506-11.828c6.225-8.939-3.897-19.605-9.22-26.221c0.301,1.135,0.601,2.271,0.9,3.406
				c1.923-12.143,3.846-24.285,5.769-36.427c0.698-4.412,1.762-8.928,1.954-13.402c0.198-4.646-4.144-7.909-8.25-8.557
				C187.377,106.632,183.227,109.584,181.874,114.439c-1.213,4.357,5.541,6.204,6.75,1.861c0.72-2.584,5.58-2.655,5.139,0.13
				c-0.078,0.495-0.157,0.99-0.235,1.485c-0.421,2.656-0.841,5.312-1.262,7.967c-1.232,7.783-2.465,15.565-3.697,23.347
				c-0.771,4.875-1.543,9.749-2.315,14.623c-0.387,2.44,1.154,3.864,2.488,5.699c2,2.753,4.001,5.507,6.002,8.261
				c5.355,7.371-6.388,12.907-11.179,16.389c-3.489,2.535-3.16,6.576-3.802,10.627c-2.094,13.22-4.188,26.44-6.281,39.66
				c-0.495,3.121-5.722,3.542-5.22,0.37c0.298-1.881,0.596-3.761,0.894-5.642c1.182-7.464,2.365-14.929,3.547-22.393
				c0.963-6.084,1.927-12.167,2.891-18.251c0.782-4.939-4.397-9.554-7.185-13.391c-2.487-3.424-4.558-6.997-1.081-10.798
				c2.113-2.31,5.425-4.019,7.946-5.85c1.605-1.166,5.559-3.043,5.879-5.064c0.244-1.544,0.489-3.088,0.733-4.632
				c2.161-13.64,4.321-27.279,6.481-40.919c0.086-0.54,0.171-1.079,0.257-1.618C189.323,111.886,182.579,109.991,181.874,114.439z"
				/>
		</g>
	</g>
	<g>
		<g>
			<path style="fill:#FFFFFF;" d="M75.188,106.167c48.616,0,97.231,0,145.846,0c21.934,0,43.866,0,65.799,0c6.448,0,6.448-10,0-10
				c-48.615,0-97.231,0-145.847,0c-21.933,0-43.866,0-65.798,0C68.739,96.167,68.739,106.167,75.188,106.167L75.188,106.167z"/>
		</g>
	</g>
	<g>
		<g>
			<path style="fill:#FFFFFF;" d="M74.833,265.167c48.616,0,97.231,0,145.847,0c21.934,0,43.866,0,65.799,0c6.448,0,6.448-10,0-10
				c-48.615,0-97.231,0-145.847,0c-21.933,0-43.866,0-65.798,0C68.384,255.167,68.384,265.167,74.833,265.167L74.833,265.167z"/>
		</g>
	</g>
</g>
<g id="Ebene_1">
</g>
</svg>
