<svg width="81" height="81" xmlns="http://www.w3.org/2000/svg" fill="none">
    <path fill="white" d="m72.4422,71.04512c4.1406,-6.1396 6.5578,-13.5375 6.5578,-21.5c0,-21.263 -17.237,-38.5 -38.5,-38.5c-21.263,0 -38.5,17.237 -38.5,38.5c0,7.9625 2.4172,15.3604 6.55784,21.5l63.88436,0z" clip-rule="evenodd" fill-rule="evenodd"/>
    <path fill="#1D90CA" d="m69.6862,71.46702c4.5921,-6.1041 7.3138,-13.6952 7.3138,-21.9219c0,-20.1584 -16.3416,-36.5 -36.5,-36.5c-20.1584,0 -36.5,16.3416 -36.5,36.5c0,8.2267 2.72169,15.8178 7.3138,21.9219l-4.87372,0c-4.07519,-6.3186 -6.44008,-13.8441 -6.44008,-21.9219c0,-22.3675 18.1325,-40.5 40.5,-40.5c22.3675,0 40.5,18.1325 40.5,40.5c0,8.0778 -2.3649,15.6033 -6.4401,21.9219l-4.8737,0z" clip-rule="evenodd" fill-rule="evenodd"/>
    <line stroke-width="4" stroke="#1D90CA" y2="69.46702" x2="74.3114" y1="69.46702" x1="7.43066"/>
    <path stroke-linejoin="round" stroke-linecap="round" stroke-width="2" stroke="#1D90CA" d="m72.4657,46.21992c0.3408,4.8064 -0.5093,9.6171 -2.4748,14.0386c-0.2029,0.4565 -0.7396,0.6526 -1.1961,0.4495l0,0c-0.4762,-0.2117 -0.6818,-0.7747 -0.4719,-1.2518c1.819,-4.1347 2.6041,-8.6271 2.2859,-13.1156c-0.3406,-4.8034 -1.9338,-9.4478 -4.6328,-13.5049c-2.699,-4.0571 -6.4169,-7.3964 -10.811,-9.71c-4.394,-2.3136 -9.3228,-3.5271 -14.332,-3.5287c-5.0092,-0.0015 -9.9375,1.209 -14.3307,3.52c-4.3931,2.3109 -8.1097,5.648 -10.8071,9.7034c-2.6975,4.0555 -4.2889,8.6988 -4.6276,13.5021c-0.3165,4.4883 0.4704,8.9813 2.291,13.1171c0.21,0.4771 0.0044,1.0401 -0.472,1.2517l0,0c-0.4562,0.2026 -0.9923,0.0067 -1.1952,-0.4494c-1.96757,-4.423 -2.81974,-9.2346 -2.48079,-14.0413c0.35984,-5.1028 2.05049,-10.0358 4.91619,-14.3443c2.8657,-4.3084 6.8141,-7.8536 11.4813,-10.3087c4.6672,-2.4551 9.9029,-3.74108 15.2246,-3.73946c5.3216,0.00162 10.5578,1.29086 15.226,3.74876c4.6681,2.458 8.6179,6.0055 11.4853,10.3157c2.8673,4.3102 4.5599,9.2442 4.9217,14.3473z"/>
    <path stroke-width="3" stroke="#1D90CA" d="m43.78674,54.40722c1.0961,1.3019 1.2642,2.3717 1.0936,3.2235c-0.1852,0.9248 -0.8283,1.8766 -1.8633,2.7479c-1.0331,0.8698 -1.9131,1.2028 -2.666,1.1644c-0.7261,-0.0371 -1.6893,-0.4393 -2.8628,-1.8332c-0.58,-0.6889 -1.7667,-2.5051 -3.297,-5.0108c-1.503,-2.461 -3.2725,-5.4778 -4.9939,-8.4758c-1.5201,-2.6476 -2.9847,-5.2494 -4.19,-7.4294c2.0117,1.5342 4.388,3.3947 6.7731,5.3042c2.704,2.1648 5.4107,4.3857 7.6038,6.2594c2.2357,1.91 3.8296,3.3693 4.4025,4.0498z"/>
    <path fill="#1D90CA" d="m20.85434,34.05212l6.6356,4.6968l-1.3608,1.264l-1.4697,1.381l-3.8051,-7.3418z"/>
</svg>