<svg version="1.1" xmlns="http://www.w3.org/2000/svg" viewBox="0 0 512.001 512.001">
    <path style="fill:#C3DA40;" d="M119.945,168.136H21.103c-4.295,0-7.777-3.482-7.777-7.777v-21.819
	c0-31.59,25.609-57.199,57.199-57.199l0,0c31.59,0,57.199,25.609,57.199,57.199v21.819
	C127.722,164.655,124.241,168.136,119.945,168.136z"/>
    <path style="fill:#FF62A7;" d="M177.958,361.806c-11.081-7.316-18.199-15.702-21.159-24.927
	c-18.65-7.919-30.689-26.451-30.689-47.277c0-28.185,22.211-51.116,49.514-51.116h63.016c27.302,0,49.514,22.931,49.514,51.116
	c0,28.185-22.211,51.115-49.514,51.115h-48.866c-0.42,4.218-0.25,8.609,0.505,13.059l2.265,13.358
	c0.312,1.84-1.721,3.165-3.278,2.137L177.958,361.806z"/>
    <path style="fill:#FC5479;" d="M288.153,289.603c0-28.185-22.211-51.116-49.514-51.116h-63.016c-7.107,0-13.862,1.566-19.977,4.362
	c2.631,42.316,38.577,75.37,81.421,75.37h42.579C285.014,310.048,288.153,300.196,288.153,289.603z"/>
    <path style="fill:#31D2F7;" d="M307.875,325.385c1.577-6.789,2.037-13.453,1.371-19.813h-61.181
	c-34.405,0-63.116-27.321-63.64-61.723c-0.534-35.014,27.794-63.669,62.688-63.669h79.088c34.478,0,63.165,27.467,63.569,61.943
	c0.304,25.874-15.031,48.972-38.916,58.768c-5.142,15.57-19.769,26.67-31.163,33.25l-11.738,6.778
	c-1.616,0.934-3.567-0.512-3.145-2.33L307.875,325.385z"/>
    <path style="fill:#13ACE8;" d="M235.669,260.88c-0.534-35.015,27.794-63.669,62.688-63.669h71.311
	c-11.428-10.57-26.762-17.031-43.468-17.031h-79.088c-34.894,0-63.222,28.655-62.688,63.669
	c0.525,34.401,29.235,61.723,63.64,61.723h7.73C243.676,294.378,235.94,278.571,235.669,260.88z"/>
    <path style="fill:#FFCF59;" d="M490.428,168.136h-98.842c-4.295,0-7.777-3.482-7.777-7.777v-21.819
	c0-31.59,25.609-57.199,57.199-57.199l0,0c31.59,0,57.199,25.609,57.199,57.199v21.819
	C498.205,164.655,494.723,168.136,490.428,168.136z"/>
    <path style="fill:#FF62A7;" d="M119.945,473.665H21.103c-4.295,0-7.777-3.482-7.777-7.778v-21.819
	c0-31.59,25.609-57.199,57.199-57.199l0,0c31.59,0,57.199,25.609,57.199,57.199v21.819
	C127.722,470.182,124.241,473.665,119.945,473.665z"/>
    <path style="fill:#31D2F7;" d="M490.428,473.665h-98.842c-4.295,0-7.777-3.482-7.777-7.778v-21.819
	c0-31.59,25.609-57.199,57.199-57.199l0,0c31.59,0,57.199,25.609,57.199,57.199v21.819
	C498.205,470.182,494.723,473.665,490.428,473.665z"/>
    <path style="fill:#ADBC15;" d="M57.279,160.359v-21.819c0-23.801,14.541-44.201,35.222-52.817
	c-6.767-2.819-14.189-4.382-21.977-4.382l0,0c-31.59,0-57.199,25.609-57.199,57.199v21.819c0,4.295,3.482,7.777,7.778,7.777h43.953
	C60.761,168.136,57.279,164.655,57.279,160.359z"/>
    <path style="fill:#FFB55C;" d="M427.761,160.359v-21.819c0-23.801,14.541-44.201,35.222-52.817
	c-6.767-2.819-14.189-4.382-21.977-4.382l0,0c-31.59,0-57.199,25.609-57.199,57.199v21.819c0,4.295,3.482,7.777,7.778,7.777h43.953
	C431.243,168.136,427.761,164.655,427.761,160.359z"/>
    <path style="fill:#FC5479;" d="M57.279,465.887v-21.819c0-23.801,14.541-44.202,35.222-52.817
	c-6.767-2.818-14.189-4.382-21.977-4.382l0,0c-31.59,0-57.199,25.609-57.199,57.199v21.819c0,4.295,3.482,7.778,7.778,7.778h43.953
	C60.761,473.665,57.279,470.182,57.279,465.887z"/>
    <path style="fill:#13ACE8;" d="M427.761,465.887v-21.819c0-23.801,14.541-44.202,35.222-52.817
	c-6.767-2.818-14.189-4.382-21.977-4.382l0,0c-31.59,0-57.199,25.609-57.199,57.199v21.819c0,4.295,3.482,7.778,7.778,7.778h43.953
	C431.243,473.665,427.761,470.182,427.761,465.887z"/>
    <path style="fill:#FAD393;" d="M70.03,113.905c-20.438,0-37.066-16.628-37.066-37.067S49.592,39.771,70.03,39.771
		c20.439,0,37.067,16.628,37.067,37.067S90.469,113.905,70.03,113.905z"/>
    <path style="fill:#FAD393;" d="M440.512,113.905c-20.438,0-37.066-16.628-37.066-37.067s16.628-37.067,37.066-37.067
		c20.439,0,37.067,16.628,37.067,37.067S460.951,113.905,440.512,113.905z"/>
    <path style="fill:#FAD393;" d="M70.03,419.434c-20.438,0-37.066-16.629-37.066-37.067s16.628-37.067,37.066-37.067
		c20.439,0,37.067,16.628,37.067,37.067S90.469,419.434,70.03,419.434z"/>
    <path style="fill:#FAD393;" d="M440.512,419.434c-20.438,0-37.066-16.629-37.066-37.067s16.628-37.067,37.066-37.067
		c20.439,0,37.067,16.628,37.067,37.067S460.951,419.434,440.512,419.434z"/>
    <path style="fill:#EDB769;" d="M67.97,76.839c0-14.112,7.928-26.404,19.563-32.664c-5.216-2.806-11.177-4.404-17.504-4.404
		c-20.438,0-37.066,16.628-37.066,37.067s16.628,37.067,37.066,37.067c6.327,0,12.287-1.597,17.504-4.404
		C75.898,103.243,67.97,90.951,67.97,76.839z"/>
    <path style="fill:#EDB769;" d="M438.453,76.839c0-14.112,7.928-26.404,19.563-32.664c-5.217-2.806-11.177-4.404-17.504-4.404
		c-20.438,0-37.066,16.628-37.066,37.067s16.628,37.067,37.066,37.067c6.327,0,12.287-1.597,17.504-4.404
		C446.382,103.243,438.453,90.951,438.453,76.839z"/>
    <path style="fill:#EDB769;" d="M67.97,382.368c0-14.112,7.928-26.404,19.563-32.664c-5.216-2.806-11.177-4.404-17.504-4.404
		c-20.438,0-37.066,16.628-37.066,37.067c0,20.439,16.628,37.067,37.066,37.067c6.327,0,12.287-1.597,17.504-4.404
		C75.898,408.771,67.97,396.479,67.97,382.368z"/>
    <path style="fill:#EDB769;" d="M438.453,382.368c0-14.112,7.928-26.404,19.563-32.664c-5.217-2.806-11.177-4.404-17.504-4.404
		c-20.438,0-37.066,16.628-37.066,37.067c0,20.439,16.628,37.067,37.066,37.067c6.327,0,12.287-1.597,17.504-4.404
		C446.382,408.771,438.453,396.479,438.453,382.368z"/>
    <path d="M131.87,50.172c1.42,0,2.858-0.364,4.174-1.127c7.999-4.643,16.351-8.859,24.823-12.533
	c4.221-1.831,6.159-6.735,4.328-10.956c-1.83-4.22-6.735-6.158-10.955-4.328c-9.065,3.931-18.001,8.442-26.559,13.409
	c-3.98,2.31-5.332,7.406-3.023,11.385C126.204,48.685,128.998,50.172,131.87,50.172z"/>
    <path d="M297.186,20.391c9.114,1.58,18.226,3.715,27.085,6.346c0.792,0.235,1.59,0.347,2.376,0.347c3.592,0,6.906-2.342,7.982-5.961
	c1.311-4.41-1.203-9.047-5.613-10.356c-9.481-2.815-19.231-5.101-28.983-6.791c-4.529-0.785-8.845,2.251-9.63,6.784
	C289.617,15.294,292.654,19.605,297.186,20.391z"/>
    <path d="M241.201,17.297c0.165,0,0.331-0.004,0.498-0.015c4.728-0.279,9.531-0.42,14.276-0.42c0.009,0,0.017,0,0.025,0
	c4.509,0,9.064,0.127,13.539,0.377c4.617,0.263,8.525-3.259,8.781-7.852c0.255-4.593-3.259-8.525-7.852-8.781
	c-4.783-0.267-9.651-0.403-14.466-0.403c-0.01,0-0.018,0-0.028,0c-5.069,0-10.202,0.15-15.254,0.449
	c-4.592,0.271-8.096,4.213-7.825,8.805C233.154,13.883,236.825,17.297,241.201,17.297z"/>
    <path d="M495.002,190.482c-4.475,1.066-7.238,5.559-6.172,10.034c2.141,8.985,3.774,18.202,4.857,27.395
	c0.499,4.238,4.097,7.357,8.261,7.357c0.326,0,0.654-0.019,0.985-0.058c4.568-0.538,7.836-4.677,7.298-9.246
	c-1.157-9.834-2.905-19.695-5.195-29.308C503.968,192.179,499.478,189.413,495.002,190.482z"/>
    <path d="M480.976,338.065c-1.573,4.323,0.656,9.103,4.98,10.676c0.94,0.343,1.901,0.504,2.848,0.504
	c3.403,0,6.597-2.101,7.828-5.484c3.387-9.304,6.255-18.906,8.53-28.54c1.056-4.477-1.717-8.964-6.194-10.02
	c-4.471-1.055-8.964,1.714-10.021,6.194C486.821,320.398,484.14,329.371,480.976,338.065z"/>
    <path d="M350.441,36.215c8.491,3.65,16.862,7.845,24.884,12.467c1.312,0.755,2.74,1.114,4.152,1.114
	c2.881,0,5.683-1.497,7.224-4.172c2.297-3.986,0.929-9.079-3.058-11.376c-8.582-4.946-17.539-9.433-26.624-13.338
	c-4.229-1.822-9.126,0.136-10.942,4.363C344.261,29.499,346.215,34.397,350.441,36.215z"/>
    <path d="M13.084,305.461c-4.476,1.062-7.244,5.551-6.183,10.027c2.284,9.63,5.161,19.224,8.554,28.516
	c1.233,3.379,4.426,5.475,7.825,5.475c0.948,0,1.914-0.163,2.856-0.508c4.321-1.577,6.546-6.359,4.968-10.681
	c-3.169-8.682-5.859-17.646-7.993-26.645C22.049,307.168,17.569,304.4,13.084,305.461z"/>
    <path d="M184.595,27.312c0.794,0,1.602-0.114,2.402-0.355c8.847-2.659,17.953-4.824,27.064-6.434
	c4.531-0.801,7.555-5.122,6.754-9.652c-0.801-4.531-5.118-7.553-9.652-6.754c-9.749,1.722-19.493,4.039-28.963,6.885
	c-4.406,1.325-6.903,5.97-5.579,10.375C177.705,24.985,181.014,27.312,184.595,27.312z"/>
    <path d="M503.67,247.347c-4.601,0-8.329,3.729-8.329,8.329v0.527c0,9.278-0.537,18.627-1.595,27.788
	c-0.528,4.57,2.748,8.703,7.317,9.231c0.326,0.038,0.647,0.056,0.968,0.056c4.172,0,7.773-3.129,8.264-7.373
	c1.132-9.793,1.706-19.787,1.706-29.701v-0.527C511.999,251.076,508.27,247.347,503.67,247.347z"/>
    <path d="M297.687,491.927c-9.087,1.595-18.387,2.676-27.642,3.211c-4.592,0.266-8.1,4.204-7.834,8.796
	c0.255,4.429,3.928,7.848,8.308,7.848c0.161,0,0.326-0.004,0.489-0.014c9.894-0.572,19.841-1.727,29.56-3.435
	c4.531-0.796,7.56-5.113,6.763-9.645C306.537,494.159,302.216,491.13,297.687,491.927z"/>
    <path d="M242.205,495.153c-9.256-0.526-18.556-1.597-27.642-3.182c-4.54-0.793-8.847,2.242-9.639,6.773
	c-0.791,4.532,2.242,8.847,6.773,9.638c9.72,1.696,19.666,2.842,29.564,3.404c0.16,0.009,0.32,0.013,0.48,0.013
	c4.384,0,8.058-3.426,8.309-7.857C250.31,499.348,246.798,495.414,242.205,495.153z"/>
    <path d="M187.484,485.595c-8.86-2.642-17.661-5.84-26.159-9.505c-4.223-1.82-9.126,0.126-10.946,4.351
	c-1.823,4.224,0.126,9.125,4.35,10.946c9.095,3.921,18.513,7.342,27.995,10.17c0.794,0.237,1.595,0.35,2.384,0.35
	c3.588,0,6.901-2.338,7.98-5.951C194.401,491.549,191.893,486.91,187.484,485.595z"/>
    <path d="M9.002,235.996c0.323,0.037,0.642,0.055,0.959,0.055c4.176,0,7.779-3.134,8.264-7.382c1.053-9.197,2.657-18.419,4.769-27.41
	c1.051-4.479-1.726-8.962-6.205-10.014c-4.478-1.055-8.963,1.725-10.015,6.205c-2.258,9.619-3.975,19.485-5.101,29.323
	C1.149,231.344,4.431,235.473,9.002,235.996z"/>
    <path d="M350.898,475.996c-8.492,3.671-17.286,6.876-26.138,9.527c-4.407,1.32-6.909,5.962-5.59,10.369
	c1.08,3.611,4.392,5.943,7.977,5.943c0.791,0,1.595-0.114,2.393-0.352c9.474-2.837,18.884-6.267,27.971-10.196
	c4.222-1.826,6.166-6.729,4.339-10.951C360.024,476.113,355.123,474.17,350.898,475.996z"/>
    <path d="M10.974,293.483c4.57-0.533,7.841-4.669,7.308-9.239c-1.068-9.159-1.614-18.508-1.623-27.787
	c-0.004-4.598-3.733-8.321-8.329-8.321c-0.002,0-0.005,0-0.009,0c-4.6,0.005-8.325,3.737-8.321,8.338
	c0.01,9.915,0.594,19.908,1.736,29.7c0.495,4.242,4.094,7.365,8.262,7.365C10.32,293.539,10.647,293.521,10.974,293.483z"/>
    <path d="M22.405,174.78h96.238c9.762,0,17.704-7.942,17.704-17.704v-20.071c0-6.665-1.082-13.217-3.218-19.474
	c-1.341-3.928-5.618-6.025-9.539-4.685c-3.929,1.341-6.026,5.611-4.685,9.54c1.601,4.69,2.412,9.61,2.412,14.62v20.071
	c0,1.475-1.199,2.674-2.674,2.674H22.404c-1.475,0-2.674-1.199-2.674-2.674v-20.071c0-12.926,5.551-25.172,15.067-33.706
	c8.051,10.692,20.846,17.62,35.231,17.62c24.306,0,44.081-19.775,44.081-44.081S94.335,32.758,70.03,32.758
	S25.949,52.533,25.949,76.839c0,4.421,0.661,8.688,1.878,12.717c-14.532,11.392-23.125,28.891-23.125,47.451v20.071
	C4.701,166.838,12.643,174.78,22.405,174.78z M70.03,47.787c16.019,0,29.052,13.032,29.052,29.052s-13.032,29.052-29.052,29.052
	c-16.018,0-29.051-13.032-29.051-29.052S54.01,47.787,70.03,47.787z"/>
    <path d="M375.652,137.006v20.071c0,9.762,7.941,17.704,17.704,17.704h96.238c9.762,0,17.704-7.942,17.704-17.704v-20.071
	c0-6.665-1.082-13.217-3.218-19.474c-1.341-3.928-5.616-6.025-9.539-4.685c-3.929,1.341-6.026,5.611-4.685,9.54
	c1.6,4.69,2.412,9.61,2.412,14.62v20.071c0,1.475-1.199,2.674-2.674,2.674h-96.238c-1.475,0-2.674-1.199-2.674-2.674v-20.071
	c0-12.926,5.551-25.172,15.067-33.706c8.051,10.692,20.846,17.62,35.231,17.62c24.306,0,44.081-19.775,44.081-44.081
	s-19.775-44.081-44.081-44.081c-24.306,0-44.08,19.775-44.08,44.081c0,4.421,0.661,8.688,1.878,12.717
	C384.244,100.948,375.652,118.446,375.652,137.006z M440.979,47.787c16.019,0,29.052,13.032,29.052,29.052
	s-13.032,29.052-29.052,29.052c-16.018,0-29.051-13.032-29.051-29.052S424.961,47.787,440.979,47.787z"/>
    <path d="M494.54,417.715c-3.929,1.341-6.026,5.611-4.685,9.54c1.6,4.69,2.412,9.609,2.412,14.62v20.071
	c0,1.475-1.199,2.674-2.674,2.674h-96.238c-1.475,0-2.674-1.199-2.674-2.674v-20.071c0-12.926,5.551-25.172,15.067-33.706
	c8.051,10.692,20.846,17.62,35.231,17.62c24.306,0,44.081-19.775,44.081-44.081c0-24.306-19.775-44.081-44.081-44.081
	c-24.306,0-44.08,19.775-44.08,44.081c0,4.421,0.661,8.688,1.878,12.717c-14.532,11.392-23.125,28.891-23.125,47.451v20.071
	c0,9.762,7.941,17.704,17.704,17.704h96.238c9.762,0,17.704-7.941,17.704-17.704v-20.071c0-6.665-1.082-13.217-3.218-19.474
	C502.738,418.471,498.462,416.373,494.54,417.715z M440.979,352.655c16.019,0,29.052,13.032,29.052,29.052
	s-13.032,29.052-29.052,29.052c-16.018,0-29.051-13.032-29.051-29.052S424.961,352.655,440.979,352.655z"/>
    <path d="M123.59,417.715c-3.929,1.341-6.026,5.611-4.685,9.54c1.601,4.69,2.412,9.609,2.412,14.62v20.071
	c0,1.475-1.199,2.674-2.674,2.674H22.405c-1.475,0-2.674-1.199-2.674-2.674v-20.071c0-12.926,5.551-25.172,15.067-33.706
	c8.051,10.692,20.846,17.62,35.231,17.62c24.306,0,44.081-19.775,44.081-44.081c0-24.306-19.775-44.081-44.081-44.081
	s-44.08,19.775-44.08,44.081c0,4.421,0.661,8.688,1.878,12.717c-14.532,11.392-23.125,28.891-23.125,47.451v20.071
	c0,9.762,7.942,17.704,17.704,17.704h96.238c9.762,0,17.704-7.941,17.704-17.704v-20.071c0-6.665-1.082-13.217-3.218-19.474
	C131.787,418.471,127.51,416.373,123.59,417.715z M70.03,352.655c16.019,0,29.052,13.032,29.052,29.052
	s-13.032,29.052-29.052,29.052c-16.018,0-29.051-13.032-29.051-29.052S54.01,352.655,70.03,352.655z"/>
    <path d="M327.079,173.165h-79.966c-34.554,0-63.302,25.276-68.761,58.308h-2.728c-31.169,0-56.527,26.077-56.527,58.13
	c0,22.581,12.503,42.804,32.13,52.438c9.647,23.368,39.746,34.576,41.079,35.061c0.84,0.307,1.71,0.455,2.572,0.455
	c2.055,0,4.066-0.845,5.515-2.409c2.056-2.22,2.58-5.457,1.329-8.212c-3.025-6.662-4.726-13.096-5.086-19.204h42.004
	c23.233,0,43.229-14.493,51.909-35.146h11.965c-0.211,8.229-2.444,16.927-6.672,25.947c-1.285,2.742-0.799,5.989,1.233,8.233
	c1.451,1.602,3.487,2.471,5.572,2.471c0.838,0,1.682-0.14,2.5-0.429c1.669-0.589,39.604-14.269,51.246-42.683
	c24.652-11.403,40.397-35.871,40.397-63.249C396.79,204.437,365.518,173.165,327.079,173.165z M347.626,293.55
	c-2.035,0.827-3.627,2.473-4.297,4.565c-4.217,13.166-17.054,22.967-27.645,29.083c1.82-7.834,2.32-15.497,1.485-22.918
	c-0.43-3.819-3.63-6.724-7.473-6.724h-62.582c-7.196,0-14.066-1.406-20.363-3.947c-2.788-1.125-5.973-0.512-8.099,1.614
	l-0.107,0.107c-3.779,3.779-2.458,10.176,2.496,12.185c8.057,3.266,16.857,5.07,26.072,5.07h26.604
	c-7.359,12.077-20.329,20.116-35.079,20.116h-49.317c-3.81,0-7.044,2.853-7.464,6.64c-0.569,5.134-0.395,10.402,0.516,15.775
	c-7.295-4.816-15.082-11.775-17.944-20.686c-0.694-2.162-2.226-3.976-4.32-4.853c-15.786-6.617-25.985-22.309-25.985-39.974
	c0-23.765,18.615-43.1,41.498-43.1h1.876c0.405,7.855,2.12,15.368,4.927,22.329c2.004,4.971,8.406,6.316,12.196,2.526
	c0.037-0.037,0.074-0.074,0.11-0.11c2.117-2.117,2.742-5.289,1.625-8.067c-2.668-6.635-4.078-13.906-3.911-21.523
	c0.657-29.847,25.587-53.462,55.441-53.462h78.273c30.175,0,55.695,24.684,55.6,54.858
	C381.689,265.347,368.306,285.155,347.626,293.55z"/>
</svg>
