<svg version="1.1" xmlns="http://www.w3.org/2000/svg" viewBox="0 0 461.367 461.367">
    <path style="fill:#1EA6C6;" d="M373.88,367.988c0,0.037,0,0.075,0,0.122c-37.818,34.295-88.019,55.185-143.083,55.185
						c-55.073,0-105.275-20.89-143.092-55.185c0-0.047,0-0.084,0-0.122c0-57.04,33.377-106.277,81.659-129.256
						c18.145,18.098,39.391,27.85,61.434,27.85c22.052,0,43.288-9.752,61.443-27.85C340.521,261.711,373.88,310.947,373.88,367.988z
						"/>
    <path style="fill:#FCD09F;" d="M230.797,58.571c43.71,0,79.148,35.429,79.148,79.139c0,43.719-35.438,103.504-79.148,103.504
						s-79.148-59.785-79.148-103.504C151.649,94,187.087,58.571,230.797,58.571z"/>
    <path style="fill:#EF806F;" d="M164.094,213.389c2.426,3.457,4.937,6.698,7.532,9.742l-7.897,3.756
							c-26.286,12.506-48.525,32.075-64.328,56.59c-12.853,19.944-20.909,42.427-23.71,65.865
							c-28.562-7.785-54.38-22.22-75.691-41.546v-0.103c0-49.705,29.087-92.609,71.157-112.638
							c15.813,15.775,34.323,24.272,53.527,24.272c12.581,0,24.871-3.644,36.291-10.595
							C161.977,210.307,163.026,211.862,164.094,213.389z"/>
    <path style="fill:#EFC59C;" d="M138.539,137.707c0,16.431,4.272,34.511,11.878,51.504c-7.953,5.04-16.637,8.009-25.733,8.009
							c-38.089,0-68.965-52.094-68.965-90.193c0-38.089,30.876-68.956,68.965-68.956c21.124,0,40.038,9.499,52.684,24.459
							C153.883,79.28,138.539,106.737,138.539,137.707z"/>
    <path style="fill:#EF806F;" d="M297.273,213.389c-2.426,3.457-4.937,6.698-7.532,9.742l7.897,3.756
							c26.286,12.506,48.525,32.075,64.328,56.59c12.853,19.944,20.909,42.427,23.71,65.865c28.562-7.785,54.38-22.22,75.691-41.546
							v-0.103c0-49.705-29.087-92.609-71.157-112.638c-15.813,15.775-34.323,24.272-53.527,24.272
							c-12.581,0-24.871-3.644-36.291-10.595C299.39,210.307,298.341,211.862,297.273,213.389z"/>
    <path style="fill:#EFC59C;" d="M322.828,137.707c0,16.431-4.272,34.511-11.878,51.504c7.953,5.04,16.637,8.009,25.733,8.009
							c38.089,0,68.965-52.094,68.965-90.193c0-38.089-30.876-68.956-68.965-68.956c-21.124,0-40.038,9.499-52.684,24.459
							C307.484,79.28,322.828,106.737,322.828,137.707z"/>
</svg>
