<svg height="512" viewBox="0 0 497 497" width="512" xmlns="http://www.w3.org/2000/svg">
    <g>
        <path d="m458.474 497h-64.094l-5.66-16.46 5.66-16.88 31.15-19.67 10.63-1.79 20.53-3.47 11.814 45.288c1.713 6.568-3.243 12.982-10.03 12.982z"
              fill="#ffe5c2"/>
        <path d="m458.474 497h-15.416c3.824-.895 6.158-4.766 5.167-8.565l-12.065-46.235 20.53-3.47 11.814 45.288c1.713 6.568-3.243 12.982-10.03 12.982z"
              fill="#fed2a4"/>
        <path d="m106.88 481.1-4.26 15.9h-64.094c-6.787 0-11.743-6.414-10.03-12.982l11.814-45.288 33.62 3.8 7.26 5.35 21.43 15.78z"
              fill="#ffe5c2"/>
        <path d="m106.88 481.1-4.26 15.9h-21.43v-49.12l21.43 15.78z" fill="#fed2a4"/>
        <path d="m456.69 438.73-19.41 7.77-42.9 17.16v33.34h-291.76v-33.34l-21.43-8.58-40.88-16.35 5.9-22.6c.21-.81.43-1.61.66-2.41 5.74-19.85 18.09-36.58 34.32-48.15 6.57-4.68 13.77-8.52 21.43-11.38.12-.04.24-.09.36-.13h291.04c.12.04.24.09.36.13 26.6 9.93 47.68 31.66 55.75 59.53.23.8.45 1.6.66 2.41z"
              fill="#ffe270"/>
        <path d="m388.019 175.728h-279.038v-107.611c0-37.62 30.497-68.117 68.117-68.117h142.804c37.62 0 68.117 30.497 68.117 68.117z"
              fill="#d19a6e"/>
        <path d="m319.902 0h-22.434c37.62 0 68.117 30.497 68.117 68.117v107.611h22.434v-107.611c0-37.62-30.497-68.117-68.117-68.117z"
              fill="#c38c66"/>
        <g>
            <path d="m146.68 124.6c-4.143 0-7.5-3.358-7.5-7.5v-47.046c0-4.142 3.357-7.5 7.5-7.5s7.5 3.358 7.5 7.5v47.046c0 4.142-3.357 7.5-7.5 7.5z"
                  fill="#c38c66"/>
        </g>
        <g>
            <path d="m350.32 124.6c-4.143 0-7.5-3.358-7.5-7.5v-47.046c0-4.142 3.357-7.5 7.5-7.5s7.5 3.358 7.5 7.5v47.046c0 4.142-3.357 7.5-7.5 7.5z"
                  fill="#c38c66"/>
        </g>
        <g>
            <path d="m297.179 124.6c-4.143 0-7.5-3.358-7.5-7.5v-47.046c0-4.142 3.357-7.5 7.5-7.5s7.5 3.358 7.5 7.5v47.046c0 4.142-3.358 7.5-7.5 7.5z"
                  fill="#c38c66"/>
        </g>
        <path d="m394.38 354.19v142.81h-21.43v-142.94h21.07c.12.04.24.09.36.13z" fill="#ffd15b"/>
        <g>
            <path d="m256 416.4v80.6h-15v-80.6c0-4.14 3.36-7.5 7.5-7.5s7.5 3.36 7.5 7.5z" fill="#ffd15b"/>
        </g>
        <path d="m394.02 354.06c-7.91 37.01-40.78 39.26-56.23 38.18-4.09-.28-7.46 3.08-7.27 7.17.57 11.93-.96 33.4-18.09 40.4-29.89 12.22-49.8-5.14-58.66-15.93-1.37-1.66-3.32-2.49-5.27-2.49s-3.9.83-5.27 2.49c-7.54 9.18-23.07 23.11-45.93 19.54-4.02-.62-8.26-1.79-12.73-3.61-17.13-7-18.66-28.47-18.09-40.4.19-4.09-3.18-7.45-7.27-7.17-15.45 1.08-48.32-1.17-56.23-38.18 5.7-2.12 11.66-3.67 17.79-4.64l92.1-14.49h71.26l88.82 13.97 3.28.52c6.13.97 12.09 2.52 17.79 4.64z"
              fill="#f7f9fa"/>
        <path d="m394.02 354.06c-7.91 37.01-40.78 39.26-56.23 38.18-4.09-.28-7.46 3.08-7.27 7.17.57 11.93-.96 33.4-18.09 40.4-11.64 4.76-21.77 5.03-30.32 2.95 2.97-.68 6.05-1.64 9.25-2.95 17.13-7 18.66-28.47 18.09-40.4-.19-4.09 3.18-7.45 7.27-7.17 14.93 1.04 46.84-9.29 56.23-43.34l3.28.52c6.13.97 12.09 2.52 17.79 4.64z"
              fill="#e9edf1"/>
        <g>
            <path d="m248.5 334.93v86.46c-1.95 0-3.9.83-5.27 2.49-7.54 9.18-23.07 23.11-45.93 19.54 10.5-5.06 19.09-13.74 24.3-19.89 3.55-4.2 5.47-9.54 5.47-15.04v-73.56z"
                  fill="#e9edf1"/>
        </g>
        <path d="m102.62 354.19v109.47l-21.43-8.58v-89.51c6.57-4.68 13.77-8.52 21.43-11.38z" fill="#ffd15b"/>
        <path d="m456.69 438.73-19.41 7.77-7.92-30.37c-5.48-21-17.95-49.27-34.98-61.94 26.6 9.93 47.68 31.66 55.75 59.53.23.8.45 1.6.66 2.41z"
              fill="#ffd15b"/>
        <g>
            <path d="m185.8 237.7c0 7-2.67 14-8.01 19.33l-13.35 13.35-21.89 21.9c-8.13 8.12-20.1 10.06-30.05 5.81-3.12-1.32-6.05-3.26-8.6-5.81-10.68-10.68-10.68-27.98 0-38.65l22.9-22.91 12.34-12.34c10.68-10.67 27.98-10.67 38.65 0 5.34 5.34 8.01 12.33 8.01 19.32z"
                  fill="#d19a6e"/>
            <path d="m185.8 237.7c0 7-2.67 14-8.01 19.33l-13.35 13.35-21.89 21.9c-8.13 8.12-20.1 10.06-30.05 5.81 3.13-1.33 6.06-3.26 8.61-5.81l23.25-23.25c3.83-3.83 3.74-10.01-.1-13.84-7.1-7.09-13.03-15.35-17.46-24.47l12.34-12.34c10.68-10.67 27.98-10.67 38.65 0 5.34 5.34 8.01 12.33 8.01 19.32z"
                  fill="#c38c66"/>
            <path d="m393.103 292.278c10.673-10.673 10.673-27.977 0-38.649l-35.248-35.248c-10.673-10.673-27.977-10.673-38.649 0-10.673 10.673-10.673 27.977 0 38.649l35.248 35.248c10.672 10.672 27.976 10.672 38.649 0z"
                  fill="#d19a6e"/>
            <path d="m393.103 253.628-35.248-35.248c-8.123-8.123-20.083-10.056-30.042-5.815 3.126 1.332 6.058 3.265 8.608 5.815l35.248 35.248c10.673 10.673 10.673 27.977 0 38.649-2.55 2.55-5.481 4.484-8.608 5.815 9.958 4.241 21.919 2.307 30.042-5.815 10.673-10.672 10.673-27.976 0-38.649z"
                  fill="#c38c66"/>
        </g>
        <path d="m151.05 211.34h-38.53c-11.61 0-21.01-9.41-21.01-21.01v-24c0-11.61 9.4-21.02 21.01-21.02h26.66z"
              fill="#ffe5c2"/>
        <path d="m151.05 211.34h-31.06c-1.47-6.46-2.24-13.18-2.24-20.08v-45.95h21.43z" fill="#fed2a4"/>
        <path d="m384.48 211.343h-36.392l9.736-66.029h26.656c11.606 0 21.014 9.408 21.014 21.014v24.001c0 11.606-9.409 21.014-21.014 21.014z"
              fill="#ffe5c2"/>
        <path d="m384.479 145.314h-21.434c11.606 0 21.014 9.408 21.014 21.014v24.001c0 11.606-9.408 21.014-21.014 21.014h21.434c11.606 0 21.014-9.408 21.014-21.014v-24.001c.001-11.606-9.408-21.014-21.014-21.014z"
              fill="#fed2a4"/>
        <g fill="#ffe5c2">
            <path d="m207.254 274h82.492v63.178c0 8.416-5.116 16.077-12.99 19.048-18.199 6.864-38.313 6.864-56.511 0-7.875-2.97-12.99-10.631-12.99-19.048v-63.178z"/>
            <path d="m207.254 274h82.492v63.178c0 8.416-5.116 16.077-12.99 19.048-18.199 6.864-38.313 6.864-56.511 0-7.875-2.97-12.99-10.631-12.99-19.048v-63.178z"/>
            <path d="m207.254 274h82.492v63.178c0 8.416-5.116 16.077-12.99 19.048-18.199 6.864-38.313 6.864-56.511 0-7.875-2.97-12.99-10.631-12.99-19.048v-63.178z"/>
        </g>
        <path d="m268.312 274v63.179c0 8.416-5.116 16.077-12.99 19.047-5.698 2.149-11.583 3.625-17.539 4.428 13.067 1.763 26.472.287 38.972-4.428 7.875-2.97 12.99-10.631 12.99-19.047v-63.179z"
              fill="#fed2a4"/>
        <path d="m357.82 117.1v74.162c0 49.909-40.459 90.368-90.368 90.368h-37.904c-49.909 0-90.368-40.459-90.368-90.368v-74.162z"
              fill="#ffe5c2"/>
        <path d="m336.386 117.1v74.162c0 49.909-40.459 90.368-90.368 90.368h21.434c49.909 0 90.368-40.459 90.368-90.368v-74.162z"
              fill="#fed2a4"/>
        <g fill="#ffc8dd">
            <ellipse cx="307.224" cy="201.372" rx="15.141" ry="8.553"/>
            <ellipse cx="189.776" cy="201.372" rx="15.141" ry="8.553"/>
        </g>
        <g>
            <path d="m255.391 197.766h-6.891c-4.143 0-7.5-3.358-7.5-7.5v-19.405c0-4.142 3.357-7.5 7.5-7.5s7.5 3.358 7.5 7.5v11.929c3.857.31 6.891 3.539 6.891 7.476 0 4.142-3.358 7.5-7.5 7.5z"
                  fill="#fed2a4"/>
        </g>
        <g>
            <g>
                <path d="m189.06 184.366c-4.143 0-7.5-3.358-7.5-7.5v-13.242c0-4.142 3.357-7.5 7.5-7.5s7.5 3.358 7.5 7.5v13.242c0 4.142-3.358 7.5-7.5 7.5z"
                      fill="#5d5360"/>
            </g>
            <g>
                <path d="m307.94 184.366c-4.143 0-7.5-3.358-7.5-7.5v-13.242c0-4.142 3.357-7.5 7.5-7.5s7.5 3.358 7.5 7.5v13.242c0 4.142-3.357 7.5-7.5 7.5z"
                      fill="#5d5360"/>
            </g>
        </g>
        <g>
            <path d="m248.5 242.976c-10.239 0-19.526-5.23-24.845-13.991-2.149-3.541-1.021-8.154 2.52-10.303 3.539-2.149 8.153-1.022 10.303 2.519 2.575 4.242 7.069 6.775 12.022 6.775s9.447-2.533 12.022-6.775c2.149-3.541 6.764-4.668 10.303-2.519 3.541 2.149 4.669 6.762 2.52 10.303-5.319 8.761-14.606 13.991-24.845 13.991z"
                  fill="#fed2a4"/>
        </g>
    </g>
</svg>