<svg height="512" viewBox="0 0 497 497" width="512" xmlns="http://www.w3.org/2000/svg">
    <g>
        <path d="m398.131 351.553 25.951 8.286c22.265 7.109 38.504 26.323 41.803 49.462l10.857 76.139c.87 6.102-3.865 11.56-10.029 11.56h-68.583l-12.766-72.724z"
              fill="#a2aee6"/>
        <path d="m443.94 409.3 10.88 76.28c.77 5.36-2.81 10.38-8.12 11.42h20.01c6.17 0 10.9-5.46 10.03-11.56l-10.85-76.14c-3.3-23.14-19.54-42.35-41.81-49.46l-25.95-8.29c22.27 7.11 42.52 34.61 45.81 57.75z"
              fill="#8795de"/>
        <path d="m98.869 351.553-25.951 8.286c-22.265 7.109-38.504 26.323-41.803 49.462l-10.857 76.139c-.87 6.102 3.865 11.56 10.029 11.56h68.583l16.573-72.723z"
              fill="#a2aee6"/>
        <path d="m76.929 358.559v138.441h21.94l16.574-72.723-16.574-72.724z" fill="#8795de"/>
        <path d="m398.131 497h-299.262v-145.447l80.595-14.815h138.072l80.595 14.815z" fill="#f7f9fa"/>
        <path d="m398.13 351.55v145.45h-21.94v-149.48z" fill="#e9edf1"/>
        <path d="m248.5 437.311c-4.142 0-7.5-3.358-7.5-7.5v-73.621c0-4.142 3.358-7.5 7.5-7.5s7.5 3.358 7.5 7.5v73.621c0 4.142-3.358 7.5-7.5 7.5z"
              fill="#e9edf1"/>
        <path d="m211.95 268.265 36.55-8.752 36.55 8.752v62.502l-12.497 15.185-24.053 10.237-24.939-9.955-11.611-15.467z"
              fill="#fed2a4"/>
        <path d="m263.109 268.265v52.052c0 6.547-3.204 12.679-8.579 16.417l-17.001 11.825v3.251l10.97 4.379 24.053-10.237 12.497-15.185v-62.502l-12.171-2.914z"
              fill="#ffbd86"/>
        <path d="m248.5 356.189 20.753 20.726c4.803 4.797 12.71 4.354 16.947-.95l31.335-39.227-32.486-5.971z"
              fill="#a6e7f0"/>
        <path d="m317.54 336.74-31.34 39.23c-4.24 5.3-12.14 5.74-16.95.95l-5.15-5.16c3.18-.11 6.31-1.54 8.48-4.26l25.28-34.38z"
              fill="#6bd9e7"/>
        <path d="m248.5 356.189-20.753 20.726c-4.803 4.797-12.71 4.354-16.947-.95l-31.335-39.227 32.486-5.971z"
              fill="#a6e7f0"/>
        <path d="m211.95 330.767-17.354 3.19 23.102 16.069c4.635 3.224 5.259 9.842 1.309 13.875l-3.238 3.306c-2.581 2.578-6.057 3.628-9.379 3.239l4.409 5.52c4.237 5.304 12.144 5.747 16.947.95l20.753-20.726z"
              fill="#6bd9e7"/>
        <path d="m345.757 470.372h-28.222c-4.142 0-7.5-3.358-7.5-7.5s3.358-7.5 7.5-7.5h28.222c4.142 0 7.5 3.358 7.5 7.5s-3.358 7.5-7.5 7.5z"
              fill="#8795de"/>
        <path d="m381.367 156.136h-265.734v-94.878c0-33.832 27.426-61.258 61.258-61.258h143.218c33.832 0 61.258 27.426 61.258 61.258z"
              fill="#5d5360"/>
        <path d="m320.109 0h-17.94c33.831 0 61.257 27.426 61.257 61.258v94.878h17.94v-94.878c.001-33.832-27.425-61.258-61.257-61.258z"
              fill="#4b3f4e"/>
        <path d="m145.744 202.197h-23.792c-11.606 0-21.014-9.408-21.014-21.014v-20.034c0-11.606 9.408-21.014 21.014-21.014h23.792l10.525 31.031z"
              fill="#fed2a4"/>
        <path d="m123.803 140.135v62.062h21.941l10.525-31.031-10.525-31.031z" fill="#ffbd86"/>
        <path d="m375.048 202.197h-23.792l-9.489-29.667 9.489-32.396h23.792c11.606 0 21.014 9.408 21.014 21.014v20.034c.001 11.607-9.408 21.015-21.014 21.015z"
              fill="#fed2a4"/>
        <path d="m375.048 140.135h-21.94c11.606 0 21.014 9.408 21.014 21.014v20.034c0 11.606-9.408 21.014-21.014 21.014h21.94c11.606 0 21.014-9.408 21.014-21.014v-20.034c0-11.606-9.408-21.014-21.014-21.014z"
              fill="#ffbd86"/>
        <path d="m351.25 96.7v119.39c0 28.82-23.36 52.17-52.17 52.17h-101.16c-28.81 0-52.17-23.35-52.17-52.17v-119.39c0-10.29 8.34-18.63 18.63-18.63h17.37c3.33 0 6.47 1.47 8.65 3.99 10.48 12.09 26.86 20.07 43.36 20.07h29.05c16.02.1 32.82-7.39 43.73-19.99 1.76-2.03 4.13-3.41 6.72-3.88.66-.13 1.33-.19 2.01-.19h17.35c10.29 0 18.63 8.34 18.63 18.63z"
              fill="#fed2a4"/>
        <g fill="#ffbd86">
            <path d="m351.25 96.7v119.39c0 28.82-23.36 52.17-52.17 52.17h-21.94c28.81 0 52.17-23.35 52.17-52.17v-119.39c0-9.41-6.98-17.2-16.05-18.44.66-.13 1.33-.19 2.01-.19h17.35c10.29 0 18.63 8.34 18.63 18.63z"/>
            <path d="m233.76 102.13h-21.51c-9.3 0-18.32-2.24-26.37-6.37-8.04-4.12-15.12-10.14-20.55-17.69h16.42c3.33 0 6.47 1.47 8.65 3.99 10.48 12.09 26.86 20.07 43.36 20.07z"/>
        </g>
        <path d="m255.391 192.93h-6.891c-4.142 0-7.5-3.358-7.5-7.5v-19.404c0-4.142 3.358-7.5 7.5-7.5s7.5 3.358 7.5 7.5v11.929c3.857.31 6.891 3.539 6.891 7.476 0 4.141-3.358 7.499-7.5 7.499z"
              fill="#ffbd86"/>
        <path d="m189.059 172.531c-4.142 0-7.5-3.358-7.5-7.5v-13.242c0-4.142 3.358-7.5 7.5-7.5s7.5 3.358 7.5 7.5v13.242c0 4.142-3.358 7.5-7.5 7.5z"
              fill="#5d5360"/>
        <path d="m307.941 172.531c-4.142 0-7.5-3.358-7.5-7.5v-13.242c0-4.142 3.358-7.5 7.5-7.5s7.5 3.358 7.5 7.5v13.242c0 4.142-3.358 7.5-7.5 7.5z"
              fill="#5d5360"/>
        <path d="m248.5 234.7c-15.447 0-29.459-7.892-37.483-21.11-2.149-3.541-1.021-8.153 2.52-10.303 3.54-2.149 8.154-1.021 10.303 2.52 5.281 8.699 14.5 13.893 24.661 13.893s19.38-5.194 24.661-13.893c2.15-3.541 6.763-4.669 10.303-2.52 3.541 2.149 4.669 6.762 2.52 10.303-8.026 13.219-22.038 21.11-37.485 21.11z"
              fill="#ffbd86"/>
    </g>
</svg>