<svg height="512" viewBox="0 0 497.035 497.035" width="512"
     xmlns="http://www.w3.org/2000/svg">
    <path d="m0 361.648h45.457v117.588h-34.809c-5.881 0-10.648-4.767-10.648-10.648z" fill="#fed2a4"/>
    <path d="m271.243 328.848v32.8l-45.46 117.59h-180.3l-45.48-117.59v-32.8c-.13-20.92 9.83-39.97 25.28-52.64 5.99-4.91 12.8-8.86 20.17-11.58 3.15-1.17 6.39-2.1 9.72-2.8l56.39-11.92h49.14l44.88 9.63 11.16 2.4c3.09.59 6.11 1.42 9.04 2.46 26.71 9.45 46.04 36.47 45.46 64.45z"
          fill="#8795de"/>
    <path d="m271.243 328.848v32.8l-45.46 117.59h-20.2v-219.7l11.16 2.4c3.09.59 6.11 1.42 9.04 2.46 26.71 9.45 46.04 36.47 45.46 64.45z"
          fill="#6c7fd8"/>
    <path d="m111.567 207.892 24.569-5.463 24.569 5.463v42.014c-14.769 10.272-34.369 10.272-49.138 0z"
          fill="#fed2a4"/>
    <path d="m140.499 207.891v35.289c0 4.587-2.699 8.741-6.881 10.624-2.46 1.108-5 1.973-7.585 2.597 11.722 2.829 24.371.668 34.671-6.497v-42.014l-13.989-3.111z"
          fill="#ffbd86"/>
    <path d="m45.455 264.628v97.02l-20.17 16.1v-101.54c5.99-4.91 12.8-8.86 20.17-11.58z" fill="#6c7fd8"/>
    <path d="m45.49 361.648h-45.457v106.94c0 5.881 4.767 10.648 10.648 10.648h34.809z" fill="#fed2a4"/>
    <path d="m25.284 361.648h20.205v117.588h-20.205z" fill="#ffbd86"/>
    <path d="m214.468 163.481h-9.26l-5.59-20.859 5.59-20.859h9.26c11.52 0 20.859 9.339 20.859 20.859 0 11.52-9.339 20.859-20.859 20.859z"
          fill="#fed2a4"/>
    <path d="m214.468 121.762h-9.26v1.026c8.365 2.716 14.417 10.564 14.417 19.834 0 9.27-6.052 17.118-14.417 19.834v1.026h9.26c11.521 0 20.859-9.339 20.859-20.859 0-11.522-9.338-20.861-20.859-20.861z"
          fill="#ffbd86"/>
    <path d="m67.063 163.481h-9.26c-11.52 0-20.859-9.339-20.859-20.859 0-11.52 9.339-20.859 20.859-20.859h9.26l5.385 20.859z"
          fill="#fed2a4"/>
    <path d="m57.803 121.762c-2.25 0-4.412.366-6.442 1.026v39.668c2.03.659 4.192 1.026 6.442 1.026h9.26l5.385-20.859-5.385-20.859h-9.26z"
          fill="#ffbd86"/>
    <path d="m67.066 83.809v89.01c0 19.37 15.702 35.073 35.073 35.073h67.994c19.37 0 35.072-15.702 35.072-35.073v-89.01l-70.611-9.021z"
          fill="#fed2a4"/>
    <path d="m185 83.809v89.01c0 19.37-15.702 35.073-35.073 35.073h20.205c19.37 0 35.073-15.702 35.073-35.073v-89.01l-14.23-1.818z"
          fill="#ffbd86"/>
    <path d="m205.205 65.788v18.02h-139.43c-12.57 0-22.76-10.19-22.76-22.76v-20.48c0-12.58 10.19-22.77 22.76-22.77h35.36c2.33 0 4.66.2 6.96.6l43.38 7.53c.06.01.11.02.17.03l23.49 4.08c17.38 3.02 30.07 18.1 30.07 35.75z"
          fill="#ffe270"/>
    <path d="m205.205 65.788v18.02h-20.2v-18.02c0-17.59-16.04-36.71-33.36-39.83l23.49 4.08c17.38 3.02 30.07 18.1 30.07 35.75z"
          fill="#ffd15b"/>
    <path d="m134.594 153.35c-4.143 0-7.5-3.358-7.5-7.5v-17.916c0-4.142 3.357-7.5 7.5-7.5s7.5 3.358 7.5 7.5v17.916c0 4.142-3.357 7.5-7.5 7.5z"
          fill="#ffbd86"/>
    <path d="m134.594 184.306c-10.586 0-20.188-5.407-25.685-14.464-2.149-3.541-1.021-8.154 2.52-10.303 3.538-2.149 8.153-1.021 10.303 2.52 2.755 4.538 7.562 7.247 12.862 7.247s10.107-2.709 12.862-7.247c2.149-3.541 6.764-4.669 10.303-2.52 3.541 2.149 4.669 6.762 2.52 10.303-5.497 9.057-15.099 14.464-25.685 14.464z"
          fill="#ffbd86"/>
    <g fill="#5d5360">
        <circle cx="169.635" cy="131.226" r="7.5"/>
        <circle cx="99.554" cy="131.226" r="7.5"/>
    </g>
    <path d="m151.282 326.376h-31.182c-4.143 0-7.5 3.358-7.5 7.5s3.357 7.5 7.5 7.5h8.028v48.962c0 4.142 3.357 7.5 7.5 7.5s7.5-3.358 7.5-7.5v-48.962h8.153c4.143 0 7.5-3.358 7.5-7.5s-3.356-7.5-7.499-7.5z"
          fill="#6c7fd8"/>
    <path d="m225.778 361.648h45.457v117.588h-45.457z" fill="#fed2a4"/>
    <path d="m497.023 328.848v32.8l-45.46 117.59h-180.3l-45.48-117.59v-32.8c-.13-20.92 9.83-39.97 25.28-52.64 5.99-4.91 12.8-8.86 20.17-11.58 3.15-1.17 6.39-2.1 9.72-2.8l56.39-11.92h49.14l44.88 9.63 11.16 2.4c3.09.59 6.11 1.42 9.04 2.46 26.71 9.45 46.04 36.47 45.46 64.45z"
          fill="#a6e7f0"/>
    <path d="m451.563 264.398v214.84h-20.2v-219.7l11.16 2.4c3.09.59 6.11 1.42 9.04 2.46z" fill="#6bd9e7"/>
    <path d="m337.345 207.892 24.569-5.463 24.569 5.463v42.014c-14.769 10.272-34.369 10.272-49.138 0z"
          fill="#fed2a4"/>
    <path d="m366.277 207.891v35.289c0 4.587-2.699 8.741-6.881 10.624-2.46 1.108-5 1.973-7.585 2.597 11.722 2.829 24.371.668 34.671-6.497v-42.014l-13.989-3.111z"
          fill="#ffbd86"/>
    <path d="m271.233 264.628v97.02l-20.17 16.1v-101.54c5.99-4.91 12.8-8.86 20.17-11.58z" fill="#6bd9e7"/>
    <path d="m225.811 361.648h45.457v117.588h-45.457z" fill="#fed2a4"/>
    <path d="m251.062 361.648h20.205v117.588h-20.205z" fill="#ffbd86"/>
    <path d="m497.023 328.848v32.8l-20.21 7.74v-40.54c0-21.09-9.57-40.54-25.25-53.43v-11.02c26.71 9.45 46.04 36.47 45.46 64.45z"
          fill="#6bd9e7"/>
    <path d="m451.566 361.648h45.457v107.407c0 5.623-4.558 10.181-10.181 10.181h-35.276z" fill="#fed2a4"/>
    <path d="m476.817 361.648v104.469c0 5.757-3.482 10.942-8.811 13.119h18.835c5.623 0 10.181-4.558 10.181-10.181v-107.407z"
          fill="#ffbd86"/>
    <path d="m359.584 398.77c-4.782 0-9.039-1.988-12.03-4.171-1.56-1.139-2.564-2.885-2.845-4.796-.715-4.862 3.462-9.038 8.324-8.323l.784.115c1.076.158 2.093.568 3.006 1.158 1.057.683 2.664 1.392 4.045.624 1.202-.667 1.948-1.999 1.948-3.475v-44.813c0-4.107 3.165-7.688 7.27-7.811 4.247-.127 7.73 3.278 7.73 7.497v45.127c0 6.922-3.704 13.279-9.667 16.589-2.934 1.631-5.835 2.279-8.565 2.279z"
          fill="#6bd9e7"/>
    <path d="m440.246 163.481h-9.26l-5.59-20.859 5.59-20.859h9.26c11.52 0 20.859 9.339 20.859 20.859 0 11.52-9.339 20.859-20.859 20.859z"
          fill="#fed2a4"/>
    <path d="m440.246 121.762h-9.26v1.026c8.365 2.716 14.417 10.564 14.417 19.834 0 9.27-6.052 17.118-14.417 19.834v1.026h9.26c11.521 0 20.859-9.339 20.859-20.859 0-11.522-9.339-20.861-20.859-20.861z"
          fill="#ffbd86"/>
    <path d="m292.84 163.481h-9.26c-11.52 0-20.859-9.339-20.859-20.859 0-11.52 9.339-20.859 20.859-20.859h9.26l5.385 20.859z"
          fill="#fed2a4"/>
    <path d="m283.581 121.762c-2.25 0-4.412.366-6.442 1.026v39.668c2.03.659 4.192 1.026 6.442 1.026h9.26l5.385-20.859-5.385-20.859h-9.26z"
          fill="#ffbd86"/>
    <path d="m292.844 83.809v89.01c0 19.37 15.703 35.073 35.073 35.073h67.994c19.37 0 35.073-15.702 35.073-35.073v-89.01l-70.611-9.021z"
          fill="#fed2a4"/>
    <path d="m410.778 83.809v89.01c0 19.37-15.702 35.073-35.073 35.073h20.205c19.37 0 35.073-15.702 35.073-35.073v-89.01l-14.23-1.818z"
          fill="#ffbd86"/>
    <path d="m430.983 65.788v18.02h-139.43c-12.57 0-22.76-10.19-22.76-22.76v-20.48c0-12.58 10.19-22.77 22.76-22.77h35.36c2.33 0 4.66.2 6.96.6l43.38 7.53c.06.01.11.02.17.03l23.49 4.08c17.38 3.02 30.07 18.1 30.07 35.75z"
          fill="#ffe270"/>
    <path d="m430.983 65.788v18.02h-20.2v-18.02c0-17.59-16.04-36.71-33.36-39.83l23.49 4.08c17.38 3.02 30.07 18.1 30.07 35.75z"
          fill="#ffd15b"/>
    <path d="m360.372 153.35c-4.143 0-7.5-3.358-7.5-7.5v-17.916c0-4.142 3.357-7.5 7.5-7.5s7.5 3.358 7.5 7.5v17.916c0 4.142-3.357 7.5-7.5 7.5z"
          fill="#ffbd86"/>
    <path d="m360.372 184.306c-10.586 0-20.188-5.407-25.685-14.464-2.149-3.541-1.021-8.154 2.52-10.303 3.538-2.149 8.153-1.021 10.303 2.52 2.755 4.538 7.562 7.247 12.862 7.247s10.107-2.709 12.862-7.247c2.149-3.541 6.764-4.669 10.303-2.52 3.541 2.149 4.669 6.762 2.52 10.303-5.497 9.057-15.099 14.464-25.685 14.464z"
          fill="#ffbd86"/>
    <g fill="#5d5360">
        <circle cx="395.412" cy="131.226" r="7.5"/>
        <circle cx="325.332" cy="131.226" r="7.5"/>
    </g>
</svg>