<svg height="512" viewBox="0 0 480 480" width="512" xmlns="http://www.w3.org/2000/svg">
    <path d="m472 158.007v39c0 4.42-3.58 7.998-8 7.998h-138.67c-4.42 0-8-3.578-8-7.998v-39c0-26.51 21.49-48 48-48h20.64c-18.3-4.11-31.97-20.46-31.97-40v-20c0-36.433 44.186-54.794 69.99-28.99 7.42 7.42 12.01 17.67 12.01 28.99v20c0 19.54-13.67 35.89-31.97 40h19.97c26.51 0 48 21.49 48 48z"
          fill="#befa91"/>
    <path d="m317.33 158.007v39c0 4.42-3.58 8-8 8h-138.662c-4.42 0-7.999-3.58-7.999-8v-39c0-26.51 21.489-48 47.999-48h20.303c-18.3-4.11-31.97-20.46-31.97-40v-20c0-26.863 25.378-46.281 51.1-39.75 17.887 4.533 30.9 20.733 30.9 39.75v20c0 19.54-13.67 35.89-31.97 40h20.3c26.509 0 47.999 21.49 47.999 48z"
          fill="#b49ef2"/>
    <path d="m162.668 158.007v39c0 4.42-3.578 7.999-7.998 7.999h-138.67c-4.42 0-8-3.579-8-7.999v-39c0-26.51 21.49-48 48-48h19.97c-18.3-4.11-31.97-20.46-31.97-40v-20c0-36.544 44.349-54.632 69.99-28.99 7.42 7.42 12.01 17.67 12.01 28.99v20c0 19.54-13.67 35.89-31.97 40h20.64c26.51 0 47.998 21.49 47.998 48z"
          fill="#fe4f60"/>
    <path d="m116.421 110.038c19.477.699 18.758 29.977-.731 30.084-7.954.044-17.66-.038-29.69-.115-26.509-.17-48 21.49-48 48v9c0 4.418-3.582 7.999-8 7.999h-14c-4.418 0-8-3.581-8-7.999v-39c0-26.51 21.49-48 48-48 0 0 59.84.011 60.421.031z"
          fill="#ff6d7a"/>
    <path d="m271.086 110.038c19.477.699 18.758 29.977-.731 30.084-7.954.044-17.66-.038-29.69-.115-26.509-.17-48 21.49-48 48v9c0 4.418-3.582 8-8 8h-13.997c-4.418 0-7.999-3.582-7.999-8v-39c0-26.51 21.489-48 47.999-48 0 0 59.837.011 60.418.031z"
          fill="#c0b3ff"/>
    <path d="m425.791 110.038c19.477.699 18.758 29.977-.731 30.084-7.954.044-17.66-.038-29.69-.115-26.509-.17-48 21.49-48 48v9c0 4.418-3.582 8-8 8h-14c-4.418 0-8-3.582-8-8v-39c0-26.51 21.49-48 48-48 0 0 59.84.011 60.421.031z"
          fill="#daffbf"/>
    <path d="m436 50.007v20c0 22.64-18.36 41-41 41s-41-18.36-41-41v-20c0-22.61 18.327-41 41-41 22.639 0 41 18.359 41 41z"
          fill="#ffebd2"/>
    <path d="m281 50.007v20c0 22.64-18.36 41-41 41s-41-18.36-41-41v-20c0-36.389 44.274-54.706 69.99-28.99 7.42 7.42 12.01 17.67 12.01 28.99z"
          fill="#ffebd2"/>
    <path d="m126 50.007v20c0 22.64-18.36 41-41 41s-41-18.36-41-41v-20c0-26.89 25.414-46.385 51.29-39.7 17.739 4.595 30.71 20.687 30.71 39.7z"
          fill="#e0b7a3"/>
    <path d="m96.526 10.652c9.927 2.904 9.571 17.039-.51 19.351-17.604 4.035-32.45 19.555-32.016 40.004.016.765.057 1.514.075 2.249.316 12.764-18.853 13.971-19.928 1.248-.251-2.966-.147-22.851-.147-22.75 0-27.241 25.738-47.939 52.526-40.102z"
          fill="#f2d1c2"/>
    <path d="m251.526 10.652c9.927 2.904 9.571 17.039-.51 19.351-17.604 4.036-32.45 19.555-32.016 40.005.016.765.057 1.514.075 2.249.316 12.764-18.853 13.971-19.928 1.248-.251-2.967-.147-22.852-.147-22.751 0-27.241 25.738-47.939 52.526-40.102z"
          fill="#fff3e4"/>
    <path d="m406.526 10.652c9.927 2.904 9.571 17.039-.51 19.351-17.604 4.036-32.45 19.555-32.016 40.005.016.765.057 1.514.075 2.249.316 12.764-18.853 13.971-19.928 1.248-.251-2.967-.147-22.852-.147-22.751 0-27.241 25.738-47.939 52.526-40.102z"
          fill="#fff3e4"/>
    <path d="m394.333 305.968v39c0 4.42-3.58 8-8 8h-138.663c-4.42 0-8-3.58-8-8v-39c0-26.51 21.49-48 48-48h20.303c-18.3-4.11-31.97-20.46-31.97-40v-20c0-26.863 25.378-46.281 51.1-39.75 17.887 4.533 30.9 20.733 30.9 39.75v20c0 19.54-13.67 35.89-31.97 40h20.3c26.51 0 48 21.49 48 48z"
          fill="#ffe773"/>
    <path d="m348.088 257.999c19.477.699 18.758 29.977-.731 30.084-7.954.044-17.66-.038-29.69-.115-26.509-.17-48 21.49-48 48v9c0 4.418-3.582 8-8 8h-13.997c-4.418 0-8-3.582-8-8v-39c0-26.51 21.49-48 48-48 0 0 59.837.01 60.418.031z"
          fill="#fff0a6"/>
    <path d="m358.003 197.968v20c0 22.64-18.36 41-41 41s-41-18.36-41-41v-20c0-36.389 44.274-54.706 69.99-28.99 7.419 7.42 12.01 17.67 12.01 28.99z"
          fill="#ffebd2"/>
    <path d="m328.528 158.612c9.927 2.904 9.571 17.039-.51 19.351-17.604 4.036-32.45 19.555-32.016 40.005.016.765.057 1.514.075 2.249.316 12.764-18.853 13.971-19.928 1.248-.251-2.966-.147-22.851-.147-22.75.001-27.241 25.739-47.939 52.526-40.103z"
          fill="#fff3e4"/>
    <path d="m239 305.968v39c0 4.42-3.58 8-8 8h-138.67c-4.42 0-8-3.58-8-8v-39c0-26.51 21.49-48 48-48h20.64c-18.3-4.11-31.97-20.46-31.97-40v-20c0-36.433 44.186-54.794 69.99-28.99 7.42 7.42 12.01 17.67 12.01 28.99v20c0 19.54-13.67 35.89-31.97 40h19.97c26.51 0 48 21.49 48 48z"
          fill="#befa91"/>
    <path d="m192.791 257.999c19.477.699 18.758 29.977-.731 30.084-7.954.044-17.66-.038-29.69-.115-26.509-.17-48 21.49-48 48v9c0 4.418-3.582 8-8 8h-14c-4.418 0-8-3.582-8-8v-39c0-26.51 21.49-48 48-48 0 0 59.84.01 60.421.031z"
          fill="#daffbf"/>
    <path d="m203 197.968v20c0 22.64-18.36 41-41 41s-41-18.36-41-41v-20c0-22.61 18.327-41 41-41 22.639 0 41 18.359 41 41z"
          fill="#e0b7a3"/>
    <path d="m173.526 158.612c9.927 2.904 9.571 17.039-.51 19.351-17.604 4.036-32.45 19.555-32.016 40.005.016.765.057 1.514.075 2.249.316 12.764-18.853 13.971-19.928 1.248-.251-2.966-.147-22.851-.147-22.75 0-27.241 25.738-47.939 52.526-40.103z"
          fill="#f2d1c2"/>
    <path d="m472 425v39c0 4.42-3.58 8-8 8h-138.667c-4.42 0-8.003-3.58-8.003-8v-39c0-26.51 21.49-48 48-48h20.64c-18.3-4.11-31.97-20.46-31.97-40v-20c0-36.433 44.186-54.794 69.99-28.99 7.42 7.42 12.01 17.67 12.01 28.99v20c0 19.54-13.67 35.89-31.97 40h19.97c26.51 0 48 21.49 48 48z"
          fill="#cbe3fa"/>
    <path d="m317.33 425v39c0 4.42-3.577 8-7.997 8h-138.666c-4.42 0-7.998-3.58-7.998-8v-39c0-26.51 21.489-48 47.999-48h20.303c-18.3-4.11-31.97-20.46-31.97-40v-20c0-26.863 25.378-46.281 51.1-39.75 17.887 4.533 30.9 20.733 30.9 39.75v20c0 19.54-13.67 35.89-31.97 40h20.3c26.509 0 47.999 21.49 47.999 48z"
          fill="#fe4f60"/>
    <path d="m162.668 425v39c0 4.42-3.581 8-8.001 8h-138.667c-4.42 0-8-3.58-8-8v-39c0-26.51 21.49-48 48-48h19.97c-18.3-4.11-31.97-20.46-31.97-40v-20c0-36.544 44.349-54.632 69.99-28.99 7.42 7.42 12.01 17.67 12.01 28.99v20c0 19.54-13.67 35.89-31.97 40h20.64c26.51 0 47.998 21.49 47.998 48z"
          fill="#80aaff"/>
    <path d="m116.421 377.031c19.477.699 18.758 29.977-.731 30.084-7.954.044-17.66-.038-29.69-.115-26.509-.17-48 21.49-48 48v9c0 4.418-3.582 8-8 8h-14c-4.418 0-8-3.582-8-8v-39c0-26.51 21.49-48 48-48 0 0 59.84.01 60.421.031z"
          fill="#9cbcff"/>
    <path d="m271.086 377.031c19.477.699 18.758 29.977-.731 30.084-7.954.044-17.66-.038-29.69-.115-26.509-.17-48 21.49-48 48v9c0 4.418-3.582 8-8 8h-13.998c-4.418 0-7.998-3.582-7.998-8v-39c0-26.51 21.489-48 47.999-48 0 0 59.837.01 60.418.031z"
          fill="#ff6d7a"/>
    <path d="m425.791 377.031c19.477.699 18.758 29.977-.731 30.084-7.954.044-17.66-.038-29.69-.115-26.509-.17-48 21.49-48 48v9c0 4.418-3.582 8-8 8h-14c-4.418 0-8-3.582-8-8v-39c0-26.51 21.49-48 48-48 0 0 59.84.01 60.421.031z"
          fill="#eef7ff"/>
    <path d="m436 317v20c0 22.64-18.36 41-41 41s-41-18.36-41-41v-20c0-22.61 18.327-41 41-41 22.639 0 41 18.359 41 41z"
          fill="#e0b7a3"/>
    <path d="m281 317v20c0 22.64-18.36 41-41 41s-41-18.36-41-41v-20c0-36.389 44.274-54.706 69.99-28.99 7.42 7.42 12.01 17.67 12.01 28.99z"
          fill="#ffebd2"/>
    <path d="m126 317v20c0 22.64-18.36 41-41 41s-41-18.36-41-41v-20c0-26.89 25.414-46.385 51.29-39.7 17.739 4.595 30.71 20.687 30.71 39.7z"
          fill="#ffebd2"/>
    <path d="m96.526 277.645c9.927 2.904 9.571 17.039-.51 19.351-17.604 4.035-32.45 19.555-32.016 40.004.016.765.057 1.514.075 2.249.316 12.764-18.853 13.971-19.928 1.248-.251-2.966-.147-22.851-.147-22.75 0-27.241 25.738-47.939 52.526-40.102z"
          fill="#fff3e4"/>
    <path d="m251.526 277.645c9.927 2.904 9.571 17.039-.51 19.351-17.604 4.035-32.45 19.555-32.016 40.004.016.765.057 1.514.075 2.249.316 12.764-18.853 13.971-19.928 1.248-.251-2.966-.147-22.851-.147-22.75 0-27.241 25.738-47.939 52.526-40.102z"
          fill="#fff3e4"/>
    <path d="m406.526 277.645c9.927 2.904 9.571 17.039-.51 19.351-17.604 4.035-32.45 19.555-32.016 40.004.016.765.057 1.514.075 2.249.316 12.764-18.853 13.971-19.928 1.248-.251-2.966-.147-22.851-.147-22.75 0-27.241 25.738-47.939 52.526-40.102z"
          fill="#f2d1c2"/>
    <path d="m424 369h-29c-18.196 0-33-14.804-33-33v-20c0-18.196 14.804-33 33-33s33 14.804 33 33v20c0 4.418 3.582 8 8 8s8-3.582 8-8v-20c0-27.019-21.981-49-49-49s-49 21.981-49 49c1.352 12.063-5.132 33.713 13.145 53.35-17.743 1.96-33.013 12.237-41.812 26.841-9.807-16.278-27.651-27.19-48-27.19h-29.333c-18.196 0-33-14.804-33-33v-20c0-18.196 14.804-33 33-33s33 14.804 33 33v20c0 4.418 3.582 8 8 8s8-3.582 8-8v-20c0-18.163-9.942-34.038-24.661-42.501 6.719-4.838 14.82-7.499 23.328-7.499h29.333c27.019 0 49-21.981 49-49v-20c0-24.457-18.012-44.785-41.467-48.42-4.116-24.515-23.946-43.363-48.711-46.197 18.309-19.634 11.841-41.475 13.178-53.384 0-27.019-21.981-49-49-49s-49 21.981-49 49c1.362 12.132-5.162 33.716 13.177 53.383-8.083.939-15.874 3.617-22.828 7.897-3.763 2.316-4.936 7.244-2.62 11.006 2.315 3.763 7.244 4.937 11.006 2.62 6.277-3.864 13.515-5.906 20.931-5.906h58.667c18.939 0 34.796 13.029 38.94 30.794-22.867 4.13-40.273 24.167-40.273 48.206 1.362 12.135-5.16 33.711 13.17 53.376-13.061 1.505-25.082 7.536-34.153 17.135-29.623-4.271-56.017 18.777-56.017 48.489 1.362 12.13-5.164 33.72 13.181 53.387-17.616 2.042-32.766 12.281-41.515 26.803-9.807-16.278-27.651-27.19-48-27.19h-29.666c-18.196 0-33-14.804-33-33v-20c0-18.196 14.804-33 33-33s33 14.804 33 33v20c0 4.418 3.582 8 8 8s8-3.582 8-8v-20c0-18.088-9.859-33.906-24.478-42.395 6.745-4.906 14.898-7.605 23.478-7.605h29c27.019 0 49-21.981 49-49v-20c0-24.337-17.837-44.578-41.123-48.358-4.109-24.644-24.095-43.577-49.019-46.295 18.264-19.627 11.804-41.407 13.142-53.347 0-27.019-21.981-49-49-49s-49 21.981-49 49c1.364 12.114-5.175 33.749 13.218 53.425-27.69 3.361-49.218 26.993-49.218 55.575v47c0 4.418 3.582 8 8 8s8-3.576 8-7.994v-47.006c0-22.056 17.944-40 40-40h58.667c18.919 0 34.763 13.001 38.928 30.736-23.026 4-40.595 24.112-40.595 48.264 1.365 12.131-5.172 33.741 13.208 53.416-12.974 1.561-24.889 7.58-33.895 17.132-29.752-4.471-56.313 18.665-56.313 48.452 1.364 12.113-5.175 33.749 13.218 53.425-27.69 3.361-49.218 26.993-49.218 55.575v47c0 4.418 3.582 8 8 8s8-3.582 8-8v-47c0-22.056 17.944-40 40-40h58.667c22.056 0 40.001 17.944 40.001 40v47c0 4.418 3.581 8 7.999 8s8-3.582 8-8v-47c0-22.056 17.944-40 40-40h58.667c22.056 0 39.999 17.944 39.999 40v47c0 4.418 3.582 8 8.001 8s7.999-3.582 7.999-8v-47c0-22.056 17.945-40 40.001-40h58.666c22.056 0 40 17.944 40 40v47c0 4.418 3.582 8 8 8s8-3.582 8-8v-47c0-30.878-25.122-56-56-56zm-217-320c0-18.196 14.804-33 33-33s33 14.804 33 33v20c0 18.196-14.804 33-33 33s-33-14.804-33-33zm77 148c0-18.196 14.804-33 33-33s33 14.804 33 33v20c0 18.196-14.804 33-33 33s-33-14.804-33-33zm-232-148c0-18.196 14.804-33 33-33s33 14.804 33 33v20c0 18.196-14.804 33-33 33s-33-14.804-33-33zm77 148c0-18.196 14.804-33 33-33s33 14.804 33 33v20c0 18.196-14.804 33-33 33s-33-14.804-33-33zm301.782-94.575c18.362-19.643 11.879-41.529 13.218-53.425 0-27.019-21.981-49-49-49s-49 21.981-49 49c1.362 12.159-5.151 33.682 13.136 53.34-6.375.696-12.52 2.47-18.334 5.307-3.971 1.938-5.619 6.727-3.681 10.698 1.938 3.972 6.727 5.621 10.698 3.681 10.994-5.365 13.478-4.026 76.181-4.026 22.056 0 40 17.944 40 40v47.005c0 4.418 3.582 7.995 8 7.995s8-3.582 8-8v-47c0-28.582-21.528-52.214-49.218-55.575zm-68.782-53.425c0-18.196 14.804-33 33-33s33 14.804 33 33v20c0 18.196-14.804 33-33 33s-33-14.804-33-33z"/>
</svg>