<svg height="512" viewBox="0 0 504.5 504.5" width="512" xmlns="http://www.w3.org/2000/svg">
    <g>
        <path d="m465.093 504.5c-4.143 0-7.5-3.358-7.5-7.5v-34.236c0-4.142 3.357-7.5 7.5-7.5s7.5 3.358 7.5 7.5v34.236c0 4.142-3.358 7.5-7.5 7.5z"
              fill="#e9edf1"/>
        <path d="m360.589 372.81c-4.143 0-7.5-3.358-7.5-7.5v-31.851c0-4.142 3.357-7.5 7.5-7.5s7.5 3.358 7.5 7.5v31.851c0 4.142-3.358 7.5-7.5 7.5z"
              fill="#a6e7f0"/>
        <path d="m460.004 276.116 5.27 1.617 4.907-1.617c15.7 0 28.427-12.727 28.427-28.427v-27.993l-33.334-5.736-33.697 5.736v27.993c0 15.7 12.727 28.427 28.427 28.427z"
              fill="#ffe5c2"/>
        <path d="m476.809 219.696v27.993c0 13.708-9.704 25.148-22.616 27.83 1.876.39 3.819.596 5.811.596l5.27 1.617 4.907-1.617c15.7 0 28.427-12.727 28.427-28.427v-27.993l-15.245-2.623z"
              fill="#fed2a4"/>
        <path d="m458.634 276.116h28.439c7.941 0 14.378 6.437 14.378 14.378v100.306l-37.601 6.737-35.116-6.737-5.992-25.491 5.992-25.15v-34.143c0-16.513 13.387-29.9 29.9-29.9z"
              fill="#a6e7f0"/>
        <path d="m487.073 276.116h-21.799c7.941 0 14.378 6.437 14.378 14.378v100.306h21.799v-100.306c0-7.941-6.437-14.378-14.378-14.378z"
              fill="#6bd9e7"/>
        <path d="m428.734 441.949 18.598 6.832 17.148-6.832c20.418 0 36.971-16.552 36.971-36.971v-14.178h-72.717l-5.992 22.58z"
              fill="#cdbfba"/>
        <path d="m479.652 390.8v14.178c0 20.418-16.552 36.971-36.971 36.971l12.778 3.594 9.021-3.594c20.418 0 36.971-16.552 36.971-36.971v-14.178z"
              fill="#b9acac"/>
        <path d="m428.734 441.949h58.585c7.805 0 14.132 6.327 14.132 14.132v.05c0 7.805-6.327 14.132-14.132 14.132h-58.585z"
              fill="#5d5360"/>
        <path d="m487.319 441.949h-21.799c7.805 0 14.132 6.327 14.132 14.132v.05c0 7.805-6.327 14.132-14.132 14.132h21.799c7.805 0 14.132-6.327 14.132-14.132v-.05c0-7.805-6.327-14.132-14.132-14.132z"
              fill="#4b3f4e"/>
        <path d="m430.095 184.528h52.262c8.975 0 16.251 7.276 16.251 16.251v18.918h-68.513c-9.694 0-17.553-7.859-17.553-17.553v-.062c0-9.695 7.859-17.554 17.553-17.554z"
              fill="#ffe270"/>
        <path d="m482.357 184.528h-21.799c8.975 0 16.25 7.276 16.25 16.251v18.918h21.799v-18.918c.001-8.975-7.274-16.251-16.25-16.251z"
              fill="#ffd15b"/>
        <path d="m487.022 276.116h.051c7.941 0 14.378 6.437 14.378 14.378v49.71l-14.404 6.84-14.404-6.885v-49.665c.001-7.941 6.438-14.378 14.379-14.378z"
              fill="#2ed1e2"/>
        <path d="m410.15 340.159h91.301v.045c0 13.865-11.24 25.105-25.105 25.105h-47.612l-16.316 4.26-19.205-4.26v-8.213c0-9.354 7.583-16.937 16.937-16.937z"
              fill="#ffe5c2"/>
        <path d="m479.652 340.159v.045c0 13.865-11.24 25.105-25.105 25.105h21.799c13.865 0 25.105-11.24 25.105-25.105v-.045z"
              fill="#fed2a4"/>
        <path d="m360.563 333.458h.052c8.036 0 14.55-6.514 14.55-14.55v-11.266c0-3.736-3.029-6.765-6.765-6.765h-15.621c-3.736 0-6.765 3.029-6.765 6.765v11.266c0 8.036 6.514 14.55 14.549 14.55z"
              fill="#daf3f6"/>
        <path d="m143.911 372.81c-4.143 0-7.5-3.358-7.5-7.5v-39.351c0-4.142 3.357-7.5 7.5-7.5s7.5 3.358 7.5 7.5v39.351c0 4.142-3.357 7.5-7.5 7.5z"
              fill="#a6e7f0"/>
        <path d="m39.407 504.5c-4.143 0-7.5-3.358-7.5-7.5v-34.236c0-4.142 3.357-7.5 7.5-7.5s7.5 3.358 7.5 7.5v34.236c0 4.142-3.357 7.5-7.5 7.5z"
              fill="#e9edf1"/>
        <path d="m44.496 276.116-5.089 2.04-5.089-2.04c-15.7 0-28.427-12.727-28.427-28.427v-27.993l33.515-10.968 33.516 10.968v27.993c.001 15.7-12.726 28.427-28.426 28.427z"
              fill="#fed2a4"/>
        <path d="m51.124 219.696v27.993c0 13.708-9.704 25.148-22.616 27.83 1.876.39 3.819.596 5.811.596l5.089 2.04 5.089-2.04c15.7 0 28.427-12.727 28.427-28.427v-27.993l-12.741-4.17z"
              fill="#ffbd86"/>
        <path d="m79.8 362.06-4.03 28.74-35.1 5.89-37.62-5.89v-100.31c0-7.94 6.44-14.37 14.38-14.37h28.44c16.51 0 29.9 13.38 29.9 29.9v34.14z"
              fill="#a2aee6"/>
        <path d="m79.8 362.06-4.03 28.74h-21.8v-84.78c0-16.52-13.39-29.9-29.9-29.9h21.8c16.51 0 29.9 13.38 29.9 29.9v34.14z"
              fill="#8795de"/>
        <path d="m75.766 441.949-18.113 5.706-17.633-5.706c-20.418 0-36.971-16.552-36.971-36.971v-14.178h72.717l4.034 25.574z"
              fill="#a6e7f0"/>
        <path d="m53.967 390.8v51.149l11.836 3.139 9.963-3.139 4.034-25.574-4.034-25.575z" fill="#6bd9e7"/>
        <path d="m75.766 441.949h-58.585c-7.805 0-14.132 6.327-14.132 14.132v.05c0 7.805 6.327 14.132 14.132 14.132h58.585l4.034-14.158z"
              fill="#5d5360"/>
        <path d="m53.967 441.949v28.315h21.799l4.034-14.157-4.034-14.158z" fill="#4b3f4e"/>
        <path d="m56.672 184.528h-34.53c-8.975 0-16.251 7.276-16.251 16.251v18.918h67.031v-18.918c.001-8.975-7.275-16.251-16.25-16.251z"
              fill="#5d5360"/>
        <path d="m56.672 184.528h-21.798c8.975 0 16.25 7.276 16.25 16.251v18.918h21.799v-18.918c0-8.975-7.276-16.251-16.251-16.251z"
              fill="#4b3f4e"/>
        <path d="m17.478 276.116h-.051c-7.941 0-14.378 6.437-14.378 14.378v49.71l15.186 9.468 13.622-9.513v-49.665c-.001-7.941-6.438-14.378-14.379-14.378z"
              fill="#8795de"/>
        <path d="m94.35 340.159h-91.301v.045c0 13.865 11.24 25.105 25.105 25.105h47.612l16.153 3.931 19.368-3.931v-8.213c0-9.354-7.583-16.937-16.937-16.937z"
              fill="#fed2a4"/>
        <path d="m94.35 340.159h-21.799c9.354 0 16.937 7.583 16.937 16.937v8.213l9.106 2.576 12.693-2.576v-8.213c0-9.354-7.583-16.937-16.937-16.937z"
              fill="#ffbd86"/>
        <path d="m143.937 333.458h-.052c-8.036 0-14.55-6.514-14.55-14.55v-11.573c0-3.567 2.891-6.458 6.458-6.458h16.235c3.567 0 6.458 2.891 6.458 6.458v11.573c0 8.036-6.514 14.55-14.549 14.55z"
              fill="#daf3f6"/>
        <circle cx="288.606" cy="185.358" fill="#c38c66" r="15.29"/>
        <path d="m257.339 276.116-5.089 2.04-5.089-2.04c-15.7 0-28.427-12.727-28.427-28.427v-14.761l19.023-13.232h48.008v27.993c.001 15.7-12.727 28.427-28.426 28.427z"
              fill="#ffe5c2"/>
        <path d="m263.966 219.696v27.993c0 13.708-9.704 25.148-22.616 27.83 1.876.39 3.819.596 5.811.596l5.089 2.04 5.089-2.04c15.7 0 28.427-12.727 28.427-28.427v-27.993h-21.8z"
              fill="#fed2a4"/>
        <path d="m290.189 276.116h-1.581l-36.358 9.173-36.358-9.173h-1.581c-15.037 0-27.227 12.19-27.227 27.227v61.967l65.166 12.519 65.166-12.519v-61.967c0-15.037-12.19-27.227-27.227-27.227z"
              fill="#fd3581"/>
        <g fill="#fe5694">
            <path d="m215.892 276.116h72.717v89.193h-72.717z"/>
            <path d="m215.892 276.116h72.717v89.193h-72.717z"/>
            <path d="m288.608 276.116h-72.716v89.193l36.358 6.512 36.358-6.512z"/>
        </g>
        <path d="m285.766 219.696v-1.653c0-18.51-15.005-33.515-33.515-33.515-18.51 0-33.515 15.005-33.515 33.515v14.884z"
              fill="#d19a6e"/>
        <path d="m285.77 218.04v1.66l-21.8 4.3v-5.96c0-14.69-9.46-27.17-22.62-31.69 3.42-1.17 7.08-1.82 10.9-1.82 18.51 0 33.52 15 33.52 33.51z"
              fill="#c38c66"/>
        <path d="m252.25 73.36c-4.143 0-7.5-3.358-7.5-7.5v-58.36c0-4.142 3.357-7.5 7.5-7.5s7.5 3.358 7.5 7.5v58.36c0 4.142-3.357 7.5-7.5 7.5z"
              fill="#e9edf1"/>
        <path d="m75.766 365.309v48.071 80.496c0 5.867 4.756 10.623 10.623 10.623h331.722c5.867 0 10.623-4.756 10.623-10.623v-80.496-48.071z"
              fill="#d19a6e"/>
        <path d="m428.73 365.31v128.57c0 5.86-4.75 10.62-10.62 10.62h-18.6c5.87 0 10.63-4.76 10.63-10.62v-128.57z"
              fill="#c38c66"/>
        <path d="m211.958 87.54 34.24-25.463c3.593-2.672 8.512-2.672 12.105 0l34.24 25.463c4.261 3.169 6.772 8.166 6.772 13.475 0 9.275-7.519 16.793-16.793 16.793h-60.542c-9.275 0-16.793-7.519-16.793-16.793-.001-5.309 2.51-10.306 6.771-13.475z"
              fill="#5d5360"/>
        <path d="m292.18 87.271-33.878-25.194c-3.593-2.672-8.512-2.672-12.105 0l-4.947 3.679 28.931 21.515c4.331 3.221 7.1 8.24 7.133 13.638.058 9.323-7.483 16.9-16.793 16.9h21.998c9.31 0 16.851-7.576 16.793-16.9-.032-5.397-2.8-10.416-7.132-13.638z"
              fill="#4b3f4e"/>
        <path d="m75.77 390.8h352.964v15h-352.964z" fill="#c38c66"/>
    </g>
</svg>