<svg height="512" viewBox="0 0 497 497" width="512" xmlns="http://www.w3.org/2000/svg">
    <g>
        <path d="m105.064 328.068-26.658 8.512c-22.871 7.303-39.553 27.041-42.942 50.809l-11.493 98.06c-.72 6.147 4.083 11.546 10.272 11.546h70.821l19.388-80.224z"
              fill="#daf3f6"/>
        <path d="m82.499 335.273v161.722h22.565l19.388-80.224-19.388-88.703z" fill="#a6e7f0"/>
        <path d="m391.936 328.068 26.658 8.512c22.871 7.303 39.553 27.041 42.942 50.809l11.493 98.06c.72 6.147-4.083 11.546-10.272 11.546h-70.821l-5.069-88.858z"
              fill="#daf3f6"/>
        <path d="m461.536 387.389c-3.389-23.769-20.071-43.506-42.942-50.809l-26.658-8.512c22.871 7.303 43.646 35.553 47.035 59.321l12.846 109.606h10.94c6.189 0 10.993-5.399 10.272-11.546z"
              fill="#a6e7f0"/>
        <path d="m391.935 328.069v168.931h-286.87v-168.931l39.929-8.054h207.011z" fill="#5d5360"/>
        <path d="m391.93 328.07v168.93h-22.56v-173.48z" fill="#4b3f4e"/>
        <path d="m352.005 320.015c-5.783 52.051-49.914 92.514-103.505 92.514s-97.722-40.463-103.506-92.514l33-6.655h141.011z"
              fill="#daf3f6"/>
        <path d="m352.01 320.02c-5.79 52.05-49.92 92.51-103.51 92.51-3.81 0-7.58-.21-11.28-.61 48.39-5.21 87.31-48.01 92.68-96.36z"
              fill="#a6e7f0"/>
        <g>
            <path d="m248.5 384.66c-4.142 0-7.5-3.358-7.5-7.5v-44.33c0-4.142 3.358-7.5 7.5-7.5s7.5 3.358 7.5 7.5v44.33c0 4.142-3.358 7.5-7.5 7.5z"
                  fill="#a6e7f0"/>
        </g>
        <path d="m210.954 242.51h75.092v64.205l-12.085 16.805-25.461 9.31-27.52-12.815-10.026-13.3z" fill="#ffe5c2"/>
        <path d="m263.48 242.51v56.568c0 4.785-2.342 9.266-6.27 11.998l-19.993 13.906.003 2.595 11.28 5.253 25.461-9.31 12.085-16.805v-64.205z"
              fill="#fed2a4"/>
        <path d="m248.5 332.83 21.319 21.291c4.934 4.928 13.057 4.473 17.409-.976l31.778-39.785-32.96-6.645z"
              fill="#a6e7f0"/>
        <path d="m319.01 313.36-31.78 39.78c-4.35 5.45-12.48 5.91-17.41.98l-4.61-4.6c1.94-.71 3.73-1.94 5.13-3.69l29.18-36.4z"
              fill="#6bd9e7"/>
        <path d="m248.5 332.83-21.319 21.291c-4.934 4.928-13.057 4.473-17.409-.976l-31.778-39.785 32.96-6.645z"
              fill="#a6e7f0"/>
        <path d="m210.954 306.715-17.494 3.527 25.547 17.769c3.603 2.506 4.049 7.667.929 10.753l-5.007 4.954c-2.763 2.759-6.525 3.828-10.065 3.281l4.909 6.146c4.352 5.449 12.475 5.904 17.409.977l21.318-21.292z"
              fill="#6bd9e7"/>
        <path d="m368.85 73.19v25.64l-14.79 96.12-.01 14.27c0 29.6-24 53.59-53.6 53.59h-103.9c-29.6 0-53.6-23.99-53.6-53.59l-.01-14.27-14.79-96.12v-25.64c0-40.42 32.77-73.19 73.19-73.19h94.32c40.42 0 73.19 32.77 73.19 73.19z"
              fill="#ffe5c2"/>
        <path d="m368.85 73.19v25.64l-14.79 96.12-.01 14.27c0 29.6-24 53.59-53.6 53.59h-22.44c29.54-.06 53.48-24.03 53.48-53.59v-119.87c0-6.35 2.57-12.11 6.74-16.28.28-.28.56-.55.85-.81 4.45-4.01 6.62-10 5.25-15.84-7.58-32.34-36.58-56.42-71.24-56.42h22.57c40.42 0 73.19 32.77 73.19 73.19z"
              fill="#fed2a4"/>
        <path d="m142.94 89.35v41.84l-22.56 10.58-23.46 11.01v-63.43c0-6.35 2.58-12.11 6.74-16.28 1.48-1.48 3.15-2.75 4.99-3.78 3.33-1.89 7.18-2.96 11.28-2.96 12.71 0 23.01 10.31 23.01 23.02z"
              fill="#e9edf1"/>
        <path d="m142.94 89.35v41.84l-22.56 10.58v-52.42c0-8.61-4.73-16.11-11.73-20.06 3.33-1.89 7.18-2.96 11.28-2.96 12.71 0 23.01 10.31 23.01 23.02z"
              fill="#c8d2dc"/>
        <path d="m400.08 89.35v63.43l-22.56-10.58-23.46-11.01v-41.84c0-6.35 2.58-12.11 6.74-16.28 1.48-1.48 3.15-2.75 4.99-3.78 3.33-1.89 7.18-2.96 11.28-2.96 12.71 0 23.01 10.31 23.01 23.02z"
              fill="#e9edf1"/>
        <path d="m400.08 89.35v63.43l-22.56-10.58v-52.85c0-8.61-4.73-16.11-11.73-20.06 3.33-1.89 7.18-2.96 11.28-2.96 12.71 0 23.01 10.31 23.01 23.02z"
              fill="#c8d2dc"/>
        <path d="m142.944 194.945h-25.013c-11.606 0-21.014-9.408-21.014-21.014v-21.725c0-11.606 9.408-21.014 21.014-21.014h25.013z"
              fill="#ffe5c2"/>
        <path d="m120.378 131.191h22.565v63.754h-22.565z" fill="#fed2a4"/>
        <path d="m379.069 194.945h-25.013v-63.754h25.013c11.606 0 21.014 9.408 21.014 21.014v21.725c0 11.607-9.408 21.015-21.014 21.015z"
              fill="#ffe5c2"/>
        <path d="m379.069 131.191h-22.565c11.606 0 21.014 9.408 21.014 21.014v21.725c0 11.606-9.408 21.014-21.014 21.014h22.565c11.606 0 21.014-9.408 21.014-21.014v-21.725c0-11.605-9.408-21.014-21.014-21.014z"
              fill="#fed2a4"/>
        <g>
            <g>
                <path d="m204.708 444.979h36.883v36.883h-36.883z" fill="#d19a6e"
                      transform="matrix(.707 .707 -.707 .707 393.046 -22.058)"/>
            </g>
            <g>
                <path d="m256.254 444.979h36.883v36.883h-36.883z" fill="#c38c66"
                      transform="matrix(.707 .707 -.707 .707 408.144 -58.507)"/>
            </g>
        </g>
        <g>
            <path d="m255.579 171.08h-7.079c-4.142 0-7.5-3.358-7.5-7.5v-19.933c0-4.142 3.358-7.5 7.5-7.5s7.5 3.358 7.5 7.5v12.445c3.946.218 7.079 3.487 7.079 7.488 0 4.142-3.358 7.5-7.5 7.5z"
                  fill="#fed2a4"/>
        </g>
        <g>
            <g>
                <path d="m194.439 154.547c-4.142 0-7.5-3.358-7.5-7.5v-6.801c0-4.142 3.358-7.5 7.5-7.5s7.5 3.358 7.5 7.5v6.801c0 4.142-3.357 7.5-7.5 7.5z"
                      fill="#5d5360"/>
            </g>
            <g>
                <path d="m302.561 154.547c-4.142 0-7.5-3.358-7.5-7.5v-6.801c0-4.142 3.358-7.5 7.5-7.5s7.5 3.358 7.5 7.5v6.801c0 4.142-3.358 7.5-7.5 7.5z"
                      fill="#5d5360"/>
            </g>
        </g>
        <g>
            <path d="m248.5 221.535c-13.311 0-25.386-6.8-32.3-18.19-2.149-3.541-1.021-8.154 2.519-10.303 3.542-2.15 8.154-1.021 10.303 2.519 4.171 6.872 11.453 10.974 19.478 10.974s15.307-4.103 19.478-10.974c2.149-3.54 6.763-4.668 10.303-2.519 3.541 2.149 4.668 6.762 2.519 10.303-6.914 11.39-18.989 18.19-32.3 18.19z"
                  fill="#fed2a4"/>
        </g>
        <g>
            <path d="m274.389 42.595h-51.778c-4.142 0-7.5-3.358-7.5-7.5s3.358-7.5 7.5-7.5h51.778c4.142 0 7.5 3.358 7.5 7.5s-3.358 7.5-7.5 7.5z"
                  fill="#fed2a4"/>
        </g>
        <g>
            <path d="m263.214 72.892h-29.429c-4.142 0-7.5-3.358-7.5-7.5s3.358-7.5 7.5-7.5h29.429c4.142 0 7.5 3.358 7.5 7.5s-3.358 7.5-7.5 7.5z"
                  fill="#fed2a4"/>
        </g>
        <path d="m326.932 455.92h-23.05l-23.883-23.883c-2.929-2.929-7.678-2.929-10.606 0l-20.47 20.47-20.47-20.47c-2.929-2.93-7.678-2.929-10.606 0l-23.884 23.883h-23.895c-4.142 0-7.5 3.358-7.5 7.5s3.358 7.5 7.5 7.5h23.895l23.884 23.883c1.464 1.464 3.384 2.197 5.303 2.197s3.839-.732 5.303-2.197l20.47-20.47 20.47 20.47c1.464 1.464 3.384 2.197 5.303 2.197s3.839-.732 5.303-2.197l23.883-23.883h23.05c4.142 0 7.5-3.358 7.5-7.5s-3.358-7.5-7.5-7.5zm-103.783 22.974-15.474-15.474 15.474-15.474 15.474 15.474zm51.547 0-15.474-15.474 15.474-15.474 15.474 15.474z"
              fill="#4b3f4e"/>
    </g>
</svg>