<svg version="1.1" xmlns="http://www.w3.org/2000/svg"
     viewBox="0 0 512 512">
    <path style="fill:#6C7D87;" d="M390.642,478.041c-0.35-1.758-21.698-109.003-21.933-110.105
	c-2.563-12.413-9.51-21.924-19.705-28.049c-6.112-3.687-9.582-4.274-13.545-5.492c2.785,0.973-51.086-17.855-72.794-25.442
	c-4.297-1.473-7.182-5.514-7.182-10.056v-22.291c-27.883,13.941-57.12,13.061-83.073,0.396v21.895c0,4.543-2.885,8.582-7.182,10.056
	c-3.06,1.049,11.084-3.801-29.924,10.261h-0.028c0.001,0.003,0.003,0.005,0.003,0.005l-0.003,0.004l-42.811,15.17
	c-1.976,0.583-5.881,1.735-5.632,1.662c-10.185,3.799-19.016,11.012-23.965,21.099c-3.426,6.948-2.409,4.508-19.033,87.956
	c-6.156,31.874-7.514,34.196-6.744,41.318c2.142,19.905,22.617,17.828,23.171,18.07c39.258,0,157.559,0,153.832,0
	c0.413,0,18.105,0,17.005,0c27.338,0,124.252,0,136.562,0C367.877,504.425,394.658,506.465,390.642,478.041z"/>
    <path style="fill:#566A75;" d="M62.28,478.041l21.932-120.107c-0.304,1.459,1.628-16.066,18.114-27.036
	c-18.413,6.524-12.706,3.914-18.366,6.339c-10.685,4.826-18.971,13.024-23.056,24.578c-1.635,4.64-0.575,0.561-17.071,83.294
	c-6.156,31.874-7.514,34.2-6.744,41.318c2.142,19.905,22.617,17.829,23.171,18.07c2.44,0,21.992,0,25.004,0
	C67.622,504.499,59.998,494.182,62.28,478.041z"/>
    <path style="fill:#DD9A5E;" d="M105.511,504.499c-14.276,0-30.72,0-45.253,0c-0.58-0.253-23.917,2.091-23.334-22.237
	c0.127-5.187,0.776-5.406,6.907-37.151l0.354-1.779h61.326V504.499z"/>
    <path style="fill:#D18C54;" d="M68.618,443.332H44.187l-0.354,1.778c-6.152,31.856-6.779,31.956-6.907,37.151
	c-0.582,24.248,22.874,22.037,23.334,22.237c2.44,0,21.992,0,25.004,0c-16.249,0-23.661-8.548-23.333-22.237
	C61.969,480.673,62.56,477.351,68.618,443.332z"/>
    <path style="fill:#DD9A5E;" d="M172.409,276.068c0,62.181,0-9.995,0.001,38.98h0.026v1.497c0,9.949,6.354,18.792,15.788,21.951
	c15.14,5.069,34.577,5.647,51.442,0c9.434-3.159,15.788-12.002,15.788-21.951v-1.497h0.026c0-9.745,0.001-33.766,0.001-38.98
	C228.566,290.419,198.22,289.831,172.409,276.068z"/>
    <path style="fill:#D18C54;" d="M197.446,323.361h-0.032c-0.002-52.059-0.001-34.713-0.001-38.349
	c-8.629-1.729-17.045-4.7-25.004-8.945c0,62.181,0-9.995,0.001,38.98h0.026v1.497c0,9.949,6.354,18.792,15.788,21.951
	c4.665,1.562,9.592,2.69,14.707,3.343C196.571,333.206,197.542,324.022,197.446,323.361z"/>
    <path style="fill:#566A75;" d="M105.512,418.796c-4.143,0-7.501,3.358-7.501,7.501v78.202c5.203,0,9.419,0,15.003,0v-78.202
	C113.014,422.153,109.655,418.796,105.512,418.796z"/>
    <path style="fill:#C6C6C6;" d="M456.796,504.499H213.945c-10.133,0-18.347-8.214-18.347-18.347l0,0
	c0-5.807,4.708-10.515,10.515-10.515h258.514c5.807,0,10.515,4.708,10.515,10.515l0,0
	C475.142,496.285,466.928,504.499,456.796,504.499z"/>
    <path style="fill:#B7B7B7;" d="M242.854,486.153L242.854,486.153c0-5.807,4.708-10.515,10.515-10.515h-47.256
	c-5.807,0-10.515,4.708-10.515,10.515l0,0c0,10.133,8.214,18.346,18.347,18.346h47.256
	C251.068,504.499,242.854,496.286,242.854,486.153z"/>
    <path style="fill:#EDEDED;" d="M440.888,315.049H229.852c-6.601,0-12.002,5.401-12.002,12.002v136.585
	c0,6.601,5.401,12.002,12.002,12.002h211.036c6.601,0,12.002-5.401,12.002-12.002V327.051
	C452.89,320.45,447.489,315.049,440.888,315.049z"/>
    <g>
        <path style="fill:#DADADA;" d="M242.854,463.636V327.051c0-6.601,5.401-12.002,12.002-12.002h-25.004
		c-6.601,0-12.002,5.401-12.002,12.002v136.585c0,6.601,5.401,12.002,12.002,12.002h25.004
		C248.255,475.638,242.854,470.237,242.854,463.636z"/>
        <circle style="fill:#DADADA;" cx="335.368" cy="395.338" r="17.336"/>
    </g>
    <path style="fill:#C6C6C6;" d="M335.378,378.02c-13.218-0.021-21.734,14.365-15.022,25.99c6.714,11.63,23.43,11.439,30.019-0.013
	C337.041,403.979,328.715,389.598,335.378,378.02z"/>
    <path style="fill:#4C4846;" d="M211.684,7.615C147.072,7.862,92.525,60.607,92.525,127.618v45.479h240.04c0-43.097,0-29.48,0-68.037
	c0-46.472-28.591-57.177-28.591-57.177C268.418,4.043,211.732,7.615,211.732,7.615"/>
    <path style="fill:#3D3938;" d="M227.897,8.332C154.671-0.004,95.082,55.264,92.627,122.889c-0.189,4.862-0.062,3.044-0.102,50.208
	h28.591v-45.479C121.116,65.539,168.108,14.894,227.897,8.332z"/>
    <g>
        <path style="fill:#DD9A5E;" d="M121.116,158.816c-15.054-5.365-31.396,4.613-31.396,19.167c0,14.551,16.34,24.532,31.396,19.167
		V158.816z"/>
        <path style="fill:#DD9A5E;" d="M303.974,158.816c15.054-5.365,31.396,4.613,31.396,19.167c0,14.551-16.34,24.532-31.396,19.167
		V158.816z"/>
    </g>
    <g>
        <path style="fill:#D18C54;" d="M91.918,169.17c-8.794,16.694,9.721,34.921,29.198,27.981v-17.628
		C109.758,183.57,97.057,178.927,91.918,169.17z"/>
        <path style="fill:#D18C54;" d="M303.974,179.523v17.628c19.476,6.94,37.991-11.287,29.198-27.981
		C329.495,176.152,315.336,183.572,303.974,179.523z"/>
    </g>
    <path style="fill:#EDAE6B;" d="M299.849,120.836c2.331,0.225,4.126,2.159,4.126,4.502c0,76.977,0.05,71.166-0.129,74.745
	c-1.186,23.413-11.2,44.911-27.485,60.8c-57.07,55.645-152.302,16.182-155.167-61.87c-0.133-3.441-0.078-43.31-0.078-43.198
	c0-17.926,15.91-31.603,33.652-29.043c27.945,4.034,68.733,2.466,104.324-27.956c3.658-3.127,9.208-2.116,11.543,2.09
	C275.044,108.848,283.814,119.289,299.849,120.836z"/>
    <path style="fill:#DD9A5E;" d="M146.209,199.014c-0.115-2.952-0.09-56.959-0.081-72.216c-13.956,2.093-25.013,14.075-25.013,29.018
	c0-0.112-0.056,39.757,0.078,43.198c2.111,57.548,54.436,94.109,104.656,87.048C184.616,280.361,147.97,246.98,146.209,199.014z"/>
    <path d="M310.522,395.342c0,13.695,11.142,24.838,24.837,24.838s24.838-11.143,24.838-24.838s-11.143-24.837-24.838-24.837
	S310.522,381.647,310.522,395.342z M345.194,395.342c0,5.424-4.412,9.836-9.836,9.836c-5.423,0-9.835-4.412-9.835-9.836
	c0-5.423,4.412-9.835,9.835-9.835C340.783,385.508,345.194,389.92,345.194,395.342z"/>
    <path d="M464.616,468.137h-4.782c1.026-4.321,0.343-1.157,0.545-77.583c0-4.144-3.358-7.501-7.501-7.501
	c-4.144,0-7.501,3.358-7.501,7.501v73.083c0,2.439-2.061,4.501-4.501,4.501H229.84c-2.439,0-4.501-2.061-4.501-4.501
	c0-12.047,0-119.433,0-136.585c0-2.439,2.061-4.501,4.501-4.501h211.036c2.439,0,4.501,2.061,4.501,4.501v28.496
	c0,4.144,3.358,7.501,7.501,7.501c4.144,0,7.501-3.358,7.501-7.501v-28.496c0-10.754-8.749-19.503-19.503-19.503H281.813
	l-16.728-5.69c-1.264-0.434-2.112-1.622-2.112-2.96v-18.384c27.227-16.182,44.723-44.032,47.916-74.439
	c22.956,1.064,38.692-20.855,29.167-39.863V105.06c0-44.224-24.051-59.608-31.399-63.276c-42.378-50.59-129.727-57.95-183.399-7.108
	c-4.95,4.648-1.624,12.97,5.137,12.97c5.525,0,4.682-3.868,21.758-14.97c1.265-0.821,3.717-2.268,3.616-2.208
	C200,3.919,265.245,12.052,298.137,52.61c0.842,1.037,1.867,1.802,3.119,2.27c0.972,0.39,23.797,9.996,23.797,50.181v47.344
	c-4.162-1.762-8.724-2.665-13.588-2.529v-24.536c0-6.224-4.689-11.368-10.906-11.968c-12.606-1.217-19.67-9.431-23.377-16.106
	c-4.639-8.354-15.714-10.356-22.975-4.151c-33.447,28.593-71.957,30.045-98.378,26.234c-20.021-2.891-38.527,10.774-41.745,30.537
	c-4.856-0.21-9.656,0.649-14.067,2.518c0.47-23.36-3.497-48.647,15.008-80.914c2.061-3.594,0.818-8.177-2.774-10.239
	c-3.595-2.062-8.178-0.818-10.239,2.774c-11.286,19.68-16.743,42.415-16.889,58.574c-0.187,4.838-0.074,3.067-0.107,43.612
	c-9.538,19.034,6.26,40.925,29.167,39.863c3.287,31.293,21.833,60.128,50.717,76.054v16.769c0,1.337-0.85,2.525-2.109,2.958
	c-29.733,10.395,5.306-2.245-72.648,25.399c-6.805,2.017-5.296,1.492-7.982,2.587c-16.72,7.023-27.053,20.452-30.393,36.967
	c-23.399,117.529-22.51,110.865-22.351,117.255l0,0C30.144,502.591,41.996,512,60.249,512c0.297,0,153.822,0,153.684,0
	c15.218,0,9.365,0,24.582,0c4.144,0,7.501-3.358,7.501-7.501c0-4.144-3.358-7.501-7.501-7.501h-24.581
	c-10.485-0.002-13.957-13.858-7.831-13.858c16.842,0,248.934,0,258.514,0c6.136,0,2.624,13.858-7.831,13.858H273.521
	c-4.144,0-7.501,3.358-7.501,7.501c0,4.144,3.358,7.501,7.501,7.501h183.263c14.252,0,25.847-11.596,25.847-25.848
	C482.632,476.218,474.551,468.137,464.616,468.137z M179.899,288.81c31.693,11.023,56.636,2.278,58.331,2.149l-0.017-0.061
	l0.101-0.028l0.018,0.061c2.613-0.85,3.491-0.787,9.638-3.152c0,4.975,0,14.681,0,19.766h-18.129
	c-10.754,0-19.503,8.75-19.503,19.503c0,0.189,0,7.986,0,7.886c-6.816-0.252-13.444-1.444-19.742-3.555
	c-6.381-2.136-10.668-8.099-10.668-14.837C179.909,298.343,179.956,309.457,179.899,288.81z M327.859,177.983
	c0,7.806-7.826,13.554-16.394,13.101v-26.202C320.114,164.426,327.859,170.253,327.859,177.983z M299.117,128.303L299.117,128.303
	c-0.003,0-0.008,0-0.013-0.001C299.109,128.303,299.112,128.303,299.117,128.303z M97.21,177.983
	c0-7.806,7.826-13.554,16.394-13.101v26.202C104.954,191.542,97.21,185.713,97.21,177.983z M128.726,199.693
	c-0.19-3.471-0.097-2.216-0.12-40.877c0.225-1.26-1.614-11.57,7.529-19.489c4.82-4.175,11.218-6.043,17.55-5.13
	c29.483,4.259,72.551,2.563,110.269-29.678l0.111,0.029l0,0c7.245,13.048,18.678,21.285,32.397,23.421
	c0,67.803,0.879,74.413-2.492,87.835c-2.074,8.295-5.653,16.669-10.007,23.697C239.943,309.076,132.828,281.724,128.726,199.693z
	 M60.248,496.998c-12.841,0-15.143-6.077-15.713-11.372c-0.594-5.52,0.63-7.996,5.795-34.793h47.669v46.165L60.248,496.998
	L60.248,496.998z M206.102,468.137c-12.189,0-21.752,11.807-16.553,26.58c0.215,0.611,0.579,1.542,0.923,2.282h-77.47
	c0-51.907,0-17.893,0-70.701c0-4.144-3.358-7.501-7.501-7.501s-7.501,3.358-7.501,7.501v9.534H53.317
	c14.15-71.02,13.338-68.048,14.881-72.141c3.088-8.108,7.688-12.853,14.288-17.209c5.869-3.385,6.534-3.198,12.044-4.879
	c0.397-0.113-2.253,0.808,43.238-15.307c0,0,0.002-0.001,0.004-0.001l27.169-9.317c0.182,13.018,8.522,24.49,20.89,28.631
	c7.83,2.623,16.063,4.068,24.506,4.328c0.476,114.14-0.683,113.11,0.524,118.201h-4.76V468.137z"/>
</svg>
