<svg xmlns="http://www.w3.org/2000/svg" xmlns:xlink="http://www.w3.org/1999/xlink" id="Layer_1" version="1.1" viewBox="0 0 137.3 139.3" xml:space="preserve" style="enable-background:new 0 0 137.3 139.3"><style type="text/css">.st0{fill:#2c8aaa}.st1{opacity:.19;clip-path:url(#XMLID_79_);fill:#070808}.st2{fill:#fff}.st3{fill:#22728e}</style><circle id="XMLID_240_" cx="68.2" cy="69.6" r="66.2" class="st0"/><g id="XMLID_55_"><defs><circle id="XMLID_56_" cx="68.4" cy="69.6" r="66.2"/></defs><clipPath id="XMLID_79_"><use style="overflow:visible" xlink:href="#XMLID_56_"/></clipPath><polygon id="XMLID_139_" points="70.8 30.5 136.1 81.8 133.6 135.8 88.9 133.9 51.8 105 70.2 99.3" class="st1"/></g><path id="XMLID_280_" d="M60,54.2h21.1V39.7c0,0-0.4-9.2-10.3-9.2s-10.7,9.2-10.7,9.2L60,54.2z" class="st2"/><path id="XMLID_277_" d="M53.5,50.1C53.5,50.1,53.5,50.1,53.5,50.1l0,24.6c0,0,0.2,13.2,16.7,13.2 c16.7,0,16.7-13.2,16.7-13.2V50.1c0,0,0,0,0,0h-3.1c0,0,0,0,0,0v23.1c0,0-0.1,11.1-13.6,11.1c-6,0-9.2-2.6-10.9-5.2 c-1.3-2-2-4.3-2-6.7V50.1c0,0,0,0,0,0H53.5z" class="st2"/><path id="XMLID_274_" d="M59.4,56.2h22.4v16.3c0,0,0.2,9.3-11.2,9.3c-11.9,0-11.2-9.3-11.2-9.3V56.2z" class="st2"/><rect id="XMLID_265_" width="3.7" height="11.5" x="68.6" y="87.2" class="st2"/><path id="XMLID_256_" d="M51.8,105h38.1C89.9,105,72,89,51.8,105z" class="st2"/><path id="XMLID_253_" d="M76.6,57.8h3.1V72c0,0-0.9,8.1-8.6,8.2c0,0,4.7-2.4,5.4-8L76.6,57.8z" class="st3"/></svg>