<svg height="512" viewBox="0 0 497 497" width="512" xmlns="http://www.w3.org/2000/svg">
    <g>
        <path d="m458.59 497h-64.21l-145.88-11.86-145.88 11.86h-64.21c-6.73 0-11.64-6.36-9.94-12.87l9.61-36.82 6.705-7.5-2.795-7.5 4.22-16.18c.83-3.22 1.83-6.37 2.99-9.45 6.49-17.19 18.06-31.55 32.68-41.73 6.39-4.44 13.36-8.08 20.74-10.82 5.74-2.12 11.74-3.7 17.9-4.67l56.73-8.92h142.5l53.91 8.47 2.84.45c6.15.97 12.15 2.54 17.88 4.67.01.01.01.01.02.01 23.54 8.71 42.88 26.7 52.53 50.35 1.54 3.79 2.84 7.67 3.86 11.64l4.22 16.18-2.245 7.5 6.155 7.5 9.61 36.82c1.7 6.51-3.21 12.87-9.94 12.87z"
              fill="#6bd9e7"/>
        <path d="m381.66 99.1v79.23h-266.32v-79.23l133.16-14.9 112.41 12.58z" fill="#5d5360"/>
        <path d="m381.66 99.1v79.23h-20.75v-81.55z" fill="#4b3f4e"/>
        <path d="m139.176 211.343h-26.656c-11.606 0-21.014-9.408-21.014-21.014v-24.001c0-11.606 9.408-21.014 21.014-21.014h26.656l8.66 33.016z"
              fill="#fed2a4"/>
        <path d="m118.431 145.314v66.029h20.745l8.66-33.013-8.66-33.016z" fill="#ffbd86"/>
        <path d="m384.48 211.343h-26.656l-8.203-33.013 8.203-33.016h26.656c11.606 0 21.014 9.408 21.014 21.014v24.001c0 11.606-9.409 21.014-21.014 21.014z"
              fill="#fed2a4"/>
        <path d="m384.479 145.314h-20.745c11.606 0 21.014 9.408 21.014 21.014v24.001c0 11.606-9.408 21.014-21.014 21.014h20.745c11.606 0 21.014-9.408 21.014-21.014v-24.001c.001-11.606-9.408-21.014-21.014-21.014z"
              fill="#ffbd86"/>
        <path d="m394.38 354.13v64.83l-10.37 3.76-10.37-3.76v-69.94l.02-.01 2.84.45c6.15.97 12.15 2.54 17.88 4.67z"
              fill="#2ed1e2"/>
        <path d="m319.75 340.54c0 18.53-11.278 35.165-28.452 42.123-28.149 11.403-57.458 11.4-85.6-.002-17.172-6.957-28.448-23.593-28.448-42.121l35.62-5.61h71.26z"
              fill="#a2aee6"/>
        <path d="m319.75 340.54c0 18.53-11.28 35.17-28.45 42.12-17.46 7.08-35.37 9.76-53.17 8.05 10.89-1.04 21.74-3.72 32.42-8.05 16.38-6.63 28.96-27.17 30.08-45.13z"
              fill="#8795de"/>
        <path d="m207.254 274h41.246 41.246v63.178c0 8.416-5.116 16.077-12.99 19.048-18.199 6.864-38.313 6.864-56.511 0-7.875-2.97-12.99-10.631-12.99-19.048v-63.178z"
              fill="#fed2a4"/>
        <path d="m269.001 274v63.179c0 8.416-5.116 16.077-12.99 19.047-5.807 2.191-11.81 3.674-17.883 4.467 12.958 1.691 26.237.207 38.628-4.467 7.875-2.97 12.99-10.631 12.99-19.047v-63.179z"
              fill="#ffbd86"/>
        <path d="m102.62 354.13v64.83l7.5 34.266-7.5 43.774h-20.74v-132.05c6.39-4.44 13.36-8.08 20.74-10.82z"
              fill="#2ed1e2"/>
        <g>
            <path d="m110.12 439.81c0 4.14-3.36 7.5-7.5 7.5h-64.54l3.91-15h60.63c4.14 0 7.5 3.36 7.5 7.5z"
                  fill="#a2aee6"/>
            <path d="m110.12 439.81c0 4.14-3.36 7.5-7.5 7.5h-20.74v-15h20.74c4.14 0 7.5 3.36 7.5 7.5z" fill="#8795de"/>
        </g>
        <path d="m458.59 497h-15.96c4.4-1.94 6.74-6.8 5.53-11.45l-18.12-69.42c-5.55-21.27-18.27-49.3-35.64-61.99 23.54 8.71 42.88 26.7 52.53 50.35 1.54 3.79 2.84 7.67 3.86 11.64l4.221 16.18-2.246 7.5 6.159 7.5 9.606 36.82c1.7 6.51-3.21 12.87-9.94 12.87z"
              fill="#2ed1e2"/>
        <g>
            <path d="m458.92 447.31h-64.54c-4.14 0-7.5-3.36-7.5-7.5s3.36-7.5 7.5-7.5h60.63z" fill="#a2aee6"/>
            <path d="m458.92 447.31h-20.74l-3.92-15h20.75z" fill="#8795de"/>
        </g>
        <path d="m394.38 418.96v44.7l-145.883 8.712-145.877-8.712v-44.7z" fill="#daf3f6"/>
        <path d="m373.635 418.96v44.7l3.807 1.011 16.938-1.011v-44.7z" fill="#a6e7f0"/>
        <path d="m102.62 463.66h291.76v33.34h-291.76z" fill="#a2aee6"/>
        <path d="m373.635 463.66h20.745v33.34h-20.745z" fill="#8795de"/>
        <path d="m344.169 99.105 13.649 46.209v80.809c0 30.657-24.853 55.51-55.51 55.51h-107.616c-30.657 0-55.51-24.853-55.51-55.51l-.005-80.809 13.654-46.209 95.669-14.905z"
              fill="#fed2a4"/>
        <path d="m344.169 99.104-17.585-2.74-3.16 2.74 11.354 38.44c1.522 5.153 2.295 10.498 2.295 15.871v72.708c0 30.657-24.853 55.51-55.51 55.51h20.745c30.657 0 55.51-24.853 55.51-55.51v-80.809z"
              fill="#ffbd86"/>
        <path d="m381.66 60.48v38.62h-266.32v-38.62c0-33.4 27.08-60.48 60.49-60.48h145.34c33.41 0 60.49 27.08 60.49 60.48z"
              fill="#fe5694"/>
        <path d="m201.083 99.105-20.743-.005v-28.29c0-11.74 9.52-21.26 21.26-21.26l20.744.002z" fill="#fd3581"/>
        <g>
            <path d="m256 0v49.55c0 4.14-3.36 7.5-7.5 7.5s-7.5-3.36-7.5-7.5v-49.55z" fill="#fd3581"/>
        </g>
        <path d="m321.174 0h-20.745c33.405 0 60.485 27.08 60.485 60.485v38.62h20.745v-38.62c0-33.405-27.08-60.485-60.485-60.485z"
              fill="#fd3581"/>
        <path d="m295.92 70.81v77.07c0 5.04-4.23 9.05-9.26 8.79-77.15-3.98-85.58-57.57-85.58-57.57v-28.29c0-11.74 9.52-21.26 21.26-21.26h52.32c11.74 0 21.26 9.52 21.26 21.26z"
              fill="#5d5360"/>
        <path d="m274.656 49.552h-20.745c11.743 0 21.262 9.519 21.262 21.262v28.29 48.774c0 3.014-1.519 5.655-3.812 7.242 4.777.738 9.863 1.273 15.303 1.554 5.03.26 9.254-3.76 9.254-8.796v-48.774-28.29c-.001-11.742-9.52-21.262-21.262-21.262z"
              fill="#4b3f4e"/>
        <g>
            <path d="m255.391 212.659h-6.891c-4.142 0-7.5-3.358-7.5-7.5v-19.404c0-4.142 3.358-7.5 7.5-7.5 4.143 0 7.5 3.358 7.5 7.5v11.929c3.857.31 6.891 3.539 6.891 7.476 0 4.141-3.358 7.499-7.5 7.499z"
                  fill="#ffbd86"/>
        </g>
        <g>
            <g>
                <path d="m189.059 202.957c-4.142 0-7.5-3.358-7.5-7.5v-13.242c0-4.142 3.358-7.5 7.5-7.5s7.5 3.358 7.5 7.5v13.242c0 4.142-3.358 7.5-7.5 7.5z"
                      fill="#5d5360"/>
            </g>
            <g>
                <path d="m307.94 202.957c-4.143 0-7.5-3.358-7.5-7.5v-13.242c0-4.142 3.357-7.5 7.5-7.5s7.5 3.358 7.5 7.5v13.242c0 4.142-3.357 7.5-7.5 7.5z"
                      fill="#5d5360"/>
            </g>
        </g>
        <g>
            <path d="m248.5 256.376c-15.447 0-29.459-7.892-37.483-21.109-2.149-3.541-1.021-8.154 2.519-10.303 3.542-2.15 8.154-1.021 10.303 2.519 5.281 8.7 14.5 13.894 24.661 13.894s19.38-5.194 24.661-13.894c2.149-3.541 6.764-4.668 10.303-2.519 3.541 2.149 4.669 6.762 2.52 10.303-8.025 13.217-22.038 21.109-37.484 21.109z"
                  fill="#ffbd86"/>
        </g>
        <g>
            <path d="m295.92 118.61v15c-30.68 0-52.81-34.01-53.74-35.46-2.23-3.49-1.22-8.13 2.27-10.36s8.12-1.22 10.36 2.26c.23.37 18.7 28.56 41.11 28.56z"
                  fill="#4b3f4e"/>
        </g>
    </g>
</svg>