<svg height="512" viewBox="0 0 497.001 497.001" width="512" xmlns="http://www.w3.org/2000/svg">
    <g>
        <path d="m456.52 497.001h-416.04c-6.28 0-11.1-5.56-10.21-11.78l4.26-29.9 2.14-15 4.89-34.34c.29-1.99.66-3.96 1.14-5.89 1.26-5.28 3.19-10.31 5.7-15 7.63-14.27 20.6-25.35 36.55-30.44l4.93-1.21 22-5.37 78.06-19.09c12.04-2.63 20.63-13.29 20.63-25.62v-64.27h75.86v64.27c0 12.33 8.59 22.99 20.63 25.62l56.05 13.7 22 5.38c.01 0 .03.01.04.01l26.9 6.58c15.95 5.09 28.92 16.17 36.55 30.44l-3.02 7.5 8.71 7.5c.48 1.93.86 3.9 1.14 5.89l4.9 34.34-3.68 8.36 5.82 6.64 4.26 29.9c.89 6.22-3.93 11.78-10.21 11.78z"
              fill="#a2aee6"/>
        <path d="m111.88 348.071v148.93h-22v-143.56z" fill="#8795de"/>
        <path d="m385.11 81.921v102.03h-273.22v-102.03c0-50.48 45.22-88.94 95.04-80.84l28.43 4.62c1.87.31 3.75.54 5.64.72 4.99.46 10.01.46 15 0 1.89-.18 3.77-.41 5.64-.72l28.43-4.62c49.82-8.1 95.04 30.36 95.04 80.84z"
              fill="#e9edf1"/>
        <path d="m333.14 143.061v40.89h-213.28l-.01-40.89c0-17.09 9.81-32.67 25.23-40.06l72.572-34.788c3.443-1.65 7.212-2.507 11.029-2.507h19.819l59.42 37.295c15.42 7.39 25.23 22.97 25.22 40.06z"
              fill="#c8d2dc"/>
        <g>
            <path d="m256 6.421v67.97c0 4.15-3.36 7.5-7.5 7.5s-7.5-3.35-7.5-7.5v-67.97c4.99.46 10.01.46 15 0z"
                  fill="#c8d2dc"/>
        </g>
        <g>
            <path d="m292.324.748c39.34 5.348 70.79 39.08 70.79 81.175v102.025h22.001v-102.025c0-49.717-43.865-87.776-92.791-81.175z"
                  fill="#c8d2dc"/>
        </g>
        <path d="m248.5 205.381v63.56c0 7.32-2.16 14.14-5.87 19.85-6.5 10.03-17.8 16.67-30.66 16.67h-63.56c-20.17 0-36.53-16.35-36.53-36.52v-63.56c0-8.62 2.98-16.54 7.98-22.78 6.69-8.38 16.99-13.75 28.55-13.75h63.56c20.18 0 36.53 16.35 36.53 36.53z"
              fill="#e9edf1"/>
        <path d="m248.5 205.381v63.56c0 7.32-2.16 14.14-5.87 19.85h-35.03c-48.46 0-87.74-39.29-87.74-87.75v-18.44c6.69-8.38 16.99-13.75 28.55-13.75h63.56c20.18 0 36.53 16.35 36.53 36.53z"
              fill="#c8d2dc"/>
        <path d="m456.52 497.001h-18.64c4.67-1.09 7.74-5.57 7.06-10.32l-11.51-80.7c-3.42-24-25.18-50.51-48.28-57.91l26.9 6.58c15.95 5.09 28.92 16.17 36.55 30.44l-3.02 7.5 8.71 7.5c.48 1.93.86 3.9 1.14 5.89l4.9 34.34-3.68 8.36 5.82 6.64 4.26 29.9c.89 6.22-3.93 11.78-10.21 11.78z"
              fill="#8795de"/>
        <path d="m147.34 220.221h-30.18c-12.05 0-21.81-9.77-21.81-21.81v-20.8c0-12.04 9.76-21.81 21.81-21.81h24.69z"
              fill="#fed2a4"/>
        <path d="m147.34 220.221h-25.37c-1.38-6.17-2.11-12.59-2.11-19.18l-.01-45.24h22z" fill="#ffbd86"/>
        <path d="m379.84 220.217h-32.497l7.804-64.413h24.693c12.045 0 21.81 9.765 21.81 21.81v20.793c0 12.046-9.764 21.81-21.81 21.81z"
              fill="#fed2a4"/>
        <path d="m379.84 155.805h-22.001c12.045 0 21.81 9.765 21.81 21.81v20.793c0 12.045-9.765 21.81-21.81 21.81h22.001c12.045 0 21.81-9.765 21.81-21.81v-20.793c0-12.046-9.764-21.81-21.81-21.81z"
              fill="#ffbd86"/>
        <path d="m385.11 348.061v148.94h-22v-154.32z" fill="#8795de"/>
        <path d="m355.15 155.801-.01 45.24c0 48.46-39.28 87.75-87.74 87.75h-37.8c-48.46 0-87.74-39.29-87.74-87.75l-.01-45.24 4.15-7.5-4.09-7.5c.82-16.19 10.43-30.74 25.17-37.8l70.42-33.76 4.09-1.96c4.37-2.1 9.45-2.1 13.82 0l74.51 35.72c14.74 7.06 24.35 21.61 25.17 37.8l-4.49 7.5z"
              fill="#fed2a4"/>
        <path d="m355.15 155.801-.01 45.24c0 48.46-39.28 87.75-87.74 87.75h-22c48.46 0 87.74-39.29 87.74-87.75v-57.98c.01-17.09-9.8-32.67-25.22-40.06l-70.42-33.76 4.09-1.96c4.37-2.1 9.45-2.1 13.82 0l74.51 35.72c14.74 7.06 24.35 21.61 25.17 37.8l-4.49 7.5z"
              fill="#ffbd86"/>
        <path d="m310.02 288.501v30.83c0 7.72-6.25 13.97-13.96 13.97h-95.12c-7.71 0-13.96-6.25-13.96-13.97v-30.83c0-7.71 6.25-13.96 13.96-13.96h95.12c7.71 0 13.96 6.25 13.96 13.96z"
              fill="#8795de"/>
        <path d="m296.06 274.537h-22.001c7.712 0 13.965 6.252 13.965 13.965v30.834c0 7.712-6.252 13.965-13.965 13.965h22.001c7.712 0 13.964-6.252 13.964-13.965v-30.834c0-7.713-6.252-13.965-13.964-13.965z"
              fill="#6c7fd8"/>
        <path d="m202.27 194.976h-12.748c-10.618 0-19.226-8.608-19.226-19.226v-27.449h51.201v27.449c-.001 10.618-8.609 19.226-19.227 19.226z"
              fill="#daf3f6"/>
        <path d="m308.502 194.976h-12.748c-10.618 0-19.226-8.608-19.226-19.226v-27.449h51.201v27.449c-.001 10.618-8.609 19.226-19.227 19.226z"
              fill="#daf3f6"/>
        <g>
            <path d="m248.5 206.415c-4.142 0-7.5-3.358-7.5-7.5v-26.431c0-4.142 3.358-7.5 7.5-7.5s7.5 3.358 7.5 7.5v26.431c0 4.142-3.358 7.5-7.5 7.5z"
                  fill="#ffbd86"/>
        </g>
        <g>
            <g>
                <path d="m195.895 177.139c-4.142 0-7.5-3.358-7.5-7.5v-5.21c0-4.142 3.358-7.5 7.5-7.5s7.5 3.358 7.5 7.5v5.21c0 4.142-3.358 7.5-7.5 7.5z"
                      fill="#5d5360"/>
            </g>
            <g>
                <path d="m302.128 176.974c-4.142 0-7.5-3.358-7.5-7.5v-5.21c0-4.142 3.358-7.5 7.5-7.5s7.5 3.358 7.5 7.5v5.21c0 4.142-3.358 7.5-7.5 7.5z"
                      fill="#5d5360"/>
            </g>
        </g>
        <g>
            <path d="m248.5 250.547c-10.239 0-19.527-5.23-24.845-13.991-2.149-3.541-1.021-8.154 2.519-10.303 3.542-2.149 8.154-1.021 10.303 2.519 2.575 4.242 7.069 6.775 12.022 6.775s9.447-2.533 12.022-6.775c2.149-3.54 6.762-4.668 10.303-2.519s4.668 6.762 2.519 10.303c-5.316 8.76-14.604 13.991-24.843 13.991z"
                  fill="#ffbd86"/>
        </g>
        <g>
            <path d="m177.79 148.301c0 4.14-3.35 7.5-7.5 7.5h-28.44v-12.74c0-.76.02-1.51.06-2.26h28.38c4.15 0 7.5 3.36 7.5 7.5z"
                  fill="#8795de"/>
        </g>
        <g>
            <path d="m355.15 143.061v12.74h-27.42c-4.14 0-7.5-3.36-7.5-7.5s3.36-7.5 7.5-7.5h27.36c.04.75.06 1.5.06 2.26z"
                  fill="#8795de"/>
        </g>
        <g>
            <path d="m276.528 171.929h-55.032c-4.142 0-7.5-3.358-7.5-7.5s3.358-7.5 7.5-7.5h55.032c4.142 0 7.5 3.358 7.5 7.5s-3.358 7.5-7.5 7.5z"
                  fill="#8795de"/>
        </g>
        <g>
            <g>
                <path d="m218.15 274.541h15v58.76h-15z" fill="#6c7fd8"/>
            </g>
            <g>
                <path d="m263.85 274.541h15v58.76h-15z" fill="#6c7fd8"/>
            </g>
        </g>
        <g>
            <path d="m202.269 202.476h-12.748c-14.737 0-26.726-11.989-26.726-26.726v-27.449c0-4.142 3.358-7.5 7.5-7.5s7.5 3.358 7.5 7.5v27.449c0 6.466 5.26 11.726 11.726 11.726h12.748c6.466 0 11.727-5.26 11.727-11.726v-27.449c0-4.142 3.358-7.5 7.5-7.5s7.5 3.358 7.5 7.5v27.449c0 14.737-11.989 26.726-26.727 26.726z"
                  fill="#a2aee6"/>
        </g>
        <g>
            <path d="m308.502 202.476h-12.749c-14.737 0-26.726-11.989-26.726-26.726v-27.449c0-4.142 3.358-7.5 7.5-7.5s7.5 3.358 7.5 7.5v27.449c0 6.466 5.26 11.726 11.726 11.726h12.749c6.466 0 11.726-5.26 11.726-11.726v-27.449c0-4.142 3.358-7.5 7.5-7.5s7.5 3.358 7.5 7.5v27.449c0 14.737-11.989 26.726-26.726 26.726z"
                  fill="#a2aee6"/>
        </g>
        <g>
            <g>
                <path d="m454.29 400.091h-411.59c1.26-5.28 3.19-10.31 5.7-15h400.2c2.5 4.69 4.43 9.72 5.69 15z"
                      fill="#8795de"/>
            </g>
            <g>
                <path d="m462.47 455.321h-427.94l2.14-15h423.66z" fill="#8795de"/>
            </g>
            <g fill="#6c7fd8">
                <path d="m89.88 385.091h22v15h-22z"/>
                <path d="m89.88 440.321h22v15h-22z"/>
                <path d="m454.29 400.091h-22.05c-1.3-5.03-3.34-10.1-5.95-15h22.31c2.5 4.69 4.43 9.72 5.69 15z"/>
                <path d="m462.47 455.321h-22l-2.14-15h22z"/>
                <path d="m363.11 385.091h22v15h-22z"/>
                <path d="m363.11 440.321h22v15h-22z"/>
            </g>
        </g>
    </g>
</svg>