<svg height="512" viewBox="0 0 512 512" width="512" xmlns="http://www.w3.org/2000/svg">
    <g>
        <path d="m79.027 184.119c-1.168 7.607-13.537 4.095-14.786 14.786l48.317 57.148 17.943-7.175 5.675-16.443z"
              fill="#e27d47"/>
        <path d="m323.927 313.367 12.291-28.521c-2.798-4.98-4.371-10.7-4.371-16.717v-18.783c-13.271 9.107-29.32-3.974-46.545-3.974-17.225 0-33.274 13.081-46.545 3.974v18.783c0 6.193-1.666 12.072-4.62 17.152l12.375 28.427c24.448 11.956 53.073 11.83 77.415-.341z"
              fill="#df9380"/>
        <path d="m197.382 309.753 4.972-14.964-45.91-45.91-37.412 17.476 56.232 56.232c9.314-3.483 11.832-12.834 22.118-12.834z"
              fill="#475959"/>
        <path d="m455.968 374.467c0-6.085-.882-12.004-2.537-17.618l-90.553-54.303-5.167-1.292c-9.363-2.341-17.005-8.422-21.493-16.409l-12.291 6.146c-24.342 12.171-52.967 12.297-77.416.341l-12.375-6.052c-4.519 7.773-12.052 13.676-21.244 15.974l-5.165 1.291-90.555 54.303c-1.655 5.615-2.537 11.533-2.537 17.618v136.234c0 .718.582 1.3 1.3 1.3h338.733c.718 0 1.3-.582 1.3-1.3z"
              fill="#9bb9c1"/>
        <path d="m453.431 356.849h-38.67v71.437c0 7.607-1.346 14.901-3.813 21.654h45.02v-75.473c0-6.085-.882-12.004-2.537-17.618z"
              fill="#86a0af"/>
        <path d="m393.909 475.159c-11.188 10.093-26.006 16.237-42.26 16.237h-237.014v19.304c0 .718.582 1.3 1.3 1.3h338.733c.718 0 1.3-.582 1.3-1.3v-29.73h-62.059z"
              fill="#86a0af"/>
        <path d="m285.302 394.344-3.547 41.063h41.451l70.703-78.558-31.031-46.546z" fill="#dd6938"/>
        <path d="m247.398 435.407-70.701 76.593h77.575l31.03-34.478-.858-32.76z" fill="#dd6938"/>
        <path d="m195.716 491.396-19.019 20.604h77.575l18.544-20.604z" fill="#dd542e"/>
        <path d="m176.696 480.97h-65.533c-1.185 0-2.146-.961-2.146-2.146v-26.739c0-1.185.961-2.146 2.146-2.146h65.533z"
              fill="#d0e2e7"/>
        <path d="m393.909 480.97h65.533c1.185 0 2.146-.961 2.146-2.146v-26.739c0-1.185-.961-2.146-2.146-2.146h-65.533z"
              fill="#d0e2e7"/>
        <path d="m459.442 449.939h-48.495c-3.565 9.76-9.471 18.393-17.038 25.22v5.81h65.533c1.185 0 2.146-.961 2.146-2.146v-26.739c0-1.184-.961-2.145-2.146-2.145z"
              fill="#b4d0d5"/>
        <path d="m211.132 71.573v145.639c13.362 27.662 41.675 46.545 74.169 46.545 32.495 0 60.807-18.884 74.17-46.545v-145.639z"
              fill="#ffcbbe"/>
        <path d="m354.619 81.318-36.355 11.774v75.093c0 44.854-39.532 82.583-88.902 73.652 14.725 13.635 34.414 21.921 55.939 21.921 32.495 0 60.807-18.884 74.169-46.545z"
              fill="#eaac9d"/>
        <path d="m148.442 220.167-48.154 48.154c-4.805 4.805-4.805 12.595 0 17.4l6.02 6.02c2.008 2.008 5.264 2.008 7.272 0l58.281-58.281c2.008-2.008 2.008-5.264 0-7.272l-6.02-6.02c-4.803-4.806-12.594-4.806-17.399-.001z"
              fill="#ffd064"/>
        <g>
            <path d="m279.633 185.048h-2.089c-4.268 0-7.726-3.459-7.726-7.726s3.459-7.726 7.726-7.726h2.089c3.143 0 5.7-2.557 5.7-5.7v-17.604c0-4.267 3.459-7.726 7.726-7.726s7.726 3.459 7.726 7.726v17.604c.001 11.663-9.488 21.152-21.152 21.152z"
                  fill="#eaac9d"/>
        </g>
        <path d="m168.969 512v-93.091c0-4.267 3.459-7.726 7.726-7.726s7.726 3.459 7.726 7.726v93.091zm232.665 0v-93.091c0-4.267-3.459-7.726-7.726-7.726s-7.726 3.459-7.726 7.726v93.091z"
              fill="#86a0af"/>
        <path d="m168.969 491.396h15.453v20.604h-15.453z" fill="#738b95"/>
        <path d="m285.304 364.575c4.268 0 7.726-3.459 7.726-7.726v-57.02c-5.138.482-10.31.507-15.453.076v56.944c0 4.267 3.459 7.726 7.727 7.726z"
              fill="#86a0af"/>
        <path d="m176.697 512h7.725v-8.368z" fill="#ce4529"/>
        <path d="m393.909 475.159c-2.414 2.178-4.998 4.172-7.728 5.96v30.881h15.453v-45.18c-2.322 3.007-4.908 5.798-7.725 8.339z"
              fill="#738b95"/>
        <path d="m207.727 310.303-31.031 46.546 139.637 155.151h77.574z" fill="#e27d47"/>
        <g fill="#d0e2e7">
            <path d="m202.354 356.849h-94.539c-3.994 0-6.592-4.203-4.806-7.776l3.768-7.537c14.325-28.65 43.608-46.748 75.64-46.748h19.937c2.967 0 5.373 2.406 5.373 5.373v51.315c0 2.967-2.406 5.373-5.373 5.373z"/>
            <path d="m368.251 356.849h94.539c3.994 0 6.592-4.203 4.806-7.776l-3.768-7.537c-14.325-28.65-43.608-46.748-75.64-46.748h-19.937c-2.967 0-5.373 2.406-5.373 5.373v51.315c0 2.967 2.406 5.373 5.373 5.373z"/>
        </g>
        <path d="m351.65 491.396h-53.86l18.543 20.604h77.575l-22.065-23.904c-6.34 2.14-13.131 3.3-20.193 3.3z"
              fill="#dd6938"/>
        <path d="m386.181 512h7.726l-7.726-8.37z" fill="#dd542e"/>
        <ellipse cx="61.531" cy="181.41" fill="#ffd064" rx="17.701" ry="17.702"
                 transform="matrix(.967 -.257 .257 .967 -44.501 21.87)"/>
        <path d="m192.212 93.09v105.406c0 10.337 8.38 18.717 18.717 18.717h30.984c6.826 0 12.36-5.534 12.36-12.36v-10.913c0-12.805-10.341-23.195-23.128-23.273-4.338-.026-7.902-3.401-7.902-7.739v-59.82c0-5.532 4.484-10.016 10.016-10.016h104.087c5.532 0 10.016 4.484 10.016 10.016v59.82c0 4.338-3.564 7.713-7.902 7.739-12.787.078-23.128 10.468-23.128 23.273v10.913c0 6.826 5.534 12.36 12.36 12.36h30.984c10.337 0 18.717-8.38 18.717-18.717l.001-105.405c-.001-51.413-41.679-93.091-93.092-93.091-51.412 0-93.09 41.678-93.09 93.09z"
              fill="#d0e2e7"/>
        <path d="m292.903 31.031c0-4.267-3.459-7.726-7.726-7.726s-7.726 3.459-7.726 7.726v62.061h15.453v-62.061z"
              fill="#9bb9c1"/>
    </g>
</svg>