<svg height="512" viewBox="0 0 497 497" width="512" xmlns="http://www.w3.org/2000/svg">
    <g>
        <path d="m374.77 101.17v279.08h-252.54v-279.08c0-55.88 45.3-101.17 101.17-101.17h50.2c5.05 0 10.01.37 14.86 1.09 5.13.75 10.14 1.89 15 3.39 41.29 12.73 71.31 51.2 71.31 96.69z"
              fill="#d19a6e"/>
        <path d="m330.338 183.723.005-43.589c-29.222-9.444-27.228-45.043-32.48-62.49l-11.965-.04c-6.633-.022-13.07 2.433-17.871 7.01-34.963 33.34-143.196 55.52-143.196 55.52l.005 43.589c0 36.266 22.841 67.18 54.918 79.182 6.742 2.522 11.283 8.869 11.283 16.067v31.447c0 11.88-8.27 22.16-19.87 24.69l-48.937 16.476c19.4 35.05 62.467 51.754 105.357 51.754s80.24-23.73 99.64-58.78l-43.22-9.45c-11.6-2.53-19.87-12.81-19.87-24.69v-44.173c37.869-8.38 66.201-42.133 66.201-82.523z"
              fill="#c38c66"/>
        <g>
            <path d="m303.46 4.48v77.44c0 4.14-3.36 7.5-7.5 7.5s-7.5-3.36-7.5-7.5v-80.83c5.13.75 10.14 1.89 15 3.39z"
                  fill="#c38c66"/>
        </g>
        <path d="m273.601 0h-21.434c55.874 0 101.169 45.295 101.169 101.169v279.078h21.434v-279.078c0-55.874-45.295-101.169-101.169-101.169z"
              fill="#c38c66"/>
        <path d="m448.38 497h-399.76c-6.34 0-11.21-5.62-10.31-11.9l10.8-75.8c3.3-23.14 19.54-42.35 41.81-49.46l4.52-1.19 21.43-5.65 31.99-8.44 43.22-9.45h112.84l43.22 9.45 10.56 2.78 18.41 4.86 3.02.8 25.95 6.84c22.27 7.11 38.51 26.32 41.81 49.46l10.8 75.8c.9 6.28-3.97 11.9-10.31 11.9z"
              fill="#fe5694"/>
        <path d="m116.87 353v144h-21.43v-138.35z" fill="#fd3581"/>
        <path d="m448.38 497h-19.98c5.85-2.18 9.4-8.14 8.51-14.32l-10.46-73.38c-3.3-23.14-24.06-49.19-46.32-56.3l25.95 6.84c22.27 7.11 38.51 26.32 41.81 49.46l10.8 75.8c.9 6.28-3.97 11.9-10.31 11.9z"
              fill="#fd3581"/>
        <path d="m151.03 202.2h-29.08c-11.6 0-21.01-9.41-21.01-21.02v-20.03c0-11.61 9.41-21.02 21.01-21.02h23.79z"
              fill="#ffe5c2"/>
        <path d="m151.03 202.2h-24.16c-1.33-5.95-2.03-12.13-2.03-18.48l-.01-43.59h20.91z" fill="#fed2a4"/>
        <path d="m375.048 202.197h-31.311l7.519-62.063h23.792c11.606 0 21.014 9.408 21.014 21.014v20.034c.001 11.607-9.408 21.015-21.014 21.015z"
              fill="#ffe5c2"/>
        <path d="m375.048 140.135h-21.434c11.606 0 21.014 9.408 21.014 21.014v20.034c0 11.606-9.408 21.014-21.014 21.014h21.434c11.606 0 21.014-9.408 21.014-21.014v-20.034c0-11.606-9.408-21.014-21.014-21.014z"
              fill="#fed2a4"/>
        <path d="m380.13 353v144h-21.43v-149.66l18.41 4.86z" fill="#fd3581"/>
        <g>
            <path d="m268.414 433.227c-1.919 0-3.839-.732-5.303-2.197l-14.61-14.61-14.61 14.61c-2.929 2.929-7.678 2.929-10.606 0-2.929-2.929-2.929-7.678 0-10.606l19.914-19.914c2.929-2.929 7.678-2.929 10.606 0l19.914 19.914c2.929 2.929 2.929 7.678 0 10.606-1.467 1.464-3.386 2.197-5.305 2.197z"
                  fill="#fd3581"/>
        </g>
        <path d="m348.14 344.56c-19.4 35.05-56.75 58.78-99.64 58.78s-80.24-23.73-99.64-58.78l43.22-9.45c11.6-2.53 19.87-12.81 19.87-24.69v-61.92h73.1v61.92c0 11.88 8.27 22.16 19.87 24.69z"
              fill="#ffe5c2"/>
        <path d="m304.92 335.11c-11.6-2.53-19.87-12.81-19.87-24.69v-61.92h-20.913v61.92c0 11.88 8.27 22.16 19.87 24.69l31.623 6.914c5.84 1.277 8.494 8.098 5.05 12.984-18.713 26.552-48.498 44.73-82.636 47.842 3.445.314 6.93.49 10.457.49 42.89 0 80.24-23.73 99.64-58.78z"
              fill="#fed2a4"/>
        <path d="m351.26 140.13-.01 43.59c0 46.69-37.85 84.54-84.54 84.54h-36.42c-46.69 0-84.54-37.85-84.54-84.54l-.01-43.59s93.43-13.61 138.79-52.09c3.18-2.69 6.12-5.51 8.78-8.46 3.11-3.45 8.82-2.1 10.15 2.34 5.16 17.37 18.34 48.7 47.8 58.21z"
              fill="#ffe5c2"/>
        <path d="m351.26 140.13-.01 43.59c0 46.69-37.85 84.54-84.54 84.54h-20.91c46.69 0 84.54-37.85 84.54-84.54v-33.96c0-5.39-2.97-10.4-7.79-12.81-21.16-10.59-32.43-32.96-38.02-48.91 3.18-2.69 6.12-5.51 8.78-8.46 3.11-3.45 8.82-2.1 10.15 2.34 5.16 17.37 18.34 48.7 47.8 58.21z"
              fill="#fed2a4"/>
        <g fill="#ffc8dd">
            <ellipse cx="306.507" cy="197.82" rx="15.141" ry="8.553"/>
            <ellipse cx="189.059" cy="197.82" rx="15.141" ry="8.553"/>
        </g>
        <g>
            <path d="m255.391 199.93h-6.891c-4.142 0-7.5-3.358-7.5-7.5v-19.404c0-4.142 3.358-7.5 7.5-7.5s7.5 3.358 7.5 7.5v11.929c3.857.31 6.891 3.539 6.891 7.476 0 4.141-3.358 7.499-7.5 7.499z"
                  fill="#fed2a4"/>
        </g>
        <g>
            <g>
                <path d="m189.059 179.531c-4.142 0-7.5-3.358-7.5-7.5v-13.242c0-4.142 3.358-7.5 7.5-7.5s7.5 3.358 7.5 7.5v13.242c0 4.142-3.358 7.5-7.5 7.5z"
                      fill="#5d5360"/>
            </g>
            <g>
                <path d="m307.941 179.531c-4.142 0-7.5-3.358-7.5-7.5v-13.242c0-4.142 3.358-7.5 7.5-7.5s7.5 3.358 7.5 7.5v13.242c0 4.142-3.358 7.5-7.5 7.5z"
                      fill="#5d5360"/>
            </g>
        </g>
        <g>
            <path d="m248.5 238.141c-10.239 0-19.527-5.23-24.845-13.991-2.149-3.541-1.021-8.154 2.519-10.303 3.542-2.149 8.154-1.021 10.303 2.519 2.575 4.242 7.069 6.775 12.022 6.775s9.447-2.533 12.022-6.775c2.149-3.54 6.762-4.668 10.303-2.519s4.668 6.762 2.519 10.303c-5.316 8.761-14.604 13.991-24.843 13.991z"
                  fill="#fed2a4"/>
        </g>
    </g>
</svg>