<svg height="512" viewBox="0 0 497 497" width="512" xmlns="http://www.w3.org/2000/svg">
    <g>
        <path d="m377.942 196.415h-24.671l-7.513-31.64 7.513-31.64h24.671c11.606 0 21.014 9.408 21.014 21.014v21.252c.001 11.606-9.408 21.014-21.014 21.014z"
              fill="#ffe5c2"/>
        <path d="m377.942 133.135h-21.852c11.606 0 21.014 9.408 21.014 21.014v21.252c0 11.606-9.408 21.014-21.014 21.014h21.852c11.606 0 21.014-9.408 21.014-21.014v-21.251c.001-11.606-9.408-21.015-21.014-21.015z"
              fill="#fed2a4"/>
        <path d="m143.728 196.415h-24.671c-11.606 0-21.014-9.408-21.014-21.014v-21.251c0-11.606 9.408-21.014 21.014-21.014h24.671l8.88 31.64z"
              fill="#ffe5c2"/>
        <path d="m121.876 133.135v63.28h21.852l8.88-31.64-8.88-31.64z" fill="#fed2a4"/>
        <path d="m355.631 362.489h-214.262v-34.306c0-28.432 23.048-51.48 51.48-51.48l55.651-8.862 55.651 8.862c28.432 0 51.48 23.048 51.48 51.48z"
              fill="#d19a6e"/>
        <path d="m304.151 276.703-9.775-1.557-12.078 1.557c28.432 0 51.48 23.048 51.48 51.48v34.307h21.852v-34.307c.001-28.432-23.048-51.48-51.479-51.48z"
              fill="#c38c66"/>
        <path d="m371.1 416.67-15.47 80.33h-214.26l-10.93-70.92 10.93-85.73 13.55-2.49 39.04-7.18 17.27-3.17h74.54l48.01 8.82 21.85 4.02z"
              fill="#95d6a4"/>
        <path d="m371.1 416.67-15.47 80.33h-21.85v-160.67l21.85 4.02z" fill="#78c2a4"/>
        <g>
            <path d="m256 353.43v143.57h-15v-143.57c0-4.14 3.36-7.5 7.5-7.5s7.5 3.36 7.5 7.5z" fill="#78c2a4"/>
        </g>
        <path d="m226.65 353.43-27.52 36.6c-4.54 6.03-13.8 5.29-17.33-1.38l-3.98-7.52-22.9-43.27 39.04-7.18c.1.08.2.15.3.22z"
              fill="#78c2a4"/>
        <path d="m353.29 121.6-.02 97.88h-209.54l-.01-97.89 40.05-37.14 122.85.94 24.79 20.05 21.87 16.15z"
              fill="#ffe5c2"/>
        <path d="m353.28 121.59-.01 97.89h-21.86v-114.04z" fill="#fed2a4"/>
        <path d="m285.77 263.78v63.73l-14.83 17.2-22.44 8.72-11.14-3.83-10.7-3.67-15.43-18.42v-63.73z" fill="#ffe5c2"/>
        <path d="m285.77 263.78v63.73l-14.83 17.2-22.44 8.72-11.14-3.83.21-3.77 15.84-11.02c6.58-4.57 10.5-12.08 10.5-20.09v-50.94z"
              fill="#fed2a4"/>
        <path d="m248.5 353.43-27.52 36.6c-4.54 6.03-13.8 5.29-17.33-1.38l-3.98-7.52-24.84-46.93c0-10.18 5.94-18.98 14.55-23.1 3.35-1.6 7.09-2.5 11.05-2.5h10.8v12.97c0 3.72 1.82 7.2 4.88 9.33z"
              fill="#95d6a4"/>
        <path d="m248.5 353.43-27.52 36.6c-4.54 6.03-13.8 5.29-17.33-1.38l-3.98-7.52c3.39.35 6.95-.96 9.27-4.04l10.41-13.92c3.99-5.32 2.77-12.89-2.69-16.69l-22.43-15.6c-3.04-2.11-4.85-5.58-4.85-9.28v-10.5c3.35-1.6 7.09-2.5 11.05-2.5h10.8v12.97c0 3.72 1.82 7.2 4.88 9.33z"
              fill="#78c2a4"/>
        <path d="m285.767 321.591v-12.988h10.808c14.136 0 25.595 11.459 25.595 25.595l-28.82 54.457c-3.528 6.667-12.792 7.4-17.326 1.372l-27.524-36.599 32.41-22.543c3.043-2.117 4.857-5.588 4.857-9.294z"
              fill="#95d6a4"/>
        <path d="m296.574 308.603h-10.808v2.5c6.6 3.162 11.635 9.07 13.623 16.244 1.01 3.646.563 7.544-1.195 10.895l-21.782 41.514c-.588 1.098-2.906 2.795-5.469 3.516l5.08 6.755c4.534 6.028 13.797 5.295 17.326-1.372l28.82-54.456c0-14.137-11.459-25.596-25.595-25.596z"
              fill="#78c2a4"/>
        <path d="m353.28 68.94v52.65h-21.47c-7.42 0-13.44-6.02-13.44-13.44 0-3.71-1.5-7.07-3.93-9.5-2.44-2.43-5.8-3.94-9.51-3.94h-112.86c-7.43 0-13.44 6.02-13.44 13.44 0 3.71-1.51 7.07-3.94 9.5s-5.79 3.94-9.5 3.94h-21.47v-103.16c0-10.18 8.26-18.43 18.44-18.43h46.58c5.82 0 11.29 2.74 14.77 7.4l9.1 12.18c2.52 3.38 6.48 5.37 10.7 5.37h65.98c24.29 0 43.99 19.69 43.99 43.99z"
              fill="#5d5360"/>
        <g fill="#4b3f4e">
            <path d="m156.774 108.149c0 7.291-5.809 13.211-13.049 13.42v.02h21.461c7.423 0 13.44-6.017 13.44-13.44s6.017-13.44 13.44-13.44h-21.852c-7.423 0-13.44 6.017-13.44 13.44z"/>
            <path d="m243.31 24.95h-22.18c-4.01 0-7.78-1.89-10.18-5.1l-9.29-12.45c-3.48-4.66-8.96-7.4-14.78-7.4h21.86c5.82 0 11.29 2.74 14.77 7.4l9.1 12.18c2.52 3.38 6.48 5.37 10.7 5.37z"/>
            <path d="m309.289 24.95h-21.852c24.293 0 43.986 19.693 43.986 43.986v52.633c.131.004.259.02.391.02h21.461v-52.653c0-24.293-19.693-43.986-43.986-43.986z"/>
        </g>
        <path d="m353.265 219.482v4.027c0 29.375-23.818 53.193-53.193 53.193h-103.144c-29.375 0-53.193-23.818-53.193-53.193v-4.027l79.367-31.098c16.344-6.403 34.493-6.403 50.828 0z"
              fill="#5d5360"/>
        <path d="m273.929 188.384c-11.628-4.559-24.175-5.854-36.337-3.922 4.92.782 9.779 2.077 14.485 3.922l75.586 29.628c2.262.887 3.75 3.068 3.75 5.497 0 29.375-23.818 53.193-53.193 53.193h21.852c29.378 0 53.193-23.815 53.193-53.193v-4.028z"
              fill="#4b3f4e"/>
        <g>
            <g>
                <path d="m187.894 173.157c-4.142 0-7.5-3.358-7.5-7.5v-13.501c0-4.142 3.358-7.5 7.5-7.5s7.5 3.358 7.5 7.5v13.501c0 4.142-3.358 7.5-7.5 7.5z"
                      fill="#5d5360"/>
            </g>
            <g>
                <path d="m309.106 173.157c-4.142 0-7.5-3.358-7.5-7.5v-13.501c0-4.142 3.358-7.5 7.5-7.5s7.5 3.358 7.5 7.5v13.501c0 4.142-3.357 7.5-7.5 7.5z"
                      fill="#5d5360"/>
            </g>
        </g>
        <g>
            <path d="m248.5 239.94c-11.236 0-21.428-5.739-27.264-15.353-2.149-3.541-1.021-8.154 2.519-10.303 3.541-2.15 8.154-1.021 10.303 2.519 3.093 5.095 8.492 8.137 14.441 8.137s11.349-3.042 14.441-8.137c2.15-3.54 6.763-4.668 10.303-2.519s4.668 6.762 2.519 10.303c-5.834 9.614-16.026 15.353-27.262 15.353z"
                  fill="#4b3f4e"/>
        </g>
        <g>
            <path d="m248.5 191.082c-4.142 0-7.5-3.358-7.5-7.5v-19.968c0-4.142 3.358-7.5 7.5-7.5s7.5 3.358 7.5 7.5v19.968c0 4.142-3.358 7.5-7.5 7.5z"
                  fill="#fed2a4"/>
        </g>
        <circle cx="283.19" cy="430.554" fill="#5d5360" r="7.5"/>
        <circle cx="283.19" cy="465.474" fill="#5d5360" r="7.5"/>
        <path d="m470.149 405.581c-3.364-23.592-19.922-43.183-42.623-50.432l-26.46-6.449-.001.005v-.009l-45.434-8.351v156.655h19.41 26.024 70.295c6.097 0 10.788-5.39 9.945-11.429z"
              fill="#d19a6e"/>
        <path d="m470.149 405.581c-3.364-23.592-19.922-43.183-42.623-50.432l-26.46-6.449c22.701 7.249 43.867 33.289 47.231 56.881l10.879 78.644c.823 5.948-3.086 11.522-8.958 12.774h21.143c6.097 0 10.788-5.39 9.945-11.429z"
              fill="#c38c66"/>
        <path d="m401.06 348.7v148.3h-21.85v-152.32z" fill="#c38c66"/>
        <path d="m95.935 348.697v.013l-.001-.01-26.46 6.449c-22.701 7.249-39.259 26.84-42.623 50.432l-11.157 79.99c-.842 6.039 3.849 11.429 9.946 11.429h70.295 13.876 31.558v-156.653z"
              fill="#d19a6e"/>
        <g fill="#c38c66">
            <path d="m74.082 354.027v142.973h21.852v-148.299z"/>
            <path d="m119.517 344.363v152.637h21.852v-156.653z"/>
        </g>
    </g>
</svg>